<?xml version="1.0" encoding="UTF-8" standalone="no"?>
<!DOCTYPE svg PUBLIC "-//W3C//DTD SVG 1.1//EN" "http://www.w3.org/Graphics/SVG/1.1/DTD/svg11.dtd">
<svg width="100%" height="100%" viewBox="0 0 57 45" version="1.1" xmlns="http://www.w3.org/2000/svg" xmlns:xlink="http://www.w3.org/1999/xlink" xml:space="preserve" xmlns:serif="http://www.serif.com/" style="fill-rule:evenodd;clip-rule:evenodd;stroke-linejoin:round;stroke-miterlimit:2;">
    <g transform="matrix(1,0,0,1,-0.000339886,0.000209499)">
        <g id="icon--swivels" transform="matrix(1,0,0,1,-931.632,-3673.61)">
            <g id="react-path-233" transform="matrix(1,0,0,1,288,3551)">
                <path d="M645.244,158.137C647.671,158.664 649.255,153.957 650.774,152.763C653.294,150.784 657.663,150.385 660.229,152.377C665.24,156.265 663.513,164.659 670.648,166.847C677.025,168.803 680.029,160.404 685.397,158.313C688.518,157.097 691.944,156.301 690.726,151.938C689.885,148.921 687.407,148.146 684.713,149.305C680.083,151.295 678.513,159.405 673.022,159.547C667.343,159.697 666.727,151.51 664.289,147.947C660.572,142.512 652.931,141.199 648.589,146.396C647.278,147.964 640.622,157.139 645.244,158.14" style="fill:rgb(249,196,99);"/>
            </g>
            <g id="react-path-232" transform="matrix(1,0,0,1,285,3549)">
                <path d="M700.644,131.82C697.921,130.82 694.552,128.879 691.525,129.542C688.308,130.242 687.013,133.468 684.674,135.405C678.315,140.672 674.611,132.822 671.117,128.52C667.817,124.458 663.791,123.472 659.135,125.968C657.28,126.963 649.465,131.522 650.828,134.443C651.808,136.543 655.669,134.658 656.986,134.199C659.845,133.204 662.5,132.333 665.424,133.784C670.909,136.504 672.332,143.963 678.968,145.126C685.83,146.326 686.055,139.799 690.952,137.341C694.235,135.694 696.522,138.61 699.689,138.029C702.707,137.476 704.103,133.084 700.644,131.82" style="fill:rgb(249,196,99);"/>
            </g>
        </g>
    </g>
</svg>
