<?xml version="1.0" encoding="UTF-8" standalone="no"?>
<!DOCTYPE svg PUBLIC "-//W3C//DTD SVG 1.1//EN" "http://www.w3.org/Graphics/SVG/1.1/DTD/svg11.dtd">
<svg width="100%" height="100%" viewBox="0 0 118 122" version="1.1" xmlns="http://www.w3.org/2000/svg" xmlns:xlink="http://www.w3.org/1999/xlink" xml:space="preserve" xmlns:serif="http://www.serif.com/" style="fill-rule:evenodd;clip-rule:evenodd;">
    <g transform="matrix(1,0,0,1,7.81597e-14,0.001)">
        <g transform="matrix(1,0,0,1,-677.542,-4080.38)">
            <g id="Icon_awesome-search" transform="matrix(1,0,0,1,704.91,4123.9)">
                <path d="M69.115,60.588L55.47,46.943C54.853,46.327 54.015,45.982 53.143,45.985L50.912,45.985C54.814,40.985 56.934,34.822 56.934,28.48C56.934,12.87 44.089,0.026 28.48,0.026C12.87,0.026 0.026,12.87 0.026,28.48C0.026,44.089 12.87,56.934 28.48,56.934C34.822,56.934 40.985,54.814 45.985,50.912L45.985,53.143C45.982,54.015 46.327,54.853 46.943,55.47L60.588,69.115C61.202,69.733 62.037,70.08 62.908,70.08C63.779,70.08 64.614,69.733 65.228,69.115L69.1,65.242C70.375,63.967 70.381,61.871 69.114,60.589L69.115,60.588ZM28.467,45.988C18.857,45.988 10.949,38.08 10.949,28.47C10.949,18.86 18.857,10.952 28.467,10.952C38.076,10.952 45.983,18.858 45.985,28.467L45.985,28.477C45.985,38.082 38.082,45.985 28.477,45.985L28.467,45.985L28.467,45.988Z" style="fill:white;fill-rule:nonzero;stroke:black;stroke-width:4px;"/>
            </g>
        </g>
        <g transform="matrix(1,0,0,1,-677.542,-4080.38)">
            <g id="Icon_open-plus" transform="matrix(0.825062,0,0,0.825062,759.87,4087.97)">
                <path d="M24.14,33.787L22.14,33.787L15.708,33.787L13.708,33.787L13.708,31.787L13.708,20.504L2.424,20.504L0.424,20.504L0.424,18.504L0.424,13.284L0.424,11.284L13.708,11.284L13.708,0L13.708,-2L24.14,-2L24.14,11.284L37.423,11.284L37.423,20.504L35.423,20.504L24.14,20.504L24.14,33.787Z" style="fill:rgb(253,198,79);fill-rule:nonzero;"/>
                <path d="M24.402,-6.841L24.664,-6.82L24.924,-6.784L25.182,-6.735L25.437,-6.671L25.688,-6.594L25.934,-6.504L26.175,-6.4L26.41,-6.283L26.639,-6.154L26.86,-6.013L27.074,-5.86L27.278,-5.695L27.474,-5.52L27.659,-5.334L27.835,-5.139L27.999,-4.934L28.152,-4.721L28.294,-4.499L28.423,-4.271L28.54,-4.036L28.643,-3.794L28.734,-3.548L28.811,-3.297L28.874,-3.042L28.924,-2.784L28.959,-2.524L28.981,-2.262L28.988,-2L28.988,6.436L37.423,6.436L37.686,6.443L37.947,6.464L38.208,6.499L38.465,6.549L38.72,6.612L38.971,6.689L39.218,6.78L39.459,6.884L39.694,7L39.923,7.13L40.144,7.271L40.357,7.424L40.562,7.589L40.757,7.764L40.943,7.95L41.118,8.145L41.283,8.35L41.436,8.563L41.577,8.784L41.707,9.013L41.823,9.248L41.927,9.489L42.018,9.736L42.095,9.987L42.158,10.242L42.208,10.499L42.243,10.76L42.264,11.021L42.271,11.284L42.271,20.504L42.264,20.766L42.243,21.028L42.208,21.288L42.158,21.546L42.095,21.801L42.018,22.052L41.927,22.298L41.823,22.539L41.707,22.774L41.577,23.003L41.436,23.224L41.283,23.437L41.118,23.642L40.943,23.838L40.757,24.023L40.562,24.199L40.357,24.363L40.144,24.516L39.923,24.658L39.694,24.787L39.459,24.904L39.218,25.007L38.971,25.098L38.72,25.175L38.465,25.238L38.208,25.288L37.947,25.323L37.686,25.345L37.423,25.352L28.988,25.352L28.988,33.787L28.981,34.05L28.959,34.311L28.924,34.572L28.874,34.829L28.811,35.084L28.734,35.335L28.643,35.582L28.54,35.823L28.423,36.058L28.294,36.287L28.152,36.508L27.999,36.721L27.835,36.926L27.659,37.121L27.474,37.307L27.278,37.482L27.074,37.647L26.86,37.8L26.639,37.941L26.41,38.071L26.175,38.187L25.934,38.291L25.688,38.382L25.437,38.459L25.182,38.522L24.924,38.572L24.664,38.607L24.402,38.628L24.14,38.635L13.708,38.635L13.445,38.628L13.184,38.607L12.923,38.572L12.666,38.522L12.411,38.459L12.16,38.382L11.913,38.291L11.672,38.187L11.437,38.071L11.208,37.941L10.987,37.8L10.774,37.647L10.569,37.482L10.374,37.307L10.188,37.121L10.013,36.926L9.848,36.721L9.695,36.508L9.554,36.287L9.424,36.058L9.308,35.823L9.204,35.582L9.113,35.335L9.036,35.084L8.973,34.829L8.924,34.572L8.888,34.311L8.867,34.05L8.86,33.787L8.86,25.352L0.424,25.352L0.162,25.345L-0.1,25.323L-0.36,25.288L-0.618,25.238L-0.873,25.175L-1.124,25.098L-1.37,25.007L-1.612,24.904L-1.847,24.787L-2.075,24.658L-2.297,24.516L-2.51,24.363L-2.715,24.199L-2.91,24.023L-3.096,23.838L-3.271,23.642L-3.435,23.437L-3.589,23.224L-3.73,23.003L-3.859,22.774L-3.976,22.539L-4.08,22.298L-4.17,22.052L-4.247,21.801L-4.311,21.546L-4.36,21.288L-4.396,21.028L-4.417,20.766L-4.424,20.504L-4.424,11.284L-4.417,11.021L-4.396,10.76L-4.36,10.499L-4.311,10.242L-4.247,9.987L-4.17,9.736L-4.08,9.489L-3.976,9.248L-3.859,9.013L-3.73,8.784L-3.589,8.563L-3.435,8.35L-3.271,8.145L-3.096,7.95L-2.91,7.764L-2.715,7.589L-2.51,7.424L-2.297,7.271L-2.075,7.13L-1.847,7L-1.612,6.884L-1.37,6.78L-1.124,6.689L-0.873,6.612L-0.618,6.549L-0.36,6.499L-0.1,6.464L0.162,6.443L0.424,6.436L8.86,6.436L8.86,-2L8.867,-2.262L8.888,-2.524L8.924,-2.784L8.973,-3.042L9.036,-3.297L9.113,-3.548L9.204,-3.794L9.308,-4.036L9.424,-4.271L9.554,-4.499L9.695,-4.721L9.848,-4.934L10.013,-5.139L10.188,-5.334L10.374,-5.52L10.569,-5.695L10.774,-5.86L10.987,-6.013L11.208,-6.154L11.437,-6.283L11.672,-6.4L11.913,-6.504L12.16,-6.594L12.411,-6.671L12.666,-6.735L12.923,-6.784L13.184,-6.82L13.445,-6.841L13.708,-6.848L24.14,-6.848L24.402,-6.841ZM13.708,-2L13.708,11.284L0.424,11.284L0.424,20.504L13.708,20.504L13.708,33.787L24.14,33.787L24.14,20.504L37.423,20.504L37.423,11.284L24.14,11.284L24.14,-2L13.708,-2Z"/>
            </g>
        </g>
        <g transform="matrix(1,0,0,1,-677.542,-4080.38)">
            <g id="Path_232" transform="matrix(1,0,0,1,659.084,4099.27)">
                <path d="M26.33,39.109L26.33,50.854" style="fill:none;stroke:rgb(255,88,74);stroke-width:4px;stroke-linecap:round;stroke-linejoin:round;stroke-miterlimit:1.5;"/>
            </g>
        </g>
        <g transform="matrix(1,0,0,1,-677.542,-4080.38)">
            <g id="Path_150" transform="matrix(-3.82857e-16,1,-1,-3.82857e-16,730.396,4117.92)">
                <path d="M26.33,39.109L26.33,50.854" style="fill:none;stroke:rgb(255,88,74);stroke-width:4px;stroke-linecap:round;stroke-linejoin:round;stroke-miterlimit:1.5;"/>
            </g>
        </g>
        <g transform="matrix(1,0,0,1,-677.542,-4080.38)">
            <g id="Path_233" transform="matrix(1,0,0,1,697.084,4043.27)">
                <path d="M26.33,39.109L26.33,50.854" style="fill:none;stroke:rgb(53,143,221);stroke-width:4px;stroke-linecap:round;stroke-linejoin:round;stroke-miterlimit:1.5;"/>
            </g>
        </g>
        <g transform="matrix(1,0,0,1,-677.542,-4080.38)">
            <g id="Path_150-2" transform="matrix(-3.82857e-16,1,-1,-3.82857e-16,768.396,4061.92)">
                <path d="M26.33,39.109L26.33,50.854" style="fill:none;stroke:rgb(53,143,221);stroke-width:4px;stroke-linecap:round;stroke-linejoin:round;stroke-miterlimit:1.5;"/>
            </g>
        </g>
        <g transform="matrix(1,0,0,1,-677.542,-4080.38)">
            <g id="Path_234" transform="matrix(1,0,0,1,15346,-6256)">
                <path d="M-14595.8,10432.4L-14587.8,10424.3" style="fill:none;fill-rule:nonzero;stroke:black;stroke-width:4px;"/>
            </g>
        </g>
    </g>
</svg>
