<?xml version="1.0" encoding="UTF-8" standalone="no"?>
<!DOCTYPE svg PUBLIC "-//W3C//DTD SVG 1.1//EN" "http://www.w3.org/Graphics/SVG/1.1/DTD/svg11.dtd">
<svg width="100%" height="100%" viewBox="0 0 155 148" version="1.1" xmlns="http://www.w3.org/2000/svg" xmlns:xlink="http://www.w3.org/1999/xlink" xml:space="preserve" xmlns:serif="http://www.serif.com/" style="fill-rule:evenodd;clip-rule:evenodd;stroke-linecap:round;stroke-linejoin:round;stroke-miterlimit:1.5;">
    <g id="video" transform="matrix(1,0,0,1,-18.458,-20.863)">
        <g id="Path_137" transform="matrix(1,0,0,1,0,13.916)">
            <path d="M139.336,39.284L139.336,133.242L117.916,152.875L49.733,152.875L49.733,39.284L139.336,39.284Z" style="fill:white;stroke:black;stroke-width:3.99px;"/>
        </g>
        <g id="Path_140" transform="matrix(1,0,0,1,-1,-2)">
            <path d="M95.572,73.274L96.06,73.274L96.304,73.279L96.548,73.286L96.791,73.294L97.033,73.304L97.276,73.316L97.518,73.329L97.759,73.344L98,73.36L98.241,73.377L98.481,73.396L98.721,73.417L98.96,73.439L99.199,73.462L99.438,73.487L99.676,73.514L99.913,73.542L100.151,73.571L100.387,73.602L100.624,73.635L100.86,73.668L101.33,73.74L101.564,73.778L101.798,73.818L102.032,73.859L102.265,73.901L102.497,73.945L102.729,73.99L102.96,74.037L103.191,74.085L103.422,74.135L103.652,74.186L103.881,74.238L104.11,74.291L104.338,74.346L104.566,74.403L104.793,74.461L105.02,74.52L105.246,74.58L105.472,74.642L105.697,74.705L105.921,74.77L106.145,74.836L106.368,74.903L106.591,74.972L106.813,75.042L107.035,75.113L107.256,75.185L107.476,75.259L107.696,75.334L107.915,75.411L108.134,75.489L108.352,75.568L108.569,75.648L108.786,75.73L109.002,75.813L109.217,75.897L109.432,75.983L109.646,76.069L109.86,76.158L110.072,76.247L110.285,76.337L110.496,76.429L110.707,76.522L111.127,76.722L111.335,76.822L111.544,76.922L111.958,77.122L112.164,77.222L112.369,77.322L112.569,77.422L112.969,77.634L113.169,77.742L113.369,77.851L113.569,77.961L113.769,78.072L113.969,78.184L114.369,78.412L114.569,78.528L114.769,78.645L114.969,78.764L115.164,78.883L115.358,79.003L115.552,79.125L115.936,79.371L116.127,79.496L116.507,79.75L116.695,79.878L116.883,80.007L117.07,80.138L117.442,80.402L117.626,80.536L117.81,80.671L117.993,80.807L118.175,80.944L118.356,81.082L118.536,81.221L118.716,81.361L118.894,81.502L119.072,81.645L119.249,81.788L119.425,81.932L119.6,82.078L119.774,82.224L119.947,82.371L120.12,82.52L120.291,82.669L120.462,82.82L120.631,82.971L120.8,83.124L120.968,83.277L121.135,83.432L121.301,83.587L121.466,83.744L121.63,83.901L121.793,84.059L122.117,84.379L122.277,84.54L122.436,84.702L122.595,84.866L122.752,85.03L122.908,85.195L123.064,85.361L123.218,85.528L123.372,85.696L123.524,85.864L123.676,86.034L123.976,86.376L124.124,86.548L124.418,86.896L124.563,87.071L124.708,87.247L124.851,87.424L125,87.6L125.282,87.958L125.421,88.139L125.559,88.32L125.696,88.502L125.832,88.685L125.967,88.868L126.233,89.238L126.365,89.424L126.495,89.611L126.624,89.799L126.753,89.988L126.88,90.177L127.006,90.367L127.131,90.558L127.255,90.75L127.378,90.943L127.499,91.136L127.62,91.331L127.739,91.525L127.857,91.725L127.974,91.925L128.09,92.125L128.205,92.325L128.431,92.725L128.542,92.925L128.652,93.125L128.761,93.325L128.869,93.525L128.975,93.725L129.08,93.925L129.18,94.125L129.38,94.537L129.58,94.951L129.68,95.159L129.88,95.577L129.974,95.788L130.067,95.998L130.159,96.21L130.25,96.422L130.339,96.635L130.427,96.848L130.514,97.063L130.599,97.277L130.684,97.493L130.767,97.709L130.848,97.925L130.929,98.143L131.008,98.361L131.086,98.579L131.162,98.798L131.237,99.018L131.311,99.239L131.384,99.46L131.455,99.681L131.525,99.903L131.661,100.349L131.727,100.573L131.791,100.798L131.854,101.023L131.916,101.248L131.977,101.474L132.036,101.701L132.094,101.928L132.15,102.156L132.205,102.385L132.259,102.613L132.311,102.843L132.362,103.073L132.411,103.303L132.459,103.534L132.506,103.766L132.551,103.998L132.595,104.23L132.638,104.463L132.679,104.696L132.718,104.93L132.756,105.165L132.793,105.4L132.828,105.635L132.862,105.871L132.894,106.107L132.925,106.344L132.955,106.581L132.983,106.819L133.009,107.057L133.034,107.295L133.058,107.534L133.08,107.774L133.1,108.014L133.119,108.254L133.137,108.494L133.153,108.736L133.168,108.977L133.181,109.219L133.192,109.461L133.202,109.704L133.211,109.947L133.218,110.19L133.223,110.434L133.223,111.902L133.218,112.145L133.211,112.389L133.202,112.632L133.192,112.875L133.181,113.117L133.168,113.359L133.153,113.6L133.137,113.841L133.119,114.082L133.1,114.322L133.08,114.562L133.058,114.801L133.034,115.04L133.009,115.279L132.983,115.517L132.955,115.755L132.925,115.992L132.894,116.229L132.862,116.465L132.828,116.701L132.793,116.936L132.756,117.171L132.718,117.405L132.679,117.639L132.638,117.873L132.595,118.106L132.551,118.338L132.506,118.57L132.459,118.802L132.411,119.033L132.362,119.263L132.311,119.493L132.259,119.722L132.205,119.951L132.15,120.18L132.094,120.407L132.036,120.635L131.977,120.861L131.916,121.087L131.854,121.313L131.791,121.538L131.727,121.763L131.661,121.986L131.593,122.21L131.525,122.432L131.455,122.655L131.384,122.876L131.311,123.097L131.237,123.318L131.162,123.537L131.086,123.756L131.008,123.975L130.929,124.193L130.848,124.41L130.767,124.627L130.684,124.843L130.599,125.058L130.514,125.273L130.427,125.487L130.339,125.701L130.25,125.914L130.159,126.126L130.067,126.337L129.974,126.548L129.88,126.758L129.78,126.968L129.68,127.177L129.58,127.385L129.48,127.592L129.38,127.799L129.28,128.005L129.18,128.21L129.08,128.415L128.975,128.615L128.869,128.815L128.761,129.015L128.652,129.215L128.542,129.415L128.431,129.615L128.318,129.815L128.205,130.015L128.09,130.215L127.974,130.415L127.857,130.615L127.739,130.815L127.62,131.01L127.499,131.204L127.378,131.398L127.255,131.59L127.131,131.782L127.006,131.973L126.88,132.164L126.753,132.353L126.624,132.542L126.495,132.729L126.365,132.916L126.233,133.103L126.1,133.288L125.967,133.472L125.832,133.656L125.696,133.839L125.559,134.021L125.421,134.202L125.282,134.382L125.141,134.562L125,134.74L124.858,134.918L124.715,135.095L124.57,135.271L124.425,135.446L124.278,135.62L124.131,135.793L123.983,135.966L123.833,136.137L123.683,136.308L123.531,136.478L123.379,136.646L123.225,136.814L123.071,136.981L122.915,137.147L122.759,137.312L122.602,137.476L122.443,137.639L122.284,137.802L122.124,137.963L121.962,138.123L121.8,138.282L121.637,138.441L121.473,138.598L121.308,138.755L121.142,138.91L120.975,139.065L120.807,139.218L120.638,139.37L120.469,139.522L120.298,139.672L120.127,139.822L119.954,139.97L119.781,140.118L119.607,140.264L119.432,140.41L119.256,140.554L119.079,140.697L118.901,140.839L118.723,140.981L118.543,141.121L118.363,141.26L118.182,141.398L118,141.535L117.817,141.671L117.633,141.806L117.449,141.94L117.263,142.072L117.077,142.204L116.89,142.334L116.702,142.464L116.514,142.592L116.324,142.719L116.134,142.845L115.943,142.97L115.751,143.094L115.559,143.217L115.365,143.338L115.171,143.459L114.976,143.578L114.776,143.696L114.576,143.813L114.376,143.929L114.176,144.044L113.976,144.158L113.776,144.27L113.576,144.381L113.376,144.491L113.176,144.6L112.976,144.708L112.776,144.814L112.576,144.92L112.376,145.02L112.171,145.12L111.965,145.22L111.758,145.32L111.551,145.42L111.342,145.52L111.134,145.62L110.924,145.72L110.714,145.814L110.503,145.908L110.292,145.999L110.079,146.09L109.867,146.179L109.653,146.267L109.439,146.354L109.224,146.44L109.009,146.524L108.793,146.607L108.576,146.689L108.359,146.769L108.141,146.848L107.922,146.926L107.7,147L107.48,147.076L107.26,147.149L107.039,147.222L106.817,147.293L106.595,147.363L106.372,147.432L106.149,147.499L105.925,147.565L105.701,147.629L105.476,147.693L105.25,147.755L105.024,147.815L104.797,147.874L104.57,147.932L104.342,147.988L104.114,148.043L103.885,148.097L103.656,148.149L103.426,148.2L103.195,148.25L102.964,148.298L102.733,148.344L102.501,148.39L102.269,148.433L102.036,148.476L101.802,148.517L101.568,148.556L101.334,148.594L101.099,148.631L100.864,148.666L100.628,148.7L100.391,148.733L100.155,148.763L99.917,148.793L99.68,148.821L99.442,148.847L99.203,148.872L98.964,148.896L98.725,148.918L98.485,148.939L98.245,148.958L98.004,148.975L97.763,148.991L97.522,149.006L97.28,149.019L97.037,149.03L96.795,149.04L96.552,149.049L96.308,149.056L96.064,149.061L95.82,149.061L95.576,149.061L95.086,149.061L94.841,149.061L94.597,149.061L94.353,149.056L94.11,149.049L93.867,149.04L93.624,149.03L93.382,149.019L93.14,149.006L92.898,148.991L92.657,148.975L92.417,148.958L92.176,148.939L91.936,148.918L91.697,148.896L91.458,148.872L91.22,148.847L90.981,148.821L90.744,148.793L90.507,148.763L90.27,148.733L90.034,148.7L89.798,148.666L89.562,148.631L89.327,148.594L89.093,148.556L88.859,148.517L88.626,148.476L88.393,148.433L88.16,148.39L87.928,148.344L87.697,148.298L87.466,148.25L87.235,148.2L87,148.151L86.77,148.099L86.541,148.045L86.313,147.99L86.085,147.934L85.858,147.876L85.631,147.817L85.405,147.757L85.18,147.695L84.954,147.631L84.73,147.567L84.506,147.501L84.283,147.434L84.06,147.365L83.838,147.295L83.616,147.224L83.395,147.151L83.175,147.078L82.955,147.002L82.736,146.926L82.517,146.848L82.3,146.769L82.082,146.689L81.866,146.607L81.649,146.524L81.434,146.44L81.219,146.354L81.005,146.267L80.792,146.179L80.579,146.09L80.369,146L80.157,145.909L79.946,145.815L79.736,145.721L79.527,145.621L79.318,145.521L79.11,145.421L78.902,145.321L78.696,145.221L78.49,145.121L78.284,145.021L78.084,144.921L77.884,144.815L77.684,144.709L77.484,144.601L77.284,144.492L77.084,144.382L76.884,144.271L76.684,144.159L76.484,144.045L76.284,143.93L76.084,143.814L75.884,143.697L75.684,143.579L75.489,143.46L75.295,143.339L75.102,143.218L74.909,143.095L74.717,142.971L74.526,142.846L74.336,142.72L74.147,142.593L73.958,142.465L73.77,142.335L73.583,142.205L73.397,142.073L73.212,141.941L73.027,141.807L72.843,141.672L72.661,141.536L72.479,141.399L72.297,141.261L72.117,141.122L71.938,140.982L71.759,140.84L71.581,140.698L71.405,140.555L71.229,140.411L71.054,140.265L70.879,140.119L70.706,139.971L70.534,139.823L70.362,139.673L70.192,139.523L70.022,139.371L69.853,139.219L69.685,139.066L69.519,138.911L69.353,138.756L69.187,138.599L69.023,138.442L68.86,138.283L68.698,138.124L68.537,137.964L68.376,137.803L68.217,137.64L68.059,137.477L67.901,137.313L67.745,137.148L67.589,136.982L67.435,136.815L67.282,136.647L67.129,136.479L66.978,136.309L66.827,136.138L66.678,135.967L66.529,135.794L66.382,135.621L66.235,135.447L66.09,135.272L65.946,135.096L65.802,134.919L65.66,134.741L65.519,134.563L65.379,134.383L65.24,134.203L65.102,134.022L64.965,133.84L64.829,133.657L64.694,133.473L64.56,133.289L64.427,133.104L64.296,132.917L64.165,132.73L64.036,132.543L63.907,132.354L63.78,132.165L63.654,131.974L63.529,131.783L63.405,131.591L63.283,131.399L63.161,131.205L63.041,131.011L62.921,130.816L62.803,130.616L62.686,130.416L62.57,130.216L62.455,130.016L62.342,129.816L62.23,129.616L62.118,129.416L62.008,129.216L61.899,129.016L61.792,128.816L61.685,128.616L61.585,128.416L61.485,128.211L61.385,128.006L61.285,127.8L61.185,127.593L61.085,127.386L60.985,127.178L60.885,126.969L60.785,126.759L60.691,126.549L60.598,126.338L60.506,126.127L60.416,125.915L60.326,125.702L60.238,125.488L60.151,125.274L60.066,125.059L59.982,124.844L59.899,124.628L59.817,124.411L59.737,124.194L59.657,123.976L59.58,123.757L59.503,123.538L59.428,123.319L59.354,123.098L59.282,122.877L59.21,122.656L59.14,122.433L59.072,122.211L59,121.99L58.934,121.767L58.869,121.542L58.806,121.317L58.744,121.091L58.684,120.865L58.624,120.639L58.567,120.411L58.51,120.184L58.455,119.955L58.402,119.726L58.349,119.497L58.298,119.267L58.249,119.037L58.201,118.806L58.154,118.574L58.109,118.342L58.065,118.11L58.023,117.877L57.982,117.643L57.942,117.409L57.904,117.175L57.867,116.94L57.832,116.705L57.798,116.469L57.766,116.233L57.733,116L57.704,115.763L57.676,115.525L57.649,115.287L57.624,115.048L57.601,114.809L57.579,114.57L57.558,114.33L57.539,114.09L57.521,113.849L57.505,113.608L57.491,113.367L57.478,113.125L57.466,112.883L57.456,112.64L57.448,112.397L57.441,112.153L57.435,111.91L57.435,111.665L57.435,111.421L57.435,110.931L57.435,110.686L57.435,110.442L57.441,110.198L57.448,109.955L57.456,109.712L57.466,109.469L57.478,109.227L57.491,108.985L57.505,108.744L57.521,108.502L57.539,108.262L57.558,108.022L57.579,107.782L57.601,107.542L57.624,107.303L57.649,107.065L57.676,106.827L57.704,106.589L57.733,106.352L57.764,106.115L57.796,105.879L57.83,105.643L57.865,105.408L57.902,105.173L57.94,104.938L57.98,104.704L58.021,104.471L58.063,104.238L58.107,104.006L58.152,103.774L58.199,103.542L58.247,103.311L58.296,103.081L58.347,102.851L58.4,102.621L58.453,102.393L58.508,102.164L58.565,101.936L58.622,101.709L58.682,101.482L58.742,101.256L58.804,101.031L58.867,100.806L58.932,100.581L58.998,100.357L59.065,100.134L59.133,99.911L59.203,99.689L59.275,99.468L59.347,99.247L59.421,99.026L59.496,98.806L59.573,98.587L59.65,98.369L59.73,98.151L59.81,97.933L59.892,97.717L59.975,97.501L60.059,97.285L60.144,97.071L60.231,96.856L60.319,96.643L60.409,96.43L60.499,96.218L60.591,96L60.684,95.79L60.778,95.579L60.878,95.37L60.978,95.161L61.078,94.953L61.178,94.746L61.278,94.539L61.378,94.333L61.478,94.127L61.578,93.927L61.678,93.727L61.785,93.527L61.892,93.327L62.001,93.127L62.111,92.927L62.223,92.727L62.335,92.527L62.448,92.327L62.563,92.127L62.679,91.927L62.796,91.727L62.914,91.527L63.034,91.333L63.154,91.138L63.276,90.945L63.398,90.752L63.522,90.56L63.647,90.369L63.773,90.179L63.9,89.99L64.029,89.801L64.158,89.613L64.289,89.426L64.42,89.24L64.553,89.055L64.687,88.87L64.822,88.687L64.958,88.504L65.095,88.322L65.233,88.141L65.372,87.96L65.512,87.781L65.653,87.602L65.795,87.425L65.939,87.248L66.083,87.072L66.228,86.897L66.375,86.723L66.522,86.549L66.671,86.377L66.82,86.206L66.971,86.035L67.122,85.865L67.275,85.697L67.428,85.529L67.582,85.362L67.738,85.196L67.894,85.031L68.052,84.867L68.21,84.703L68.369,84.541L68.53,84.38L68.691,84.22L68.853,84.06L69.016,83.902L69.18,83.745L69.346,83.588L69.512,83.433L69.678,83.278L69.846,83.125L70.015,82.972L70.185,82.821L70.355,82.67L70.527,82.521L70.699,82.372L70.872,82.225L71.047,82.079L71.222,81.933L71.398,81.789L71.574,81.646L71.752,81.503L71.931,81.362L72.11,81.222L72.29,81.083L72.472,80.945L72.654,80.808L72.836,80.672L73.02,80.537L73.205,80.403L73.39,80.271L73.576,80.139L73.763,80.008L73.951,79.879L74.14,79.751L74.329,79.624L74.519,79.497L74.71,79.372L74.902,79.249L75.095,79.126L75.292,79L75.486,78.88L75.681,78.761L75.881,78.642L76.081,78.525L76.281,78.409L76.481,78.295L76.681,78.181L76.881,78.069L77.081,77.958L77.281,77.848L77.481,77.739L77.681,77.631L77.881,77.525L78.081,77.419L78.281,77.319L78.487,77.219L78.693,77.119L78.899,77.019L79.107,76.919L79.315,76.819L79.524,76.719L79.733,76.619L79.943,76.519L80.154,76.426L80.366,76.334L80.578,76.244L80.791,76.155L81.004,76.066L81.218,75.98L81.433,75.894L81.648,75.81L81.865,75.727L82.081,75.645L82.299,75.565L82.516,75.486L82.735,75.408L82.954,75.331L83.174,75.256L83.394,75.182L83.615,75.11L83.837,75.039L84.059,74.969L84.282,74.9L84.505,74.833L84.729,74.767L84.953,74.702L85.179,74.639L85.404,74.577L85.63,74.517L85.857,74.458L86.084,74.4L86.312,74.343L86.54,74.288L86.769,74.235L86.999,74.183L87.228,74.132L87.459,74.082L87.69,74.034L87.924,74L88.156,73.955L88.389,73.911L88.622,73.869L88.855,73.828L89.089,73.788L89.323,73.75L89.558,73.714L89.794,73.678L90.03,73.645L90.266,73.612L90.503,73.581L90.74,73.552L90.977,73.524L91.216,73.497L91.454,73.472L91.693,73.449L91.932,73.427L92.172,73.406L92.413,73.387L92.653,73.37L92.894,73.354L93.136,73.339L93.378,73.326L93.62,73.314L93.863,73.304L94.106,73.296L94.349,73.289L94.593,73.284L95.572,73.284L95.572,73.274ZM95.107,77.274L94.888,77.274L94.669,77.274L94.451,77.279L94.232,77.285L94.015,77.293L93.797,77.302L93.58,77.312L93.364,77.324L93.148,77.337L92.932,77.351L92.716,77.367L92.501,77.384L92.287,77.402L92.073,77.422L91.859,77.443L91.645,77.465L91.432,77.489L91.22,77.514L91.008,77.54L90.796,77.568L90.585,77.597L90.374,77.627L90.163,77.659L89.953,77.691L89.744,77.726L89.535,77.761L89.326,77.798L89.118,77.835L88.91,77.875L88.702,77.915L88.496,77.957L88.289,78L88.083,78.044L87.878,78.089L87.673,78.136L87.473,78.184L87.273,78.233L87.073,78.284L86.873,78.335L86.673,78.388L86.473,78.442L86.273,78.497L86.073,78.554L85.873,78.612L85.673,78.67L85.473,78.731L85.273,78.792L85.073,78.854L84.873,78.918L84.673,78.983L84.473,79.049L84.273,79.116L84.073,79.184L83.878,79.254L83.683,79.325L83.489,79.396L83.295,79.469L83.102,79.544L82.909,79.619L82.717,79.695L82.526,79.773L82.335,79.852L82.145,79.931L81.955,80.012L81.766,80.094L81.578,80.178L81.39,80.262L81.203,80.347L81.016,80.434L80.83,80.522L80.645,80.61L80.46,80.7L80.275,80.791L80.092,80.883L79.909,80.976L79.727,81.07L79.545,81.17L79.364,81.27L79.183,81.37L79.004,81.47L78.825,81.57L78.646,81.67L78.468,81.77L78.291,81.87L78.115,81.97L77.939,82.07L77.764,82.176L77.59,82.282L77.416,82.39L77.243,82.499L77.071,82.609L76.899,82.719L76.728,82.831L76.558,82.944L76.388,83.058L76.22,83.173L76.051,83.288L75.884,83.405L75.718,83.523L75.552,83.642L75.387,83.761L75.222,83.882L75.059,84.004L74.896,84.126L74.733,84.25L74.572,84.374L74.412,84.5L74.252,84.626L74.093,84.754L73.934,84.882L73.777,85.011L73.62,85.141L73.464,85.272L73.309,85.404L73.155,85.537L73,85.677L72.848,85.812L72.696,85.947L72.545,86.084L72.395,86.221L72.245,86.359L72.097,86.499L71.949,86.639L71.802,86.78L71.656,86.921L71.511,87.064L71.366,87.207L71.223,87.352L71.08,87.497L70.938,87.643L70.797,87.79L70.657,87.938L70.518,88.086L70.38,88.236L70.243,88.386L70.106,88.537L69.97,88.689L69.836,88.842L69.7,89L69.567,89.154L69.435,89.31L69.304,89.466L69.174,89.622L69.045,89.78L68.916,89.938L68.789,90.097L68.663,90.257L68.537,90.417L68.413,90.579L68.289,90.741L68.167,90.904L68.045,91.067L67.924,91.232L67.805,91.397L67.686,91.563L67.568,91.729L67.451,91.897L67.335,92.065L67.221,92.234L67.107,92.403L66.994,92.573L66.882,92.744L66.771,92.916L66.662,93.088L66.553,93.261L66.445,93.435L66.338,93.609L66.238,93.784L66.133,93.96L66.033,94.137L65.933,94.314L65.833,94.491L65.733,94.67L65.633,94.849L65.533,95.029L65.433,95.209L65.333,95.39L65.238,95.572L65.144,95.754L65.051,95.937L64.959,96.121L64.868,96.305L64.778,96.49L64.689,96.675L64.602,96.861L64.515,97.048L64.43,97.235L64.345,97.423L64.262,97.612L64.18,97.801L64.099,97.99L64.019,98.18L63.941,98.371L63.863,98.563L63.787,98.755L63.711,98.947L63.637,99.14L63.564,99.334L63.492,99.528L63.422,99.723L63.352,99.918L63.284,100.118L63.217,100.318L63.151,100.518L63.086,100.718L63.022,100.918L62.96,101.118L62.898,101.318L62.838,101.518L62.779,101.718L62.722,101.918L62.665,102.118L62.61,102.318L62.556,102.518L62.503,102.718L62.451,102.918L62.401,103.118L62.352,103.323L62.304,103.523L62.257,103.728L62.212,103.933L62.167,104.139L62.125,104.346L62.083,104.553L62.042,104.76L62.003,104.968L61.965,105.176L61.929,105.385L61.893,105.594L61.859,105.803L61.826,106.013L61.795,106.224L61.765,106.435L61.736,106.646L61.708,106.858L61.682,107.07L61.657,107.283L61.633,107.496L61.611,107.709L61.59,107.923L61.57,108.137L61.551,108.352L61.534,108.567L61.519,108.782L61.504,108.998L61.491,109.214L61.48,109.431L61.469,109.648L61.46,109.865L61.453,110.083L61.446,110.301L61.446,112.053L61.46,112.489L61.469,112.706L61.491,113.14L61.504,113.356L61.519,113.572L61.534,113.787L61.551,114.002L61.57,114.217L61.59,114.431L61.611,114.645L61.633,114.858L61.657,115.071L61.682,115.284L61.708,115.496L61.736,115.708L61.765,115.919L61.795,116.13L61.826,116.34L61.859,116.55L61.893,116.76L61.965,117.178L62.003,117.386L62.042,117.594L62.083,117.801L62.125,118.008L62.167,118.214L62.257,118.626L62.304,118.826L62.352,119.026L62.401,119.226L62.451,119.426L62.503,119.626L62.556,119.826L62.61,120.026L62.665,120.226L62.779,120.626L62.838,120.826L62.898,121.026L63.022,121.426L63.086,121.626L63.151,121.826L63.217,122.026L63.284,122.226L63.352,122.426L63.492,122.816L63.564,123.01L63.637,123.204L63.711,123.397L63.863,123.781L63.941,123.973L64.019,124.163L64.099,124.354L64.18,124.543L64.262,124.732L64.345,124.921L64.43,125.109L64.515,125.296L64.602,125.482L64.689,125.669L64.778,125.854L64.868,126.039L64.959,126.223L65.051,126.407L65.144,126.59L65.238,126.772L65.333,126.954L65.433,127.135L65.633,127.495L65.733,127.674L65.933,128.03L66.133,128.384L66.238,128.559L66.338,128.735L66.445,128.909L66.553,129.083L66.662,129.256L66.771,129.428L66.882,129.6L66.994,129.771L67.107,129.941L67.335,130.279L67.451,130.447L67.568,130.614L67.686,130.781L67.805,130.947L67.924,131.112L68.045,131.276L68.167,131.44L68.289,131.603L68.413,131.765L68.537,131.926L68.663,132.087L68.789,132.247L68.916,132.406L69.174,132.722L69.304,132.878L69.435,133.034L69.567,133.189L69.7,133.344L69.968,133.65L70.104,133.802L70.241,133.953L70.378,134.103L70.516,134.252L70.655,134.401L70.795,134.549L70.936,134.696L71.078,134.842L71.221,134.987L71.364,135.131L71.509,135.275L71.654,135.417L71.8,135.559L71.947,135.7L72.094,135.84L72.243,135.979L72.393,136.118L72.543,136.255L72.694,136.391L72.846,136.527L72.998,136.662L73.152,136.796L73.306,136.928L73.461,137.06L73.617,137.191L73.774,137.322L73.931,137.451L74.249,137.707L74.409,137.833L74.569,137.958L74.73,138.083L75.056,138.329L75.219,138.451L75.549,138.691L75.715,138.81L75.881,138.928L76.048,139.044L76.217,139.16L76.385,139.275L76.555,139.389L76.725,139.502L76.896,139.613L77.068,139.724L77.24,139.834L77.413,139.943L77.761,140.157L77.936,140.263L78.288,140.463L78.465,140.563L78.643,140.663L79.18,140.963L79.542,141.163L79.724,141.263L79.906,141.357L80.089,141.45L80.272,141.542L80.457,141.633L80.642,141.723L80.827,141.811L81.013,141.899L81.387,142.071L81.575,142.155L81.763,142.238L81.952,142.32L82.142,142.401L82.332,142.481L82.523,142.56L82.714,142.637L82.906,142.714L83.099,142.789L83.292,142.863L83.486,142.936L83.68,143.008L83.875,143.079L84.07,143.148L84.27,143.217L84.47,143.284L84.67,143.35L84.87,143.415L85.27,143.541L85.47,143.602L85.67,143.662L85.87,143.721L86.07,143.779L86.47,143.891L86.67,143.945L86.87,143.998L87.27,144.1L87.47,144.149L87.67,144.197L88.08,144.289L88.286,144.333L88.493,144.376L88.699,144.418L88.907,144.458L89.115,144.497L89.323,144.535L89.531,144.572L89.741,144.607L89.95,144.641L90.16,144.674L90.371,144.706L90.582,144.736L90.793,144.765L91.217,144.819L91.429,144.844L91.642,144.867L91.856,144.89L92.07,144.911L92.284,144.931L92.498,144.949L92.713,144.966L92.929,144.982L93.145,144.996L93.361,145.009L93.577,145.021L93.794,145.031L94.012,145.04L94.229,145.048L94.448,145.054L96.2,145.054L96.418,145.048L96.636,145.04L96.853,145.031L97.07,145.021L97.286,145.009L97.503,144.996L97.718,144.982L97.934,144.966L98.149,144.949L98.363,144.931L98.578,144.911L98.792,144.89L99.005,144.867L99.218,144.844L99.431,144.819L99.643,144.792L99.854,144.765L100.066,144.736L100.277,144.706L100.487,144.674L100.697,144.641L100.907,144.607L101.116,144.572L101.324,144.535L101.533,144.497L101.74,144.458L101.948,144.418L102.155,144.376L102.361,144.333L102.567,144.289L102.772,144.243L102.977,144.197L103.177,144.149L103.377,144.1L103.577,144.049L103.777,143.998L103.977,143.945L104.177,143.891L104.377,143.835L104.577,143.779L104.777,143.721L104.977,143.662L105.177,143.602L105.377,143.541L105.577,143.478L105.777,143.415L105.977,143.35L106.177,143.284L106.377,143.217L106.577,143.148L106.777,143.079L106.972,143.008L107.166,142.936L107.359,142.863L107.552,142.789L107.745,142.714L107.937,142.637L108.128,142.56L108.319,142.481L108.509,142.401L108.699,142.32L108.888,142.238L109.076,142.155L109.264,142.071L109.452,141.985L109.638,141.899L109.824,141.811L110.01,141.723L110.195,141.633L110.379,141.542L110.562,141.45L110.745,141.357L110.928,141.263L111.109,141.163L111.29,141.063L111.471,140.963L111.651,140.863L111.83,140.763L112.008,140.663L112.186,140.563L112.363,140.463L112.539,140.363L112.715,140.263L112.89,140.157L113.065,140.05L113.238,139.943L113.411,139.834L113.584,139.724L113.755,139.613L113.926,139.502L114.097,139.389L114.266,139.275L114.435,139.16L114.603,139.044L114.77,138.928L114.937,138.81L115.103,138.691L115.268,138.571L115.432,138.451L115.596,138.329L115.759,138.206L115.921,138.083L116.082,137.958L116.243,137.833L116.402,137.707L116.562,137.579L116.72,137.451L116.877,137.322L117.034,137.192L117.19,137.06L117.345,136.928L117.499,136.796L117.653,136.662L117.806,136.527L117.957,136.391L118.109,136.255L118.259,136.118L118.408,135.979L118.557,135.84L118.704,135.7L118.851,135.559L118.997,135.417L119.143,135.275L119.287,135.131L119.431,134.987L119.573,134.842L119.715,134.696L119.856,134.549L119.996,134.401L120.135,134.252L120.273,134.103L120.411,133.953L120.547,133.802L120.683,133.65L120.818,133.497L120.951,133.344L121.084,133.189L121.216,133.034L121.347,132.878L121.477,132.722L121.607,132.564L121.735,132.406L121.862,132.247L121.989,132.087L122.114,131.926L122.239,131.765L122.362,131.603L122.485,131.44L122.606,131.276L122.727,131.112L122.847,130.947L122.966,130.781L123.083,130.615L123.2,130.447L123.316,130.279L123.431,130.11L123.544,129.941L123.657,129.771L123.769,129.6L123.88,129.428L123.99,129.256L124.099,129.083L124.206,128.909L124.313,128.734L124.419,128.559L124.519,128.384L124.619,128.207L124.719,128.03L124.819,127.852L124.919,127.674L125.019,127.495L125.119,127.315L125.219,127.135L125.319,126.954L125.414,126.772L125.508,126.59L125.602,126.407L125.694,126.223L125.784,126.039L125.874,125.854L125.963,125.669L126.051,125.483L126.137,125.296L126.223,125.109L126.307,124.921L126.39,124.732L126.472,124.543L126.553,124.353L126.633,124.163L126.712,123.972L126.789,123.781L126.866,123.589L126.941,123.397L127.015,123.204L127.088,123.01L127.16,122.816L127.231,122.621L127.3,122.426L127.368,122.226L127.436,122.026L127.502,121.826L127.567,121.626L127.63,121.426L127.693,121.226L127.754,121.026L127.814,120.826L127.873,120.626L127.931,120.426L127.987,120.226L128.042,120.026L128.096,119.826L128.149,119.626L128.201,119.426L128.251,119.226L128.3,119.026L128.348,118.826L128.395,118.626L128.441,118.42L128.485,118.214L128.528,118.008L128.569,117.801L128.61,117.594L128.649,117.386L128.687,117.178L128.724,116.969L128.759,116.76L128.793,116.55L128.826,116.34L128.857,116.13L128.888,115.919L128.917,115.708L128.944,115.496L128.971,115.284L128.996,115.071L129.019,114.858L129.042,114.645L129.063,114.431L129.082,114.217L129.101,114.002L129.118,113.787L129.134,113.572L129.148,113.356L129.161,113.14L129.173,112.923L129.183,112.706L129.192,112.489L129.2,112.271L129.206,112.053L129.206,111.835L129.206,111.616L129.206,111.396L129.206,110.957L129.206,110.738L129.206,110.519L129.206,110.301L129.2,110.083L129.192,109.865L129.183,109.648L129.173,109.431L129.161,109.214L129.148,108.998L129.134,108.782L129.118,108.567L129.101,108.352L129.082,108.137L129.063,107.923L129.042,107.709L129.019,107.496L128.996,107.283L128.971,107.07L128.944,106.858L128.917,106.646L128.888,106.435L128.857,106.224L128.826,106.013L128.793,105.803L128.759,105.594L128.724,105.385L128.687,105.176L128.649,104.968L128.61,104.76L128.569,104.553L128.528,104.346L128.485,104.139L128.441,103.933L128.395,103.728L128.348,103.523L128.3,103.323L128.251,103.123L128.201,102.923L128.149,102.723L128.096,102.523L128.042,102.323L127.987,102.123L127.931,101.923L127.873,101.723L127.814,101.523L127.754,101.323L127.693,101.123L127.63,100.923L127.567,100.723L127.502,100.523L127.436,100.323L127.368,100.123L127.3,99.923L127.231,99.728L127.16,99.533L127.088,99.339L127.015,99.145L126.941,98.952L126.866,98.76L126.789,98.568L126.712,98.376L126.633,98.186L126.553,97.995L126.472,97.806L126.39,97.616L126.307,97.428L126.223,97.24L126.137,97.053L126.051,96.866L125.963,96.68L125.874,96.495L125.784,96.31L125.694,96.126L125.602,95.942L125.508,95.759L125.414,95.577L125.319,95.395L125.219,95.214L125.119,95.034L125.019,94.854L124.919,94.675L124.819,94.496L124.719,94.319L124.619,94.142L124.519,93.965L124.419,93.789L124.313,93.614L124.206,93.44L124.098,93.266L123.99,93.093L123.88,92.921L123.769,92.749L123.657,92.578L123.544,92.408L123.431,92.239L123.316,92.07L123.2,91.902L123.083,91.734L122.966,91.568L122.847,91.402L122.727,91.237L122.606,91.072L122.485,90.909L122.362,90.746L122.239,90.584L122.114,90.422L121.989,90.262L121.862,90.102L121.735,89.943L121.607,89.785L121.477,89.627L121.347,89.47L121.216,89.315L121.084,89.159L120.955,89L120.822,88.847L120.687,88.694L120.551,88.542L120.415,88.391L120.277,88.241L120.139,88.091L120,87.938L119.86,87.79L119.719,87.643L119.577,87.497L119.435,87.352L119.291,87.207L119.147,87.064L119,86.921L118.854,86.78L118.708,86.639L118.56,86.499L118.411,86.359L118.262,86.221L118.112,86.084L117.96,85.947L117.809,85.812L117.656,85.677L117.502,85.543L117.348,85.41L117.193,85.278L117.037,85.147L116.88,85.017L116.723,84.888L116.565,84.76L116.405,84.632L116.246,84.506L116.085,84.38L115.924,84.256L115.762,84.132L115.599,84.01L115.435,83.888L115.271,83.767L115.106,83.648L114.94,83.529L114.773,83.411L114.606,83.294L114.438,83.179L114.269,83.064L114.099,82.95L113.929,82.837L113.758,82.725L113.587,82.615L113.414,82.505L113.241,82.396L113.068,82.288L112.893,82.182L112.718,82.076L112.542,81.976L112.366,81.876L112.189,81.776L112.011,81.676L111.833,81.576L111.654,81.476L111.474,81.376L111.293,81.276L111.112,81.176L110.931,81.076L110.748,80.982L110.565,80.889L110.382,80.797L110.198,80.706L110.013,80.616L109.827,80.528L109.641,80.44L109.455,80.353L109.267,80.268L109.079,80.184L108.891,80.1L108.702,80.018L108.512,79.937L108.322,79.858L108.131,79.779L107.94,79.701L107.748,79.625L107.555,79.55L107.362,79.475L107.169,79.402L106.974,79.331L106.78,79.26L106.58,79.19L106.385,79.122L106.185,79.055L105.985,78.989L105.785,78.924L105.585,78.86L105.385,78.798L105.185,78.737L104.985,78.676L104.785,78.618L104.585,78.56L104.385,78.503L104.185,78.448L103.985,78.394L103.785,78.341L103.585,78.29L103.385,78.239L103.185,78.19L102.985,78.142L102.785,78.095L102.579,78.05L102.373,78.006L102.167,77.963L101.96,77.921L101.752,77.881L101.545,77.841L101.336,77.804L101.128,77.767L100.919,77.732L100.709,77.697L100.499,77.665L100.289,77.633L100.078,77.603L99.866,77.574L99.655,77.546L99.443,77.52L99.23,77.495L99.017,77.471L98.804,77.449L98.59,77.428L98.376,77.408L98.161,77.39L97.946,77.373L97.73,77.357L97.515,77.343L97.298,77.33L97.082,77.318L96.865,77.308L96.648,77.299L96.43,77.291L96.212,77.285L95.993,77.28L95.774,77.28L95.555,77.28L95.116,77.28L95.107,77.274Z"/>
        </g>
        <g id="Path_141" transform="matrix(1,0,0,1,26.206,29.735)">
            <path d="M68.257,52.332L68.953,52.332L69.127,52.338L69.3,52.345L69.474,52.354L69.647,52.363L69.991,52.385L70.163,52.397L70.334,52.411L70.505,52.426L70.847,52.458L71.018,52.476L71.188,52.495L71.357,52.515L71.527,52.536L71.696,52.558L72.034,52.606L72.37,52.658L72.537,52.685L72.871,52.743L73.037,52.773L73.203,52.804L73.369,52.836L73.699,52.904L73.864,52.94L74.028,52.976L74.192,53.013L74.356,53.051L74.519,53.09L74.682,53.131L74.844,53.172L75.006,53.214L75.167,53.257L75.328,53.301L75.489,53.346L75.649,53.392L75.809,53.439L75.968,53.487L76.127,53.536L76.286,53.586L76.445,53.637L76.603,53.688L76.76,53.741L76.917,53.795L77.073,53.85L77.385,53.962L77.54,54.019L77.695,54.078L77.849,54.137L78.003,54.197L78.157,54.258L78.31,54.319L78.463,54.383L78.614,54.447L78.766,54.511L79.068,54.643L79.368,54.779L79.517,54.848L79.666,54.918L79.814,54.989L79.962,55.061L80.109,55.133L80.401,55.281L80.547,55.357L80.692,55.433L80.836,55.51L80.98,55.588L81.124,55.667L81.267,55.746L81.41,55.826L81.552,55.907L81.693,55.988L81.834,56.071L81.974,56.155L82.114,56.24L82.253,56.325L82.392,56.411L82.531,56.498L82.805,56.674L82.941,56.763L83.213,56.945L83.347,57.036L83.481,57.128L83.615,57.222L83.881,57.41L84.274,57.71L84.404,57.81L84.791,58.11L85.045,58.31L85.297,58.51L85.422,58.61L85.67,58.81L85.794,58.916L85.916,59.022L86.038,59.13L86.159,59.238L86.28,59.347L86.4,59.456L86.638,59.678L86.756,59.79L86.873,59.902L86.989,60.015L87.221,60.243L87.335,60.358L87.449,60.474L87.563,60.591L87.675,60.708L87.786,60.826L87.897,60.945L88.007,61.064L88.117,61.184L88.226,61.304L88.335,61.425L88.549,61.669L88.655,61.792L88.855,62.04L88.955,62.165L89.255,62.543L89.455,62.799L89.655,63.057L89.755,63.187L89.955,63.449L90.145,63.713L90.239,63.846L90.332,63.98L90.424,64.114L90.516,64.249L90.607,64.384L90.697,64.52L90.786,64.656L90.875,64.793L90.963,64.931L91.049,65.069L91.135,65.208L91.22,65.347L91.304,65.487L91.388,65.628L91.471,65.769L91.553,65.91L91.715,66.194L91.873,66.482L91.951,66.626L92.028,66.771L92.104,66.916L92.179,67.062L92.253,67.208L92.327,67.355L92.4,67.502L92.542,67.798L92.612,67.947L92.75,68.245L92.817,68.396L92.883,68.546L92.949,68.697L93.014,68.848L93.078,69L93.141,69.152L93.203,69.306L93.264,69.459L93.325,69.613L93.384,69.767L93.442,69.921L93.5,70.077L93.612,70.389L93.666,70.545L93.72,70.702L93.773,70.86L93.825,71.018L93.876,71.176L93.926,71.335L94.024,71.653L94.071,71.813L94.117,71.974L94.162,72.135L94.25,72.457L94.292,72.619L94.333,72.781L94.373,72.944L94.412,73.108L94.451,73.271L94.488,73.435L94.524,73.599L94.559,73.763L94.593,73.928L94.627,74.094L94.659,74.26L94.721,74.592L94.75,74.758L94.778,74.925L94.805,75.093L94.831,75.261L94.856,75.429L94.88,75.598L94.903,75.767L94.925,75.936L94.946,76.105L94.966,76.275L94.985,76.445L95.003,76.615L95.02,76.786L95.036,76.957L95.064,77.299L95.077,77.47L95.088,77.643L95.099,77.815L95.108,77.988L95.116,78.161L95.123,78.335L95.129,78.509L95.129,80.254L95.123,80.428L95.116,80.602L95.108,80.775L95.099,80.948L95.088,81.12L95.077,81.292L95.064,81.464L95.05,81.635L95.036,81.806L95.02,81.977L95.003,82.148L94.985,82.319L94.966,82.489L94.946,82.659L94.925,82.828L94.903,82.997L94.88,83.166L94.856,83.335L94.831,83.503L94.805,83.671L94.778,83.838L94.75,84.005L94.721,84.172L94.69,84.338L94.659,84.504L94.627,84.67L94.593,84.836L94.559,85.001L94.524,85.165L94.488,85.329L94.451,85.493L94.412,85.657L94.373,85.821L94.333,85.983L94.292,86.146L94.25,86.307L94.206,86.468L94.162,86.629L94.117,86.79L94.071,86.951L94.024,87.11L93.975,87.27L93.926,87.429L93.876,87.588L93.825,87.746L93.773,87.904L93.72,88.062L93.666,88.218L93.612,88.374L93.556,88.53L93.5,88.7L93.442,88.855L93.384,89.01L93.325,89.164L93.264,89.318L93.203,89.472L93.141,89.625L93.078,89.778L93.014,89.93L92.949,90.081L92.883,90.232L92.817,90.383L92.75,90.533L92.681,90.683L92.612,90.832L92.542,90.981L92.471,91.129L92.4,91.277L92.327,91.424L92.253,91.57L92.179,91.716L92.104,91.862L92.028,92.007L91.951,92.152L91.873,92.296L91.794,92.44L91.715,92.584L91.634,92.726L91.553,92.868L91.471,93.009L91.388,93.15L91.304,93.291L91.22,93.43L91.135,93.569L91.049,93.708L90.963,93.847L90.875,93.984L90.786,94.121L90.697,94.257L90.607,94.393L90.516,94.528L90.424,94.663L90.332,94.797L90.239,94.931L90.145,95.065L90.05,95.197L89.955,95.328L89.855,95.459L89.755,95.59L89.655,95.72L89.555,95.849L89.455,95.978L89.355,96.107L89.255,96.234L89.155,96.361L89.055,96.487L88.955,96.613L88.855,96.738L88.755,96.862L88.655,96.986L88.549,97.11L88.442,97.232L88.335,97.354L88.226,97.475L88.117,97.595L88.007,97.715L87.897,97.834L87.786,97.953L87.675,98.071L87.563,98.188L87.449,98.304L87.335,98.42L87.221,98.535L87.105,98.649L86.989,98.763L86.873,98.877L86.756,98.989L86.638,99.101L86.519,99.212L86.4,99.323L86.28,99.432L86.159,99.541L86.038,99.65L85.916,99.757L85.794,99.864L85.67,99.97L85.546,100.076L85.422,100.176L85.297,100.276L85.171,100.376L85.045,100.476L84.918,100.576L84.791,100.676L84.662,100.776L84.533,100.876L84.404,100.976L84.274,101.076L84.143,101.176L84.012,101.276L83.881,101.376L83.748,101.47L83.615,101.564L83.481,101.657L83.347,101.75L83.213,101.841L83.077,101.932L82.941,102.022L82.805,102.111L82.668,102.2L82.531,102.288L82.392,102.374L82.253,102.46L82.114,102.545L81.974,102.629L81.834,102.713L81.693,102.796L81.552,102.878L81.41,102.959L81.267,103.039L81.124,103.118L80.98,103.197L80.836,103.275L80.692,103.352L80.547,103.428L80.401,103.504L80.255,103.578L80.109,103.651L79.962,103.724L79.814,103.796L79.666,103.867L79.517,103.937L79.368,104.006L79.218,104.074L79.068,104.141L78.917,104.208L78.766,104.273L78.614,104.338L78.463,104.402L78.31,104.465L78.157,104.527L78.003,104.588L77.849,104.648L77.695,104.707L77.54,104.766L77.385,104.823L77.229,104.879L77.073,104.935L76.917,104.989L76.76,105.043L76.603,105.095L76.445,105.147L76.286,105.198L76.127,105.248L75.968,105.297L75.809,105.345L75.649,105.392L75.489,105.438L75.328,105.484L75.167,105.528L75.006,105.571L74.844,105.613L74.682,105.654L74.519,105.694L74.356,105.733L74.192,105.772L74.028,105.809L73.864,105.845L73.699,105.881L73.534,105.915L73.369,105.948L73.203,105.981L73.037,106.012L72.871,106.043L72.704,106.072L72.537,106.1L72.37,106.127L72.202,106.153L72.034,106.178L71.865,106.202L71.696,106.226L71.527,106.247L71.357,106.268L71.188,106.288L71.018,106.307L70.847,106.325L70.676,106.342L70.505,106.358L70.334,106.373L70.163,106.387L69.991,106.399L69.819,106.41L69.647,106.421L69.474,106.43L69.3,106.438L69.127,106.445L68.953,106.451L68.779,106.456L68.605,106.456L68.431,106.456L67.731,106.456L67.557,106.456L67.383,106.456L67.209,106.451L67.035,106.445L66.861,106.438L66.688,106.43L66.515,106.421L66.342,106.41L66.17,106.399L66,106.386L65.828,106.372L65.657,106.357L65.486,106.341L65.315,106.324L65.145,106.306L64.974,106.287L64.805,106.267L64.636,106.246L64.467,106.225L64.3,106.2L64.131,106.176L63.962,106.151L63.794,106.125L63.627,106.098L63.46,106.07L63.294,106.041L63.128,106.01L62.962,105.979L62.796,105.946L62.631,105.913L62.466,105.879L62.301,105.843L62.137,105.807L61.973,105.77L61.809,105.731L61.646,105.692L61.483,105.652L61.321,105.611L61.159,105.569L61,105.527L60.839,105.483L60.678,105.437L60.518,105.391L60.358,105.344L60.2,105.3L60.041,105.251L59.882,105.201L59.723,105.15L59.565,105.098L59.408,105.046L59.251,104.992L59.095,104.938L58.939,104.882L58.784,104.826L58.628,104.769L58.474,104.71L58.319,104.651L58.165,104.591L58.011,104.53L57.858,104.468L57.7,104.4L57.548,104.336L57.397,104.271L57.246,104.206L57.095,104.139L56.945,104.072L56.8,104L56.651,103.931L56.502,103.861L56.353,103.79L56.206,103.718L56.059,103.645L55.912,103.572L55.766,103.498L55.62,103.422L55.474,103.346L55.33,103.269L55.186,103.191L55.042,103.112L54.899,103.033L54.757,102.953L54.615,102.872L54.474,102.79L54.333,102.707L54.193,102.623L54.053,102.539L53.914,102.454L53.775,102.368L53.637,102.282L53.5,102.2L53.363,102.111L53.227,102.022L53.091,101.932L52.956,101.841L52.821,101.75L52.687,101.657L52.553,101.564L52.42,101.47L52.288,101.376L52.156,101.276L52.025,101.176L51.895,101.076L51.765,100.976L51.635,100.876L51.506,100.776L51.378,100.676L51.25,100.576L51.123,100.476L50.997,100.376L50.871,100.276L50.746,100.176L50.621,100.076L50.497,99.97L50.374,99.864L50.251,99.757L50.13,99.65L50.009,99.541L49.888,99.432L49.768,99.323L49.649,99.212L49.53,99.101L49.411,98.989L49.294,98.877L49.178,98.763L49.062,98.649L48.947,98.535L48.832,98.42L48.718,98.304L48.605,98.188L48.492,98.071L48.381,97.953L48.27,97.834L48.16,97.715L48.051,97.595L47.942,97.475L47.834,97.354L47.726,97.232L47.62,97.11L47.514,96.986L47.414,96.862L47.314,96.738L47.214,96.613L47.114,96.487L47.014,96.361L46.914,96.234L46.814,96.107L46.714,95.978L46.614,95.849L46.514,95.72L46.414,95.59L46.314,95.459L46.214,95.328L46.114,95.197L46.019,95.065L45.925,94.931L45.831,94.797L45.739,94.663L45.647,94.528L45.556,94.393L45.466,94.257L45.377,94.121L45.288,93.984L45.201,93.847L45.114,93.708L45.028,93.569L44.942,93.43L44.858,93.291L44.774,93.15L44.691,93.009L44.609,92.868L44.528,92.726L44.448,92.584L44.368,92.44L44.289,92.296L44.211,92.152L44.135,92.007L44.059,91.862L43.984,91.716L43.91,91.57L43.836,91.424L43.763,91.277L43.692,91.129L43.621,90.981L43.551,90.832L43.482,90.683L43.413,90.533L43.346,90.383L43.28,90.232L43.214,90.081L43.15,89.93L43.086,89.778L43.023,89.625L42.961,89.472L42.9,89.318L42.84,89.164L42.781,89.01L42.722,88.855L42.665,88.7L42.608,88.544L42.553,88.388L42.498,88.232L42.444,88.076L42.391,87.918L42.34,87.76L42.289,87.602L42.239,87.443L42.19,87.284L42.142,87.124L42.095,86.965L42.049,86.804L42,86.643L41.956,86.482L41.913,86.321L41.87,86.16L41.827,86L41.786,85.838L41.747,85.674L41.709,85.51L41.671,85.346L41.635,85.182L41.6,85.018L41.566,84.853L41.532,84.687L41.5,84.521L41.469,84.355L41.439,84.189L41.41,84.022L41.381,83.855L41.354,83.688L41.328,83.52L41.3,83.35L41.276,83.181L41.253,83.012L41.231,82.843L41.21,82.674L41.19,82.504L41.171,82.334L41.153,82.163L41.137,81.992L41.121,81.821L41.106,81.65L41.092,81.479L41.079,81.307L41.068,81.135L41.058,80.963L41.049,80.79L41.04,80.617L41.033,80.443L41.027,80.269L41.022,80.095L41.022,79.921L41.022,79.746L41.022,79.046L41.022,78.872L41.022,78.698L41.027,78.524L41.033,78.35L41.04,78.176L41.049,78.003L41.058,77.83L41.068,77.658L41.079,77.485L41.092,77.314L41.106,77.143L41.121,76.972L41.137,76.801L41.153,76.63L41.171,76.46L41.19,76.29L41.21,76.12L41.231,75.951L41.253,75.782L41.276,75.613L41.3,75.444L41.325,75.276L41.351,75.108L41.378,74.94L41.407,74.773L41.436,74.607L41.466,74.441L41.497,74.275L41.529,74.109L41.563,73.943L41.597,73.778L41.632,73.614L41.668,73.45L41.706,73.286L41.744,73.123L41.783,72.959L41.824,72.796L41.865,72.634L41.908,72.472L41.951,72.311L42,72.152L42.045,71.991L42.091,71.83L42.138,71.67L42.186,71.511L42.235,71.352L42.285,71.193L42.336,71.035L42.387,70.877L42.44,70.719L42.494,70.562L42.549,70.406L42.604,70.25L42.661,70.094L42.718,69.938L42.777,69.784L42.836,69.63L42.896,69.476L42.957,69.323L43.019,69.169L43.082,69.017L43.146,68.865L43.21,68.714L43.276,68.563L43.342,68.413L43.409,68.262L43.478,68.113L43.547,67.964L43.617,67.815L43.688,67.667L43.759,67.519L43.832,67.372L43.906,67.225L43.98,67.079L44.055,66.933L44.131,66.788L44.207,66.643L44.285,66.499L44.364,66.355L44.444,66.211L44.524,66.069L44.605,65.927L44.687,65.786L44.77,65.645L44.854,65.504L44.938,65.364L45.024,65.225L45.11,65.086L45.197,64.948L45.284,64.81L45.373,64.673L45.462,64.537L45.552,64.401L45.643,64.266L45.735,64.131L45.824,64L45.918,63.866L46.012,63.733L46.107,63.601L46.207,63.469L46.307,63.338L46.407,63.207L46.507,63.077L46.607,62.948L46.707,62.819L46.807,62.691L46.907,62.563L47.007,62.437L47.107,62.311L47.207,62.185L47.307,62.06L47.407,61.936L47.507,61.812L47.613,61.689L47.719,61.567L47.827,61.445L47.935,61.324L48.044,61.204L48.153,61.084L48.263,60.965L48.374,60.846L48.485,60.728L48.598,60.611L48.711,60.494L48.825,60.378L48.94,60.263L49.055,60.149L49.171,60.035L49.287,59.922L49.404,59.81L49.523,59.698L49.642,59.587L49.761,59.476L49.881,59.367L50.002,59.258L50.123,59.15L50.244,59.042L50.367,58.936L50.49,58.83L50.614,58.73L50.739,58.63L50.864,58.53L50.99,58.43L51.116,58.33L51.243,58.23L51.371,58.13L51.499,58.03L51.628,57.93L51.758,57.83L51.888,57.73L52.018,57.63L52.149,57.53L52.281,57.43L52.413,57.336L52.546,57.242L52.68,57.148L52.814,57.056L52.949,56.965L53.084,56.874L53.22,56.783L53.356,56.694L53.5,56.6L53.638,56.512L53.776,56.425L53.915,56.339L54.054,56.254L54.194,56.169L54.334,56.085L54.472,56L54.613,55.919L54.755,55.838L54.897,55.758L55.04,55.679L55.184,55.6L55.328,55.522L55.472,55.445L55.618,55.369L55.764,55.293L55.91,55.219L56.057,55.145L56.204,55.073L56.351,55L56.5,54.929L56.649,54.859L56.798,54.79L56.947,54.722L57.097,54.654L57.248,54.588L57.399,54.522L57.55,54.458L57.7,54.4L57.852,54.336L58.005,54.275L58.159,54.214L58.313,54.154L58.468,54.095L58.622,54.036L58.778,53.979L58.933,53.923L59.089,53.867L59.245,53.812L59.402,53.758L59.559,53.705L59.717,53.654L59.876,53.603L60.035,53.553L60.2,53.5L60.359,53.452L60.519,53.405L60.679,53.359L60.84,53.314L61,53.269L61.161,53.226L61.323,53.184L61.485,53.143L61.648,53.102L61.811,53.063L61.975,53.025L62.139,52.988L62.303,52.952L62.468,52.916L62.633,52.882L62.798,52.848L62.964,52.816L63.13,52.785L63.296,52.755L63.462,52.726L63.629,52.697L63.796,52.67L63.964,52.644L64.133,52.618L64.302,52.594L64.471,52.57L64.64,52.548L64.809,52.527L64.978,52.507L65.149,52.488L65.319,52.47L65.49,52.454L65.661,52.438L65.832,52.423L66,52.41L66.171,52.398L66.343,52.387L66.516,52.376L66.689,52.367L66.862,52.358L67.036,52.351L67.21,52.345L68.257,52.345L68.257,52.332ZM67.932,56.332L67.783,56.332L67.634,56.332L67.485,56.332L67.336,56.332L67.188,56.337L67.039,56.343L66.892,56.35L66.744,56.358L66.597,56.367L66.45,56.377L66.3,56.4L66.154,56.411L66.008,56.424L65.862,56.437L65.717,56.451L65.571,56.467L65.426,56.483L65.282,56.5L65.138,56.518L65,56.536L64.856,56.555L64.712,56.576L64.568,56.597L64.425,56.619L64.283,56.643L64.14,56.667L64,56.692L63.858,56.718L63.717,56.745L63.576,56.772L63.435,56.801L63.294,56.83L63.154,56.86L63.014,56.891L62.875,56.923L62.736,56.955L62.597,56.989L62.458,57.023L62.32,57.058L62.182,57.094L62.044,57.13L61.907,57.168L61.771,57.207L61.635,57.246L61.499,57.286L61.363,57.327L61.228,57.368L61.093,57.411L60.958,57.454L60.824,57.498L60.69,57.543L60.556,57.589L60.422,57.635L60.289,57.682L60.157,57.731L60.025,57.78L59.893,57.83L59.762,57.88L59.631,57.931L59.5,57.983L59.37,58.036L59.24,58.09L59.111,58.144L58.982,58.199L58.853,58.255L58.725,58.311L58.597,58.368L58.469,58.427L58.343,58.486L58.216,58.546L58.09,58.606L57.964,58.667L57.838,58.728L57.713,58.791L57.589,58.855L57.465,58.919L57.341,58.984L57.218,59.05L57.095,59.116L56.973,59.183L56.851,59.251L56.73,59.32L56.609,59.389L56.488,59.458L56.368,59.529L56.248,59.6L56.129,59.671L56.01,59.744L55.892,59.818L55.774,59.892L55.657,59.967L55.54,60.043L55.424,60.119L55.308,60.196L55.193,60.273L55.078,60.352L54.964,60.431L54.85,60.51L54.736,60.59L54.623,60.671L54.511,60.752L54.399,60.834L54.288,60.917L54.176,61L54.066,61.084L53.956,61.169L53.847,61.254L53.738,61.34L53.63,61.426L53.522,61.514L53.415,61.602L53.309,61.691L53.203,61.78L53.097,61.869L52.997,61.96L52.897,62.051L52.797,62.142L52.697,62.234L52.597,62.327L52.497,62.421L52.397,62.515L52.297,62.61L52.197,62.705L52.097,62.805L51.997,62.905L51.897,63.005L51.797,63.105L51.697,63.205L51.597,63.305L51.497,63.405L51.397,63.505L51.297,63.605L51.203,63.705L51.109,63.805L51.015,63.905L50.922,64.005L50.83,64.105L50.738,64.205L50.647,64.305L50.556,64.405L50.466,64.511L50.377,64.617L50.288,64.723L50.2,64.83L50.113,64.938L50.027,65.047L49.941,65.156L49.856,65.265L49.771,65.375L49.687,65.485L49.6,65.6L49.517,65.711L49.435,65.822L49.354,65.935L49.273,66.048L49.193,66.161L49.114,66.275L49.035,66.389L48.957,66.504L48.879,66.619L48.803,66.735L48.727,66.851L48.652,66.968L48.577,67.085L48.503,67.203L48.429,67.322L48.356,67.441L48.284,67.56L48.213,67.679L48.142,67.799L48.072,67.92L48,68.045L47.932,68.166L47.864,68.288L47.797,68.41L47.731,68.533L47.666,68.656L47.601,68.78L47.537,68.904L47.474,69.029L47.411,69.153L47.349,69.279L47.288,69.405L47.227,69.531L47.168,69.657L47.109,69.784L47.05,69.911L46.993,70.039L46.937,70.167L46.881,70.296L46.826,70.425L46.772,70.554L46.718,70.684L46.665,70.814L46.614,70.945L46.563,71.076L46.512,71.207L46.463,71.339L46.414,71.471L46.366,71.603L46.319,71.736L46.273,71.87L46.227,72L46.182,72.134L46.138,72.269L46.095,72.403L46.052,72.538L46.011,72.674L45.97,72.81L45.93,72.946L45.891,73.082L45.853,73.219L45.815,73.356L45.778,73.493L45.742,73.631L45.707,73.77L45.673,73.908L45.639,74.047L45.607,74.186L45.575,74.326L45.544,74.465L45.514,74.605L45.485,74.746L45.456,74.887L45.428,75.028L45.402,75.169L45.376,75.31L45.351,75.452L45.327,75.594L45.304,75.736L45.282,75.879L45.261,76.023L45.24,76.167L45.22,76.311L45.201,76.455L45.183,76.599L45.166,76.744L45.15,76.889L45.134,77.034L45.12,77.18L45.106,77.326L45.094,77.472L45.083,77.618L45.072,77.765L45.062,77.911L45.053,78.058L45.045,78.206L45.038,78.354L45.032,78.502L45.032,80.293L45.038,80.441L45.045,80.589L45.053,80.736L45.062,80.884L45.072,81.03L45.083,81.177L45.094,81.323L45.106,81.469L45.134,81.761L45.166,82.051L45.183,82.196L45.201,82.34L45.22,82.484L45.24,82.628L45.261,82.772L45.282,82.915L45.304,83.058L45.327,83.201L45.351,83.343L45.376,83.485L45.428,83.767L45.456,83.908L45.485,84.049L45.514,84.189L45.544,84.329L45.575,84.469L45.639,84.747L45.707,85.025L45.742,85.164L45.778,85.302L45.815,85.439L45.891,85.713L45.93,85.849L45.97,85.985L46.052,86.257L46.095,86.392L46.138,86.526L46.182,86.66L46.227,86.794L46.273,86.928L46.319,87.061L46.366,87.194L46.414,87.327L46.463,87.459L46.512,87.59L46.614,87.852L46.665,87.982L46.718,88.113L46.772,88.242L46.826,88.372L46.881,88.501L46.993,88.759L47.05,88.887L47.168,89.141L47.227,89.267L47.349,89.519L47.41,89.644L47.473,89.769L47.536,89.893L47.6,90.017L47.73,90.265L47.796,90.388L47.863,90.51L47.931,90.632L47.999,90.753L48.068,90.874L48.138,90.995L48.209,91.115L48.28,91.234L48.352,91.353L48.425,91.472L48.499,91.591L48.573,91.709L48.648,91.826L48.723,91.942L48.875,92.174L48.953,92.29L49.031,92.405L49.189,92.633L49.269,92.747L49.431,92.973L49.513,93.084L49.596,93.195L49.764,93.417L49.849,93.527L49.934,93.636L50.106,93.854L50.193,93.961L50.281,94.069L50.459,94.281L50.549,94.381L50.64,94.487L50.731,94.587L50.915,94.787L51.008,94.887L51.29,95.187L52.19,96.087L52.39,96.277L52.59,96.465L52.69,96.558L52.79,96.65L52.99,96.832L53.09,96.922L53.196,97.012L53.408,97.19L53.515,97.278L53.623,97.366L53.731,97.452L53.949,97.624L54.059,97.709L54.169,97.793L54.28,97.877L54.391,97.96L54.503,98.042L54.615,98.123L54.728,98.204L54.842,98.285L55.07,98.443L55.185,98.522L55.3,98.599L55.416,98.676L55.532,98.752L55.649,98.828L55.766,98.902L56.002,99.05L56.24,99.194L56.48,99.336L56.843,99.543L56.965,99.611L57.087,99.677L57.333,99.809L57.457,99.874L57.705,100.002L57.83,100.064L57.956,100.126L58.082,100.187L58.208,100.247L58.335,100.307L58.461,100.366L58.717,100.482L58.845,100.538L58.974,100.594L59.103,100.649L59.232,100.703L59.362,100.757L59.492,100.81L59.623,100.862L59.754,100.913L59.885,100.963L60.017,101.013L60.149,101.062L60.281,101.11L60.414,101.158L60.682,101.25L60.816,101.295L60.95,101.339L61.085,101.383L61.355,101.467L61.491,101.508L61.627,101.548L61.899,101.626L62.036,101.664L62.45,101.772L62.589,101.806L62.867,101.872L63.006,101.903L63.146,101.934L63.286,101.964L63.568,102.022L63.709,102.049L63.85,102.075L64,102.1L64.142,102.125L64.426,102.173L64.569,102.195L64.857,102.237L65.289,102.294L65.433,102.31L65.578,102.326L65.724,102.341L65.869,102.355L66.015,102.369L66.161,102.382L66.453,102.404L66.6,102.414L66.747,102.423L66.895,102.431L67.042,102.438L67.191,102.444L68.982,102.444L69.13,102.438L69.278,102.431L69.425,102.423L69.572,102.414L69.719,102.404L69.865,102.393L70.011,102.382L70.157,102.369L70.303,102.355L70.449,102.341L70.594,102.326L70.739,102.31L70.883,102.294L71.028,102.275L71.172,102.256L71.316,102.237L71.46,102.216L71.603,102.195L71.746,102.173L71.889,102.149L72.031,102.125L72.173,102.1L72.314,102.074L72.455,102.048L72.596,102.021L72.737,101.992L72.877,101.963L73.017,101.933L73.157,101.902L73.296,101.871L73.435,101.838L73.574,101.805L73.713,101.771L73.851,101.735L73.989,101.699L74.127,101.663L74.264,101.625L74.4,101.586L74.536,101.547L74.672,101.507L74.808,101.466L74.944,101.424L75.078,101.382L75.213,101.338L75.347,101.294L75.481,101.249L75.615,101.203L75.748,101.157L75.881,101.109L76.014,101.061L76.146,101.012L76.277,100.962L76.408,100.912L76.539,100.861L76.67,100.809L76.8,100.756L76.93,100.702L77.059,100.648L77.188,100.593L77.317,100.537L77.446,100.481L77.574,100.423L77.701,100.365L77.828,100.306L77.954,100.246L78.08,100.186L78.206,100.125L78.331,100.063L78.456,100.001L78.58,99.937L78.704,99.873L78.828,99.808L78.952,99.742L79.074,99.676L79.197,99.61L79.318,99.542L79.439,99.473L79.56,99.404L79.68,99.335L79.801,99.264L79.92,99.193L80.039,99.121L80.158,99.049L80.277,98.975L80.394,98.901L80.512,98.827L80.628,98.751L80.744,98.675L80.86,98.598L80.976,98.521L81.091,98.442L81.205,98.363L81.319,98.284L81.433,98.203L81.546,98.122L81.658,98.041L81.77,97.959L81.881,97.876L81.992,97.792L82.103,97.708L82.213,97.623L82.322,97.537L82.431,97.451L82.539,97.365L82.647,97.277L82.754,97.189L82.861,97.1L82.967,97.011L83.073,96.921L83.173,96.831L83.273,96.74L83.373,96.649L83.473,96.557L83.573,96.464L83.673,96.37L83.773,96.276L83.873,96.181L83.973,96.086L84.073,95.986L84.173,95.886L84.273,95.786L84.373,95.686L84.473,95.586L84.573,95.486L84.673,95.386L84.773,95.286L84.873,95.186L84.968,95.086L85.062,94.986L85.156,94.886L85.249,94.786L85.342,94.686L85.433,94.586L85.524,94.486L85.615,94.38L85.705,94.274L85.794,94.168L85.883,94.062L85.971,93.954L86.058,93.847L86.145,93.738L86.231,93.629L86.317,93.52L86.401,93.41L86.485,93.299L86.569,93.188L86.652,93.077L86.734,92.966L86.815,92.853L86.896,92.74L86.976,92.626L87.056,92.512L87.135,92.398L87.213,92.283L87.291,92.167L87.367,92.051L87.443,91.935L87.518,91.819L87.593,91.702L87.667,91.584L87.74,91.465L87.813,91.346L87.885,91.227L87.956,91.108L88.026,90.988L88.096,90.867L88.165,90.746L88.234,90.625L88.301,90.503L88.368,90.381L88.434,90.258L88.5,90.134L88.564,90.01L88.628,89.886L88.692,89.761L88.754,89.636L88.816,89.511L88.877,89.385L88.938,89.259L88.997,89.133L89.056,89.006L89.114,88.879L89.171,88.751L89.228,88.622L89.284,88.493L89.339,88.364L89.393,88.234L89.447,88.105L89.5,87.974L89.552,87.844L89.603,87.713L89.654,87.582L89.703,87.451L89.752,87.319L89.8,87.186L89.847,87.053L89.893,86.92L89.939,86.786L89.983,86.652L90.027,86.518L90.071,86.384L90.113,86.249L90.155,86.113L90.196,85.977L90.236,85.841L90.275,85.705L90.314,85.569L90.351,85.432L90.388,85.295L90.424,85.157L90.459,85.018L90.493,84.88L90.527,84.741L90.56,84.602L90.591,84.463L90.622,84.323L90.652,84.183L90.681,84.043L90.709,83.902L90.737,83.761L90.763,83.62L90.789,83.479L90.814,83.337L90.838,83.195L90.861,83.052L90.884,82.909L90.905,82.766L90.925,82.622L90.945,82.478L90.964,82.334L90.982,82.19L91,82.049L91.016,81.904L91.031,81.759L91.045,81.613L91.059,81.467L91.071,81.321L91.083,81.175L91.094,81.028L91.103,80.881L91.112,80.734L91.12,80.587L91.127,80.439L91.133,80.291L91.139,80.142L91.139,79.993L91.139,79.844L91.139,79.695L91.139,79.095L91.139,78.946L91.139,78.797L91.139,78.648L91.133,78.5L91.127,78.352L91.12,78.204L91.112,78.056L91.103,77.909L91.094,77.763L91.083,77.616L91.071,77.47L91.059,77.324L91.045,77.178L91.031,77.032L91.016,76.887L91,76.747L90.98,76.6L90.962,76.456L90.943,76.312L90.923,76.168L90.903,76.024L90.882,75.881L90.859,75.737L90.836,75.595L90.812,75.453L90.787,75.311L90.761,75.17L90.735,75.029L90.707,74.888L90.679,74.747L90.65,74.606L90.62,74.466L90.589,74.327L90.558,74.187L90.525,74.048L90.491,73.909L90.457,73.77L90.422,73.632L90.386,73.494L90.349,73.357L90.312,73.22L90.273,73.083L90.234,72.947L90.194,72.811L90.153,72.675L90.111,72.539L90.069,72.404L90.025,72.27L89.981,72.135L89.937,72L89.891,71.866L89.845,71.732L89.8,71.6L89.752,71.468L89.7,71.34L89.651,71.208L89.6,71.077L89.549,70.946L89.497,70.815L89.444,70.685L89.39,70.555L89.336,70.426L89.281,70.297L89.225,70.168L89.168,70.04L89.111,69.912L89.053,69.785L88.994,69.658L88.935,69.532L88.874,69.406L88.813,69.28L88.751,69.154L88.689,69.03L88.625,68.905L88.561,68.781L88.497,68.657L88.431,68.534L88.365,68.411L88.298,68.289L88.231,68.167L88.162,68.046L88.093,67.925L88.023,67.804L87.953,67.684L87.882,67.565L87.81,67.446L87.737,67.327L87.664,67.208L87.59,67.09L87.515,66.973L87.44,66.856L87.364,66.74L87.288,66.624L87.21,66.509L87.132,66.394L87.053,66.28L86.973,66.166L86.893,66.053L86.812,65.94L86.731,65.827L86.649,65.716L86.566,65.605L86.482,65.494L86.398,65.384L86.314,65.274L86.228,65.165L86.142,65.056L86.055,64.947L85.968,64.839L85.88,64.732L85.791,64.626L85.702,64.52L85.612,64.414L85.521,64.314L85.43,64.214L85.339,64.114L85.246,64.014L85.153,63.914L85.059,63.814L84.965,63.714L84.87,63.614L84.77,63.514L84.67,63.414L84.57,63.314L84.47,63.214L84.37,63.114L84.27,63.014L84.17,62.914L84.07,62.814L83.97,62.714L83.87,62.619L83.77,62.524L83.67,62.43L83.57,62.336L83.47,62.243L83.37,62.151L83.27,62.06L83.17,61.969L83.07,61.878L82.964,61.789L82.858,61.7L82.751,61.611L82.644,61.523L82.536,61.435L82.428,61.349L82.319,61.263L82.209,61.178L82.1,61.093L81.986,61L81.875,60.917L81.764,60.834L81.652,60.752L81.54,60.671L81.427,60.59L81.313,60.51L81.199,60.431L81.084,60.352L80.97,60.273L80.854,60.196L80.738,60.119L80.622,60.043L80.506,59.967L80.388,59.892L80.27,59.818L80.152,59.744L80.033,59.671L79.914,59.6L79.794,59.529L79.674,59.458L79.554,59.388L79.433,59.319L79.312,59.25L79.191,59.182L79.068,59.115L78.946,59.049L78.822,58.983L78.698,58.918L78.574,58.854L78.45,58.79L78.325,58.727L78.2,58.666L78.074,58.605L77.948,58.545L77.822,58.485L77.695,58.426L77.567,58.367L77.44,58.31L77.311,58.254L77.182,58.198L77.053,58.143L76.924,58.089L76.794,58.035L76.664,57.982L76.533,57.93L76.402,57.879L76.271,57.829L76.14,57.779L76.008,57.73L75.875,57.681L75.742,57.634L75.609,57.588L75.475,57.542L75.341,57.497L75.207,57.453L75.073,57.41L74.937,57.367L74.802,57.326L74.666,57.285L74.53,57.245L74.394,57.206L74.258,57.167L74.121,57.129L73.983,57.093L73.846,57.057L73.707,57.022L73.568,56.988L73.429,56.954L73.29,56.922L73.151,56.89L73.011,56.859L72.871,56.829L72.73,56.8L72.589,56.771L72.448,56.744L72.307,56.717L72.166,56.691L72.024,56.666L71.882,56.642L71.739,56.618L71.6,56.6L71.456,56.579L71.313,56.558L71.169,56.539L71.025,56.52L70.88,56.502L70.736,56.485L70.591,56.469L70.446,56.453L70.3,56.439L70.154,56.426L70,56.41L69.854,56.399L69.708,56.388L69.561,56.378L69.414,56.369L69.267,56.361L69.119,56.354L68.971,56.348L68.822,56.343L68.673,56.343L68.524,56.343L68.375,56.343L67.926,56.343L67.932,56.332Z"/>
        </g>
        <path id="Path_142" d="M94.287,74.118L94.287,82.066" style="fill:none;stroke:black;stroke-width:4px;"/>
        <g id="Path_143" transform="matrix(1,0,0,1,0,60.463)">
            <path d="M94.287,74.118L94.287,82.066" style="fill:none;stroke:black;stroke-width:4px;"/>
        </g>
        <path id="Path_144" d="M88.808,94.744L88.808,123.463L108.935,109.1L88.808,94.744Z" style="fill:none;stroke:black;stroke-width:4px;"/>
        <path id="Path_145" d="M58.867,150.592L58.867,158.137L65.943,158.137" style="fill:none;stroke:black;stroke-width:4px;"/>
        <path id="Path_146" d="M117.916,166.79L117.916,145.37L139.181,145.37L117.916,166.79Z" style="fill:rgb(161,161,161);stroke:black;stroke-width:4px;"/>
        <path id="Path_147" d="M26.33,39.109L26.33,50.854" style="fill:none;stroke:rgb(255,90,80);stroke-width:4px;"/>
        <g id="Path_148" transform="matrix(1,0,0,1,105.518,-16.246)">
            <path d="M26.33,39.109L26.33,50.854" style="fill:none;stroke:rgb(251,197,90);stroke-width:4px;"/>
        </g>
        <g id="Path_149" transform="matrix(1,0,0,1,139.072,90.812)">
            <path d="M26.33,39.109L26.33,50.854" style="fill:none;stroke:rgb(59,145,218);stroke-width:4px;"/>
        </g>
        <g id="Path_150" transform="matrix(-3.82857e-16,1,-1,-3.82857e-16,71.312,18.651)">
            <path d="M26.33,39.109L26.33,50.854" style="fill:none;stroke:rgb(255,90,80);stroke-width:4px;"/>
        </g>
        <g id="Path_151" transform="matrix(-3.82857e-16,1,-1,-3.82857e-16,176.83,2.406)">
            <path d="M26.33,39.109L26.33,50.854" style="fill:none;stroke:rgb(251,197,90);stroke-width:4px;"/>
        </g>
        <g id="Path_152" transform="matrix(-3.82857e-16,1,-1,-3.82857e-16,210.384,109.463)">
            <path d="M26.33,39.109L26.33,50.854" style="fill:none;stroke:rgb(59,145,218);stroke-width:4px;"/>
        </g>
    </g>
</svg>
