<?xml version="1.0" encoding="UTF-8" standalone="no"?>
<!DOCTYPE svg PUBLIC "-//W3C//DTD SVG 1.1//EN" "http://www.w3.org/Graphics/SVG/1.1/DTD/svg11.dtd">
<svg width="100%" height="100%" viewBox="0 0 129 131" version="1.1" xmlns="http://www.w3.org/2000/svg" xmlns:xlink="http://www.w3.org/1999/xlink" xml:space="preserve" xmlns:serif="http://www.serif.com/" style="fill-rule:evenodd;clip-rule:evenodd;stroke-linecap:round;stroke-linejoin:round;stroke-miterlimit:1.5;">
    <g transform="matrix(1,0,0,1,-34.8063,-23.3712)">
        <path d="M110.048,53.629L160.924,53.629C160.924,53.629 162.57,41.584 149.587,43.203C149.587,43.203 148.124,34.288 135.895,34.397C128.242,34.464 124.705,38.978 123.822,43.203C123.822,43.203 109.446,40.441 110.048,53.629Z" style="fill:white;stroke:black;stroke-width:4px;"/>
        <g transform="matrix(1,0,0,1,-72.6068,-6.56725)">
            <path d="M110.048,53.629L160.924,53.629C160.924,53.629 163.854,34.957 147.244,40.746C147.244,40.746 145.782,31.831 133.552,31.939C125.899,32.007 122.362,36.521 121.479,40.746C116.701,37.872 106.821,38.863 110.048,53.629Z" style="fill:white;stroke:black;stroke-width:4px;"/>
        </g>
        <path d="M60.935,111.046L50.058,111.046L50.058,52.367" style="fill:none;stroke:black;stroke-width:4px;"/>
        <g transform="matrix(1,0,0,1,0,-1)">
            <path d="M40.742,60.079L50.058,52.367L57.77,60.079" style="fill:none;stroke:black;stroke-width:4px;"/>
        </g>
        <path d="M137.387,81.394L145.799,81.394L145.799,54.298" style="fill:none;stroke:black;stroke-width:4px;"/>
        <rect x="64.028" y="81.327" width="69.917" height="54.67" style="fill:rgb(75,75,75);stroke:black;stroke-width:4px;"/>
        <g id="rack">
            <g transform="matrix(1,0,0,1,0,-0.508469)">
                <path d="M136.794,75.21C136.794,72.96 134.97,71.136 132.72,71.136L64.824,71.136C62.574,71.136 60.75,72.96 60.75,75.21L60.75,87.974C60.75,90.224 62.574,92.048 64.824,92.048L132.72,92.048C134.97,92.048 136.794,90.224 136.794,87.974L136.794,75.21Z" style="fill:white;stroke:black;stroke-width:4px;"/>
            </g>
            <g transform="matrix(0.674112,0.674112,-0.792993,0.792993,94.2126,-39.8583)">
                <path d="M89.805,74.002C89.805,73.784 89.703,73.575 89.521,73.42C89.34,73.266 89.094,73.18 88.837,73.18C87.957,73.18 86.663,73.18 85.783,73.18C85.526,73.18 85.28,73.266 85.099,73.42C84.917,73.575 84.815,73.784 84.815,74.002C84.815,76.061 84.815,81.421 84.815,83.481C84.815,83.699 84.917,83.908 85.099,84.062C85.28,84.216 85.526,84.303 85.783,84.303C86.663,84.303 87.957,84.303 88.837,84.303C89.094,84.303 89.34,84.216 89.521,84.062C89.703,83.908 89.805,83.699 89.805,83.481C89.805,81.421 89.805,76.061 89.805,74.002Z"/>
            </g>
            <g transform="matrix(0.674112,0.674112,-0.792993,0.792993,104.7,-39.8583)">
                <path d="M89.805,74.002C89.805,73.784 89.703,73.575 89.521,73.42C89.34,73.266 89.094,73.18 88.837,73.18C87.957,73.18 86.663,73.18 85.783,73.18C85.526,73.18 85.28,73.266 85.099,73.42C84.917,73.575 84.815,73.784 84.815,74.002C84.815,76.061 84.815,81.421 84.815,83.481C84.815,83.699 84.917,83.908 85.099,84.062C85.28,84.216 85.526,84.303 85.783,84.303C86.663,84.303 87.957,84.303 88.837,84.303C89.094,84.303 89.34,84.216 89.521,84.062C89.703,83.908 89.805,83.699 89.805,83.481C89.805,81.421 89.805,76.061 89.805,74.002Z"/>
            </g>
            <g transform="matrix(0.674112,0.674112,-0.792993,0.792993,115.397,-39.8583)">
                <path d="M89.805,74.002C89.805,73.784 89.703,73.575 89.521,73.42C89.34,73.266 89.094,73.18 88.837,73.18C87.957,73.18 86.663,73.18 85.783,73.18C85.526,73.18 85.28,73.266 85.099,73.42C84.917,73.575 84.815,73.784 84.815,74.002C84.815,76.061 84.815,81.421 84.815,83.481C84.815,83.699 84.917,83.908 85.099,84.062C85.28,84.216 85.526,84.303 85.783,84.303C86.663,84.303 87.957,84.303 88.837,84.303C89.094,84.303 89.34,84.216 89.521,84.062C89.703,83.908 89.805,83.699 89.805,83.481C89.805,81.421 89.805,76.061 89.805,74.002Z"/>
            </g>
            <g transform="matrix(0.674112,0.674112,-0.792993,0.792993,126.257,-39.8583)">
                <path d="M89.805,74.002C89.805,73.784 89.703,73.575 89.521,73.42C89.34,73.266 89.094,73.18 88.837,73.18C87.957,73.18 86.663,73.18 85.783,73.18C85.526,73.18 85.28,73.266 85.099,73.42C84.917,73.575 84.815,73.784 84.815,74.002C84.815,76.061 84.815,81.421 84.815,83.481C84.815,83.699 84.917,83.908 85.099,84.062C85.28,84.216 85.526,84.303 85.783,84.303C86.663,84.303 87.957,84.303 88.837,84.303C89.094,84.303 89.34,84.216 89.521,84.062C89.703,83.908 89.805,83.699 89.805,83.481C89.805,81.421 89.805,76.061 89.805,74.002Z"/>
            </g>
            <g transform="matrix(1.73146,0,0,1.73146,-49.9051,-58.5838)">
                <circle cx="70.045" cy="80.831" r="2.431"/>
            </g>
        </g>
        <g id="rack1" serif:id="rack" transform="matrix(1,0,0,1,0,30.2483)">
            <g transform="matrix(1,0,0,1,0,-0.508469)">
                <path d="M136.794,75.21C136.794,72.96 134.97,71.136 132.72,71.136L64.824,71.136C62.574,71.136 60.75,72.96 60.75,75.21L60.75,87.974C60.75,90.224 62.574,92.048 64.824,92.048L132.72,92.048C134.97,92.048 136.794,90.224 136.794,87.974L136.794,75.21Z" style="fill:white;stroke:black;stroke-width:4px;"/>
            </g>
            <g transform="matrix(0.674112,0.674112,-0.792993,0.792993,94.2126,-39.8583)">
                <path d="M89.805,74.002C89.805,73.784 89.703,73.575 89.521,73.42C89.34,73.266 89.094,73.18 88.837,73.18C87.957,73.18 86.663,73.18 85.783,73.18C85.526,73.18 85.28,73.266 85.099,73.42C84.917,73.575 84.815,73.784 84.815,74.002C84.815,76.061 84.815,81.421 84.815,83.481C84.815,83.699 84.917,83.908 85.099,84.062C85.28,84.216 85.526,84.303 85.783,84.303C86.663,84.303 87.957,84.303 88.837,84.303C89.094,84.303 89.34,84.216 89.521,84.062C89.703,83.908 89.805,83.699 89.805,83.481C89.805,81.421 89.805,76.061 89.805,74.002Z"/>
            </g>
            <g transform="matrix(0.674112,0.674112,-0.792993,0.792993,104.7,-39.8583)">
                <path d="M89.805,74.002C89.805,73.784 89.703,73.575 89.521,73.42C89.34,73.266 89.094,73.18 88.837,73.18C87.957,73.18 86.663,73.18 85.783,73.18C85.526,73.18 85.28,73.266 85.099,73.42C84.917,73.575 84.815,73.784 84.815,74.002C84.815,76.061 84.815,81.421 84.815,83.481C84.815,83.699 84.917,83.908 85.099,84.062C85.28,84.216 85.526,84.303 85.783,84.303C86.663,84.303 87.957,84.303 88.837,84.303C89.094,84.303 89.34,84.216 89.521,84.062C89.703,83.908 89.805,83.699 89.805,83.481C89.805,81.421 89.805,76.061 89.805,74.002Z"/>
            </g>
            <g transform="matrix(0.674112,0.674112,-0.792993,0.792993,115.397,-39.8583)">
                <path d="M89.805,74.002C89.805,73.784 89.703,73.575 89.521,73.42C89.34,73.266 89.094,73.18 88.837,73.18C87.957,73.18 86.663,73.18 85.783,73.18C85.526,73.18 85.28,73.266 85.099,73.42C84.917,73.575 84.815,73.784 84.815,74.002C84.815,76.061 84.815,81.421 84.815,83.481C84.815,83.699 84.917,83.908 85.099,84.062C85.28,84.216 85.526,84.303 85.783,84.303C86.663,84.303 87.957,84.303 88.837,84.303C89.094,84.303 89.34,84.216 89.521,84.062C89.703,83.908 89.805,83.699 89.805,83.481C89.805,81.421 89.805,76.061 89.805,74.002Z"/>
            </g>
            <g transform="matrix(0.674112,0.674112,-0.792993,0.792993,126.257,-39.8583)">
                <path d="M89.805,74.002C89.805,73.784 89.703,73.575 89.521,73.42C89.34,73.266 89.094,73.18 88.837,73.18C87.957,73.18 86.663,73.18 85.783,73.18C85.526,73.18 85.28,73.266 85.099,73.42C84.917,73.575 84.815,73.784 84.815,74.002C84.815,76.061 84.815,81.421 84.815,83.481C84.815,83.699 84.917,83.908 85.099,84.062C85.28,84.216 85.526,84.303 85.783,84.303C86.663,84.303 87.957,84.303 88.837,84.303C89.094,84.303 89.34,84.216 89.521,84.062C89.703,83.908 89.805,83.699 89.805,83.481C89.805,81.421 89.805,76.061 89.805,74.002Z"/>
            </g>
            <g transform="matrix(1.73146,0,0,1.73146,-49.9051,-58.5838)">
                <circle cx="70.045" cy="80.831" r="2.431"/>
            </g>
        </g>
        <g id="rack2" serif:id="rack" transform="matrix(1,0,0,1,0,60.499)">
            <g transform="matrix(1,0,0,1,0,-0.508469)">
                <path d="M136.794,75.21C136.794,72.96 134.97,71.136 132.72,71.136L64.824,71.136C62.574,71.136 60.75,72.96 60.75,75.21L60.75,87.974C60.75,90.224 62.574,92.048 64.824,92.048L132.72,92.048C134.97,92.048 136.794,90.224 136.794,87.974L136.794,75.21Z" style="fill:white;stroke:black;stroke-width:4px;"/>
            </g>
            <g transform="matrix(0.674112,0.674112,-0.792993,0.792993,94.2126,-39.8583)">
                <path d="M89.805,74.002C89.805,73.784 89.703,73.575 89.521,73.42C89.34,73.266 89.094,73.18 88.837,73.18C87.957,73.18 86.663,73.18 85.783,73.18C85.526,73.18 85.28,73.266 85.099,73.42C84.917,73.575 84.815,73.784 84.815,74.002C84.815,76.061 84.815,81.421 84.815,83.481C84.815,83.699 84.917,83.908 85.099,84.062C85.28,84.216 85.526,84.303 85.783,84.303C86.663,84.303 87.957,84.303 88.837,84.303C89.094,84.303 89.34,84.216 89.521,84.062C89.703,83.908 89.805,83.699 89.805,83.481C89.805,81.421 89.805,76.061 89.805,74.002Z"/>
            </g>
            <g transform="matrix(0.674112,0.674112,-0.792993,0.792993,104.7,-39.8583)">
                <path d="M89.805,74.002C89.805,73.784 89.703,73.575 89.521,73.42C89.34,73.266 89.094,73.18 88.837,73.18C87.957,73.18 86.663,73.18 85.783,73.18C85.526,73.18 85.28,73.266 85.099,73.42C84.917,73.575 84.815,73.784 84.815,74.002C84.815,76.061 84.815,81.421 84.815,83.481C84.815,83.699 84.917,83.908 85.099,84.062C85.28,84.216 85.526,84.303 85.783,84.303C86.663,84.303 87.957,84.303 88.837,84.303C89.094,84.303 89.34,84.216 89.521,84.062C89.703,83.908 89.805,83.699 89.805,83.481C89.805,81.421 89.805,76.061 89.805,74.002Z"/>
            </g>
            <g transform="matrix(0.674112,0.674112,-0.792993,0.792993,115.397,-39.8583)">
                <path d="M89.805,74.002C89.805,73.784 89.703,73.575 89.521,73.42C89.34,73.266 89.094,73.18 88.837,73.18C87.957,73.18 86.663,73.18 85.783,73.18C85.526,73.18 85.28,73.266 85.099,73.42C84.917,73.575 84.815,73.784 84.815,74.002C84.815,76.061 84.815,81.421 84.815,83.481C84.815,83.699 84.917,83.908 85.099,84.062C85.28,84.216 85.526,84.303 85.783,84.303C86.663,84.303 87.957,84.303 88.837,84.303C89.094,84.303 89.34,84.216 89.521,84.062C89.703,83.908 89.805,83.699 89.805,83.481C89.805,81.421 89.805,76.061 89.805,74.002Z"/>
            </g>
            <g transform="matrix(0.674112,0.674112,-0.792993,0.792993,126.257,-39.8583)">
                <path d="M89.805,74.002C89.805,73.784 89.703,73.575 89.521,73.42C89.34,73.266 89.094,73.18 88.837,73.18C87.957,73.18 86.663,73.18 85.783,73.18C85.526,73.18 85.28,73.266 85.099,73.42C84.917,73.575 84.815,73.784 84.815,74.002C84.815,76.061 84.815,81.421 84.815,83.481C84.815,83.699 84.917,83.908 85.099,84.062C85.28,84.216 85.526,84.303 85.783,84.303C86.663,84.303 87.957,84.303 88.837,84.303C89.094,84.303 89.34,84.216 89.521,84.062C89.703,83.908 89.805,83.699 89.805,83.481C89.805,81.421 89.805,76.061 89.805,74.002Z"/>
            </g>
            <g transform="matrix(1.73146,0,0,1.73146,-49.9051,-58.5838)">
                <circle cx="70.045" cy="80.831" r="2.431"/>
            </g>
        </g>
    </g>
</svg>
