<svg xmlns="http://www.w3.org/2000/svg" width="751.694" height="749.165" viewBox="0 0 751.694 749.165"><g transform="translate(-973.561 -104.543)"><path d="M585.264,203.772c12.035,8.549,25.839,14.389,38.416,22.088,3.148,1.927,12.955,5.928,12.86,9.5-.055,2.09-3,4.711-4.293,6.159-2.211,2.481-4.291,4.988-6.331,7.613-9.339,12.02-18.133,24.153-28.255,35.569-1.524,1.717-6.114,9.917-7.6,5.844-.672-1.846-.118-3.921-1.869-5.643-.9-.887-4.383-1.375-3.369-3.277l2.03.912c-.526-1.52-.487-3.185-1.275-4.622-.49-.893-1.446-1.315-1.778-2.32-.458-1.389.319-3,.189-4.434a19.383,19.383,0,0,0-1.31-4.124c-2.619-7.984-3.558-16.032-4.9-24.269-1.327-8.151-3.393-16.046-4.2-24.287-.857-8.7-1.908-17.392-3.309-26.027,2.5.351,4.424,3.069,6.193,4.606,2.781,2.415,5.8,4.579,8.8,6.71m-9.435,84.275a4.771,4.771,0,0,1-1.348-1.662c5.9-2.922,2.339,2.063,1.348,1.662m-3.587-6.232c-2.571.709-4.418.852-6.4-.206-.188-.1.029-.873-.311-1.032-.3-.138-.749.033-1-.1-.863-.439-2.375.523-2.522-1.158,3.281-1,6.508-2.857,9.973-3.17,4.815-.433,4.592,4.468.263,5.662m-11.265-9.69c-3.508.82-6.4,2.737-10.126,2.236-3.5-.469-6.539-2.283-9.3-4.374,6.9-1.955,14.145-2.307,21.044-4.2,2.246-.615,5.2-2.239,7.618-1.584,2.69.727,2.859,3.246,3.665,5.538-4.3.774-8.641,1.386-12.9,2.382M539.036,262.4c-3.37.805-6.816,2.566-9.634-.473-.455-.49-.853,0-.8-1.511.056-1.593,1.5-2.619,2.746-3.18,2.924-1.318,7.022-.466,10.127-.66,4.953-.308,9.995-1.338,14.894-2.13,3.392-.548,6.9-1.766,10.363-1.526,2.677.186,5.906,2.467,2.005,4.131-3.553,1.516-8.88,1.284-12.729,1.94-5.69.971-11.359,2.066-16.974,3.408m-3.292-15.856.655.668a6.546,6.546,0,0,1,1.644-1.115c1.709-.149,3.428-.031,5.139-.128a87.837,87.837,0,0,0,11.79-1.666c3.155-.616,6.368-1.679,9.615-1.412,2.811.23,3.107.806,3.291,3.519-7.176,0-14.567-.151-21.62,1.368-4.591.988-9.651,3.932-11.951-1.375l1.438.141m4.486-11.486c1.779,1.355,6.63-.9,8.763-1.123a45.893,45.893,0,0,0,6.739-1.076c1.99-.512,8.574-3.07,10.1-.624,2.34,3.747-7.136,4.435-8.638,4.621-6.3.778-12.837,1.469-18.967,3.121l2-4.918m8.642-12.729c.46,1.732,14.708-4.651,14.967-.012.2,3.559-14.1,5.333-16.667,5.02.6-1.639,2.2-3.107,1.7-5.009m4.784-10.888c.3-3.494.772-3.474,3.574-3.8,2.137-.251,5.074-1.5,4.518,2.3-.476,3.261-8.4,5.024-8.092,1.5m5.093-12.022c.674-1.876,2.192.649,2.223,1.6.085,2.538-1.84,1.989-3.692,1.989q.773-1.778,1.469-3.592m23.45-14.08c-.378-.455-2.5-.629-3.1-.85-1.485-.544-1.274-1.7-3.173-.56-.095-.1.086-.956-.018-1a15.57,15.57,0,0,1-1.815-.8,23.719,23.719,0,0,1-2.943-2.161,26.834,26.834,0,0,0-3.205-2.894,4.193,4.193,0,0,0-1.485-.814c-1.536-.237-1.1.833-2.438,1.045-.827.131-1.429-.835-2.511-.418-.935.359-1.477,1.67-1.893,2.45-1.514,2.839-2.682,5.894-4.164,8.764-7.579,14.672-16.193,28.786-23.534,43.595-3.536,7.134-7.225,14.317-9.714,21.9-1.794,5.468-5.847,13.456-2.36,18.919,2.535,3.972,7.611,5.688,11.661,7.607,6.093,2.888,11.711,6.664,17.872,9.464,7.346,3.339,14.48,6.832,21.641,10.561,3.054,1.59,5.81,3.881,8.853,5.387,1.862.921,4.737-.651,5.343,1.461,2.333-2.826,6.11-.942,8.81-2.932,1.588-1.171,2.748-3.476,4.072-4.918,1.987-2.161,4.143-4.166,6.17-6.29,8.045-8.434,15.473-17.219,22.793-26.278,6.991-8.651,15.159-16.824,21.064-26.294a12.834,12.834,0,0,0,1.223-11.854c-1.13-3.03-3.852-7.6-7.741-5.6,1.474-2.448-4.214-5.063-5.939-5.542-.026-.007-.366,1.874-.847,1.827.171.017-1.446-4.167-2.156-4.7a69.83,69.83,0,0,0-6.977-4.773c-2.111-1.2-4.339-1.8-6.383-3.15-2.479-1.634-4.754-3.572-7.242-5.2a48.593,48.593,0,0,0-7.735-4.5c-2.3-.935-4.37-1.118-6.441-2.649a37.966,37.966,0,0,0-7.753-4.486c-2.557-1.129-6.1-2.116-7.929-4.328" transform="translate(1075 13)" fill-rule="evenodd"/><path d="M30.957,351.36l-13.7,6.6c-1.51-3.231-4.061-12.058-7.891-13.185-6.2-1.825-2.252,7.8-1.182,10,.879,1.807,2.918,4.607,2.423,6.761-.664,2.9-4.758,3.93-6.9,5.427-5.3,3.706-5.261,11.489,2.419,8.191,4.346-1.867,9.727-7.044,13.058-1.166,1.538,2.712,5.182,17.864,8.988,7.955,2.355-6.135-8.98-12.509-3.392-17.7,1.8-1.67,3.905-1.811,5.7-2.771,4.34-2.319,1.893-6.6.479-10.107" transform="translate(1485 -240)" fill-rule="evenodd"/><path d="M224.711,524.656c-5.351-1.916-14.3-1.5-15.627,5.409a9.39,9.39,0,0,0,2.523,8.055c2.317,2.437,6.007,2.663,5.81-1.581-.137-2.937-2.932-5.488,1.982-6.08,3.058-.368,7.581,1.919,7.733,5.3.344,7.614-12.836,8.211-17.693,6.894-9.64-2.612-7.021-12.709-.4-17.317,1.71-1.191,6.617-3.025,6.841-5.5.3-3.28-3.758-2.61-5.746-2.178-14.613,3.181-17.8,27.661-2.529,32.276,6.934,2.095,16.7-.068,20.878-6.348,3.918-5.888,3.971-16.157-3.771-18.929" transform="translate(776 303)" fill-rule="evenodd"/></g></svg>