<?xml version="1.0" encoding="UTF-8" standalone="no"?>
<!DOCTYPE svg PUBLIC "-//W3C//DTD SVG 1.1//EN" "http://www.w3.org/Graphics/SVG/1.1/DTD/svg11.dtd">
<svg width="100%" height="100%" viewBox="0 0 89 110" version="1.1" xmlns="http://www.w3.org/2000/svg" xmlns:xlink="http://www.w3.org/1999/xlink" xml:space="preserve" xmlns:serif="http://www.serif.com/" style="fill-rule:evenodd;clip-rule:evenodd;stroke-linecap:round;stroke-linejoin:round;stroke-miterlimit:1.5;">
    <g transform="matrix(1,0,0,1,-20.0548,-10.9435)">
        <g id="Privacy" transform="matrix(1,0,0,1,-34.8063,-23.3712)">
            <g transform="matrix(-0.895504,0,0,0.938596,157.066,26.9238)">
                <path d="M64.5,9L64.5,123C89.478,107.35 105.488,97.346 112,70.885L112,27L64.5,9Z" style="fill:rgb(53,143,221);"/>
            </g>
            <g transform="matrix(0.895504,0,0,0.938596,41.5463,26.9238)">
                <path d="M64.5,9L64.5,123C89.478,107.35 105.488,97.346 112,70.885L112,27L64.5,9Z" style="fill:white;"/>
            </g>
            <g id="Icon_feather-shield" transform="matrix(-3.37043,0,0,3.37043,159.974,28.2034)">
                <path d="M17.894,1.818L17.788,1.832L17.685,1.856L17.583,1.889L5.583,6.389L5.482,6.432L5.385,6.485L5.293,6.547L5.207,6.617L5.128,6.695L5.057,6.779L4.994,6.87L4.94,6.967L4.895,7.068L4.859,7.172L4.834,7.28L4.818,7.39L4.813,7.5L4.813,18.002L4.813,18.059L4.814,18.118L4.815,18.176L4.816,18.235L4.817,18.294L4.819,18.352L4.821,18.411L4.823,18.469L4.825,18.527L4.828,18.585L4.832,18.643L4.835,18.701L4.839,18.759L4.843,18.817L4.847,18.875L4.852,18.932L4.857,18.99L4.862,19.047L4.867,19.105L4.873,19.162L4.879,19.219L4.885,19.277L4.892,19.334L4.899,19.391L4.906,19.447L4.913,19.504L4.921,19.561L4.929,19.617L4.937,19.674L4.946,19.73L4.954,19.787L4.963,19.843L4.973,19.899L4.982,19.955L4.992,20.011L5.002,20.067L5.013,20.123L5.023,20.178L5.034,20.234L5.045,20.289L5.057,20.344L5.068,20.4L5.08,20.455L5.092,20.51L5.105,20.565L5.117,20.62L5.13,20.675L5.143,20.729L5.157,20.784L5.17,20.838L5.184,20.893L5.198,20.947L5.212,21.001L5.227,21.055L5.242,21.109L5.257,21.163L5.272,21.217L5.288,21.27L5.303,21.324L5.319,21.377L5.335,21.431L5.352,21.485L5.385,21.59L5.42,21.696L5.455,21.801L5.491,21.906L5.528,22.011L5.566,22.115L5.604,22.219L5.644,22.322L5.684,22.425L5.725,22.527L5.767,22.629L5.809,22.73L5.853,22.832L5.897,22.932L5.942,23.032L5.987,23.132L6.034,23.232L6.081,23.331L6.128,23.429L6.177,23.527L6.226,23.625L6.276,23.722L6.326,23.819L6.377,23.915L6.429,24.011L6.481,24.107L6.534,24.202L6.588,24.296L6.642,24.39L6.697,24.484L6.752,24.577L6.808,24.67L6.864,24.763L6.921,24.855L6.979,24.946L7.037,25.037L7.096,25.128L7.155,25.218L7.214,25.308L7.274,25.397L7.335,25.486L7.396,25.575L7.458,25.663L7.52,25.75L7.582,25.838L7.645,25.924L7.708,26.011L7.772,26.097L7.836,26.182L7.9,26.267L7.965,26.352L8.031,26.436L8.096,26.519L8.162,26.603L8.229,26.685L8.295,26.768L8.362,26.85L8.43,26.931L8.498,27.012L8.566,27.093L8.634,27.173L8.702,27.253L8.771,27.332L8.84,27.411L8.91,27.49L8.98,27.568L9.049,27.645L9.12,27.722L9.19,27.799L9.261,27.875L9.331,27.951L9.402,28.027L9.474,28.102L9.545,28.176L9.617,28.25L9.688,28.324L9.76,28.397L9.832,28.47L9.904,28.542L9.977,28.614L10.049,28.685L10.122,28.756L10.195,28.827L10.267,28.897L10.34,28.967L10.413,29.036L10.486,29.105L10.559,29.173L10.632,29.241L10.706,29.308L10.779,29.375L10.852,29.442L10.925,29.508L10.999,29.574L11.072,29.639L11.145,29.704L11.218,29.768L11.292,29.832L11.365,29.895L11.438,29.958L11.511,30.021L11.584,30.083L11.657,30.145L11.73,30.206L11.803,30.267L11.876,30.327L11.949,30.387L12.021,30.446L12.094,30.505L12.166,30.564L12.238,30.622L12.311,30.679L12.382,30.736L12.454,30.793L12.526,30.849L12.597,30.905L12.669,30.96L12.74,31.015L12.811,31.07L12.881,31.123L12.952,31.177L13.022,31.23L13.092,31.283L13.231,31.386L13.369,31.488L13.506,31.588L13.642,31.686L13.777,31.782L13.911,31.876L14.043,31.969L14.173,32.059L14.302,32.148L14.43,32.235L14.556,32.319L14.68,32.402L14.803,32.483L14.923,32.562L15.042,32.639L15.158,32.715L15.273,32.788L15.386,32.859L15.496,32.928L15.604,32.996L15.71,33.061L15.813,33.124L15.914,33.185L16.013,33.245L16.108,33.302L16.202,33.357L16.292,33.411L16.38,33.462L16.465,33.511L16.546,33.558L16.625,33.603L16.701,33.646L16.774,33.687L16.843,33.726L16.91,33.763L17.032,33.83L17.14,33.889L17.234,33.939L17.313,33.981L17.377,34.014L17.425,34.039L17.462,34.058L17.564,34.104L17.67,34.14L17.778,34.166L17.889,34.182L18,34.187L18.111,34.182L18.222,34.166L18.33,34.14L18.436,34.104L18.538,34.058L18.575,34.039L18.623,34.014L18.687,33.981L18.766,33.939L18.86,33.889L18.968,33.83L19.09,33.763L19.157,33.726L19.226,33.687L19.299,33.646L19.375,33.603L19.454,33.558L19.535,33.511L19.62,33.462L19.708,33.411L19.798,33.357L19.892,33.302L19.987,33.245L20.086,33.185L20.187,33.124L20.29,33.061L20.396,32.996L20.504,32.928L20.614,32.859L20.727,32.788L20.842,32.715L20.958,32.639L21.077,32.562L21.197,32.483L21.32,32.402L21.444,32.319L21.57,32.235L21.698,32.148L21.827,32.059L21.957,31.969L22.089,31.876L22.223,31.782L22.358,31.686L22.494,31.588L22.631,31.488L22.769,31.386L22.907,31.283L22.978,31.23L23.048,31.177L23.119,31.123L23.189,31.07L23.26,31.015L23.331,30.96L23.403,30.905L23.474,30.849L23.546,30.793L23.618,30.736L23.689,30.679L23.762,30.622L23.834,30.564L23.906,30.505L23.979,30.446L24.051,30.387L24.124,30.327L24.197,30.267L24.27,30.206L24.343,30.145L24.416,30.083L24.489,30.021L24.562,29.958L24.635,29.895L24.708,29.832L24.782,29.768L24.855,29.704L24.928,29.639L25.001,29.574L25.075,29.508L25.148,29.442L25.221,29.375L25.294,29.308L25.368,29.241L25.441,29.173L25.514,29.105L25.587,29.036L25.66,28.967L25.733,28.897L25.805,28.827L25.878,28.756L25.951,28.685L26.023,28.614L26.096,28.542L26.168,28.47L26.24,28.397L26.312,28.324L26.383,28.25L26.455,28.176L26.526,28.102L26.598,28.027L26.669,27.951L26.739,27.875L26.81,27.799L26.88,27.722L26.951,27.645L27.02,27.568L27.09,27.49L27.16,27.411L27.229,27.332L27.298,27.253L27.366,27.173L27.434,27.093L27.503,27.012L27.57,26.931L27.638,26.85L27.705,26.768L27.771,26.685L27.838,26.603L27.904,26.519L27.969,26.436L28.035,26.352L28.1,26.267L28.164,26.182L28.228,26.097L28.292,26.011L28.355,25.924L28.418,25.838L28.48,25.75L28.542,25.663L28.604,25.575L28.665,25.486L28.726,25.397L28.786,25.308L28.845,25.218L28.905,25.128L28.963,25.037L29.021,24.946L29.079,24.855L29.136,24.763L29.192,24.67L29.248,24.577L29.303,24.484L29.358,24.39L29.412,24.296L29.466,24.202L29.519,24.107L29.571,24.011L29.623,23.915L29.674,23.819L29.724,23.722L29.774,23.625L29.823,23.527L29.872,23.429L29.919,23.331L29.966,23.232L30.013,23.132L30.058,23.032L30.103,22.932L30.147,22.832L30.191,22.73L30.233,22.629L30.275,22.527L30.316,22.425L30.356,22.322L30.396,22.219L30.434,22.115L30.472,22.011L30.509,21.906L30.545,21.801L30.58,21.696L30.615,21.59L30.648,21.485L30.665,21.431L30.681,21.377L30.697,21.324L30.712,21.27L30.728,21.217L30.743,21.163L30.758,21.109L30.773,21.055L30.788,21.001L30.802,20.947L30.816,20.893L30.83,20.838L30.843,20.784L30.857,20.729L30.87,20.675L30.883,20.62L30.895,20.565L30.908,20.51L30.92,20.455L30.932,20.4L30.943,20.345L30.955,20.289L30.966,20.234L30.977,20.178L30.987,20.123L30.998,20.067L31.008,20.011L31.018,19.955L31.027,19.899L31.037,19.843L31.046,19.787L31.054,19.73L31.063,19.674L31.071,19.617L31.079,19.561L31.087,19.504L31.094,19.447L31.101,19.391L31.108,19.334L31.115,19.277L31.121,19.219L31.127,19.162L31.133,19.105L31.138,19.047L31.143,18.99L31.148,18.932L31.153,18.875L31.157,18.817L31.161,18.759L31.165,18.701L31.169,18.643L31.172,18.585L31.175,18.527L31.177,18.469L31.179,18.41L31.181,18.352L31.183,18.294L31.184,18.235L31.185,18.176L31.186,18.118L31.187,18.059L31.187,18.002L31.187,7.5L31.182,7.39L31.166,7.28L31.141,7.172L31.105,7.068L31.06,6.967L31.006,6.87L30.943,6.779L30.872,6.695L30.793,6.617L30.707,6.547L30.615,6.485L30.518,6.432L30.417,6.389L18.417,1.889L18.316,1.856L18.212,1.832L18.106,1.818L18,1.813L17.894,1.818ZM30,7.5L30,18L30,18.053L29.999,18.105L29.999,18.158L29.998,18.21L29.997,18.263L29.995,18.315L29.993,18.367L29.991,18.42L29.989,18.472L29.986,18.524L29.984,18.576L29.981,18.628L29.977,18.68L29.974,18.731L29.97,18.783L29.966,18.835L29.961,18.886L29.957,18.938L29.952,18.989L29.946,19.041L29.941,19.092L29.935,19.143L29.93,19.194L29.923,19.246L29.917,19.297L29.91,19.347L29.903,19.398L29.896,19.449L29.889,19.5L29.881,19.551L29.873,19.601L29.865,19.652L29.857,19.702L29.848,19.752L29.839,19.803L29.83,19.853L29.821,19.903L29.812,19.953L29.802,20.003L29.792,20.053L29.781,20.103L29.771,20.153L29.76,20.202L29.749,20.252L29.738,20.301L29.727,20.351L29.715,20.4L29.703,20.45L29.691,20.499L29.679,20.548L29.667,20.597L29.654,20.646L29.641,20.695L29.628,20.744L29.614,20.793L29.601,20.842L29.587,20.89L29.573,20.939L29.559,20.987L29.544,21.036L29.53,21.084L29.515,21.132L29.484,21.229L29.453,21.324L29.421,21.42L29.388,21.516L29.355,21.611L29.32,21.705L29.285,21.8L29.249,21.894L29.213,21.988L29.175,22.081L29.137,22.174L29.098,22.267L29.058,22.36L29.018,22.452L28.977,22.544L28.935,22.635L28.893,22.726L28.849,22.817L28.806,22.908L28.761,22.998L28.716,23.088L28.67,23.177L28.623,23.267L28.576,23.356L28.529,23.444L28.48,23.532L28.431,23.62L28.382,23.708L28.331,23.795L28.281,23.882L28.229,23.969L28.177,24.055L28.125,24.141L28.072,24.226L28.018,24.311L27.964,24.396L27.91,24.481L27.855,24.565L27.799,24.649L27.743,24.732L27.686,24.815L27.629,24.898L27.572,24.98L27.514,25.062L27.455,25.144L27.396,25.225L27.337,25.306L27.277,25.387L27.217,25.467L27.156,25.547L27.095,25.626L27.034,25.706L26.972,25.784L26.91,25.863L26.847,25.941L26.784,26.019L26.721,26.096L26.657,26.173L26.593,26.249L26.529,26.326L26.465,26.402L26.4,26.477L26.334,26.552L26.269,26.627L26.203,26.701L26.137,26.775L26.071,26.849L26.004,26.922L25.937,26.995L25.87,27.067L25.803,27.139L25.735,27.211L25.668,27.282L25.6,27.353L25.532,27.424L25.463,27.494L25.395,27.564L25.326,27.633L25.257,27.702L25.188,27.77L25.119,27.839L25.05,27.906L24.98,27.974L24.911,28.041L24.841,28.107L24.772,28.174L24.702,28.239L24.632,28.305L24.562,28.37L24.492,28.434L24.422,28.498L24.351,28.562L24.281,28.626L24.211,28.689L24.141,28.751L24.07,28.813L24,28.875L23.93,28.936L23.859,28.997L23.789,29.058L23.719,29.118L23.649,29.177L23.578,29.237L23.508,29.296L23.438,29.354L23.368,29.412L23.298,29.469L23.228,29.527L23.159,29.583L23.089,29.64L23.02,29.695L22.95,29.751L22.881,29.806L22.812,29.86L22.743,29.915L22.674,29.968L22.605,30.022L22.537,30.074L22.468,30.127L22.4,30.179L22.332,30.23L22.265,30.282L22.197,30.332L22.063,30.432L21.929,30.53L21.797,30.627L21.666,30.722L21.535,30.815L21.407,30.906L21.279,30.995L21.153,31.082L21.028,31.168L20.905,31.252L20.783,31.334L20.663,31.414L20.545,31.492L20.428,31.568L20.314,31.643L20.201,31.716L20.09,31.786L19.982,31.855L19.875,31.922L19.771,31.987L19.669,32.05L19.569,32.111L19.471,32.17L19.377,32.227L19.284,32.282L19.194,32.336L19.107,32.387L19.023,32.436L18.942,32.483L18.863,32.529L18.787,32.572L18.715,32.613L18.645,32.652L18.579,32.69L18.516,32.725L18.399,32.789L18.297,32.844L18.208,32.892L18.135,32.93L18.077,32.961L18.034,32.983L18,33L17.966,32.983L17.923,32.961L17.865,32.93L17.792,32.892L17.703,32.844L17.601,32.789L17.484,32.725L17.421,32.69L17.355,32.652L17.285,32.613L17.213,32.572L17.137,32.529L17.058,32.483L16.977,32.436L16.893,32.387L16.806,32.336L16.716,32.282L16.623,32.227L16.529,32.17L16.431,32.111L16.331,32.05L16.229,31.987L16.125,31.922L16.018,31.855L15.91,31.786L15.799,31.716L15.686,31.643L15.572,31.568L15.455,31.492L15.337,31.414L15.217,31.334L15.095,31.252L14.972,31.168L14.847,31.082L14.721,30.995L14.593,30.906L14.465,30.815L14.334,30.722L14.203,30.627L14.071,30.53L13.937,30.432L13.803,30.332L13.735,30.282L13.668,30.23L13.6,30.179L13.532,30.127L13.463,30.074L13.395,30.022L13.326,29.968L13.257,29.915L13.188,29.86L13.119,29.806L13.05,29.751L12.98,29.695L12.911,29.64L12.841,29.583L12.772,29.527L12.702,29.469L12.632,29.412L12.562,29.354L12.492,29.296L12.422,29.237L12.351,29.177L12.281,29.118L12.211,29.058L12.141,28.997L12.07,28.936L12,28.875L11.93,28.813L11.859,28.751L11.789,28.689L11.719,28.626L11.649,28.562L11.578,28.498L11.508,28.434L11.438,28.37L11.368,28.305L11.298,28.239L11.228,28.174L11.159,28.107L11.089,28.041L11.02,27.974L10.95,27.906L10.881,27.839L10.812,27.77L10.743,27.702L10.674,27.633L10.605,27.564L10.537,27.494L10.468,27.424L10.4,27.353L10.332,27.282L10.265,27.211L10.197,27.139L10.13,27.067L10.063,26.995L9.996,26.922L9.929,26.849L9.863,26.775L9.797,26.701L9.731,26.627L9.666,26.552L9.6,26.477L9.535,26.402L9.471,26.326L9.407,26.249L9.343,26.173L9.279,26.096L9.216,26.019L9.153,25.941L9.09,25.863L9.028,25.784L8.966,25.706L8.905,25.626L8.844,25.547L8.783,25.467L8.723,25.387L8.663,25.306L8.604,25.225L8.545,25.144L8.486,25.062L8.428,24.98L8.371,24.898L8.314,24.815L8.257,24.732L8.201,24.649L8.145,24.565L8.09,24.481L8.036,24.396L7.982,24.311L7.928,24.226L7.875,24.141L7.823,24.055L7.771,23.969L7.719,23.882L7.669,23.795L7.618,23.708L7.569,23.62L7.52,23.532L7.471,23.444L7.424,23.356L7.377,23.267L7.33,23.177L7.284,23.088L7.239,22.998L7.194,22.908L7.151,22.817L7.107,22.726L7.065,22.635L7.023,22.544L6.982,22.452L6.942,22.36L6.902,22.267L6.863,22.174L6.825,22.081L6.787,21.988L6.751,21.894L6.715,21.8L6.68,21.705L6.645,21.611L6.612,21.516L6.579,21.42L6.547,21.324L6.516,21.229L6.485,21.132L6.47,21.084L6.456,21.036L6.441,20.987L6.427,20.939L6.413,20.89L6.399,20.842L6.386,20.793L6.372,20.744L6.359,20.695L6.346,20.646L6.333,20.597L6.321,20.548L6.309,20.499L6.297,20.45L6.285,20.4L6.273,20.351L6.262,20.301L6.251,20.252L6.24,20.202L6.229,20.153L6.219,20.103L6.208,20.053L6.198,20.003L6.188,19.953L6.179,19.903L6.17,19.853L6.161,19.803L6.152,19.752L6.143,19.702L6.135,19.652L6.127,19.601L6.119,19.551L6.111,19.5L6.104,19.449L6.097,19.398L6.09,19.347L6.083,19.297L6.077,19.246L6.07,19.194L6.065,19.143L6.059,19.092L6.054,19.041L6.048,18.989L6.043,18.938L6.039,18.886L6.034,18.835L6.03,18.783L6.026,18.731L6.023,18.68L6.019,18.628L6.016,18.576L6.014,18.524L6.011,18.472L6.009,18.42L6.007,18.367L6.005,18.315L6.003,18.263L6.002,18.21L6.001,18.158L6.001,18.105L6,18.053L6,18L6,7.5L18,3L30,7.5Z"/>
            </g>
            <g transform="matrix(-1,0,0,0.886956,163.806,30.3321)">
                <path d="M64.5,123L64.5,9" style="fill:none;stroke:black;stroke-width:4.23px;"/>
            </g>
        </g>
    </g>
</svg>
