<?xml version="1.0" encoding="UTF-8" standalone="no"?>
<!DOCTYPE svg PUBLIC "-//W3C//DTD SVG 1.1//EN" "http://www.w3.org/Graphics/SVG/1.1/DTD/svg11.dtd">
<svg width="100%" height="100%" viewBox="0 0 117 128" version="1.1" xmlns="http://www.w3.org/2000/svg" xmlns:xlink="http://www.w3.org/1999/xlink" xml:space="preserve" xmlns:serif="http://www.serif.com/" style="fill-rule:evenodd;clip-rule:evenodd;stroke-linecap:round;stroke-linejoin:round;stroke-miterlimit:1.5;">
    <g transform="matrix(1,0,0,1,-31.5862,-28.5406)">
        <g transform="matrix(0.898313,0.439356,-0.439356,0.898313,49.0843,-30.5372)">
            <path d="M90.929,28.462L90.929,33.421" style="fill:none;stroke:black;stroke-width:4px;"/>
            <g transform="matrix(1,0,0,1,0,13.2352)">
                <path d="M90.929,28.462L90.929,33.421" style="fill:none;stroke:black;stroke-width:4px;"/>
            </g>
            <g transform="matrix(1,0,0,1,0,25.8591)">
                <path d="M90.929,28.462L90.929,33.421" style="fill:none;stroke:black;stroke-width:4px;"/>
            </g>
            <g transform="matrix(1,0,0,1,0,38.7313)">
                <path d="M90.929,28.462L90.929,33.421" style="fill:none;stroke:black;stroke-width:4px;"/>
            </g>
            <g transform="matrix(1,0,0,1,0,94.1461)">
                <path d="M90.929,28.462L90.929,33.421" style="fill:none;stroke:black;stroke-width:4px;"/>
            </g>
            <g transform="matrix(1,0,0,1,0,106.698)">
                <path d="M90.929,28.462L90.929,33.421" style="fill:none;stroke:black;stroke-width:4px;"/>
            </g>
            <g transform="matrix(1,0,0,1,0,119.658)">
                <path d="M90.929,28.462L90.929,33.421" style="fill:none;stroke:black;stroke-width:4px;"/>
            </g>
            <path d="M80.18,125.707L130.947,59.15C130.947,59.15 135.278,47.443 124.568,39.319L65.748,116.345L80.18,125.707Z" style="fill:white;stroke:black;stroke-width:4px;"/>
            <path d="M101.586,125.707L51.341,59.15C51.341,59.15 48.057,47.061 57.851,39.697L116.586,116.333L101.586,125.707Z" style="fill:white;stroke:black;stroke-width:4px;"/>
            <path d="M80.18,125.707L130.947,59.15C130.947,59.15 135.278,47.443 124.568,39.319L65.748,116.345L80.18,125.707Z" style="fill:none;stroke:black;stroke-width:4px;"/>
            <g transform="matrix(-0.0104776,0,0,-0.0104776,91.8819,97.8022)">
                <path d="M90.929,28.462L90.929,33.421" style="fill:none;stroke:black;stroke-width:381.77px;"/>
            </g>
            <path d="M101.586,125.707L51.341,59.15C51.341,59.15 48.057,47.061 57.851,39.697L116.586,116.333L101.586,125.707Z" style="fill:none;stroke:black;stroke-width:4px;"/>
            <g transform="matrix(1,0,0,1,3.89293,0.812797)">
                <circle cx="61.002" cy="130.462" r="16.116" style="fill:white;stroke:black;stroke-width:4px;"/>
            </g>
            <g transform="matrix(0.44202,0,0,0.44202,38.1721,73.36)">
                <circle cx="61.002" cy="130.462" r="16.116" style="fill:none;stroke:black;stroke-width:9.05px;"/>
            </g>
            <g transform="matrix(1,0,0,1,55.1286,0.812797)">
                <circle cx="61.002" cy="130.462" r="16.116" style="fill:white;stroke:black;stroke-width:4px;"/>
            </g>
            <g transform="matrix(0.44202,0,0,0.44202,89.4078,73.36)">
                <circle cx="61.002" cy="130.462" r="16.116" style="fill:none;stroke:black;stroke-width:9.05px;"/>
            </g>
        </g>
    </g>
</svg>
