<svg width="100%" height="100%" viewBox="0 0 700 738" version="1.1" fillRule="evenodd"
    clipRule="evenodd" strokeLinejoin="round" strokeMiterlimit="2">
    <g transform="matrix(1,0,0,1,-2.25058,-2.39852)">
        <g transform="matrix(1,0,0,1,-12,-13)">
            <g id="Accent" transform="matrix(0.52428,-0.835136,0.835136,0.52428,-183.577,638.276)">
                <path
                    d="M525.318,94.758C522.223,102.949 519.13,111.141 516.035,119.332C514.051,124.581 512.069,129.829 510.086,135.078C509.382,136.939 508.991,138.848 507.631,140.14C504.425,143.182 498.671,145.118 494.818,147.258C492.237,148.692 489.655,150.126 487.074,151.56C485.743,152.3 482.792,153.229 481.859,154.457C480.833,155.81 481.318,158.295 481.318,160.166L481.318,206.758C494.651,205.091 507.985,203.425 521.318,201.758C503.554,222.255 485.791,242.751 468.027,263.248C463.649,268.299 458.334,273.161 455.072,279.038C448.13,291.548 441.344,304.148 434.482,316.702C428.094,328.387 421.706,340.073 415.318,351.758L472.787,349.312C487.666,348.679 502.951,349.631 517.287,345.414C529.105,341.938 540.922,338.463 552.74,334.987C554.312,334.524 559.208,334.001 560.322,332.736C561.365,331.551 561.343,327.074 561.638,325.558C567.216,296.888 574.317,265.294 590.597,240.615C602.269,222.924 618.019,207.435 632.443,192.008C638.073,185.987 643.801,180.038 649.231,173.834C650.622,172.245 652.631,170.442 653.551,168.512C654.145,167.265 654.975,164.889 654.606,163.782C654.446,163.302 650.735,161.58 650.203,161.238C646.442,158.821 642.714,156.353 638.978,153.897C628.48,146.995 617.992,140.076 607.434,133.266C599.203,127.956 590.995,122.326 582.313,117.763C573.314,113.033 563.403,109.704 553.968,105.967C544.434,102.19 534.882,98.456 525.318,94.758"
                    style="fill:rgb(249,196,99);" />
            </g>
        </g>
        <g transform="matrix(1,0,0,1,-12,-13)">
            <g id="Ink" transform="matrix(0.52428,-0.835136,0.835136,0.52428,-54.0704,532.131)">
                <path id="Fill-3"
                    d="M687.91,478.342C683.332,482.656 674.995,488.446 668.405,485.813C665.095,484.491 662.268,481.588 659.253,479.716C655.711,477.516 652.381,475.315 649.378,472.383C643.387,466.531 638.851,457.982 631.775,453.401C629.397,451.861 624.755,451.531 623.105,449.072C622.366,447.969 622.297,446.296 622.433,445.021C622.729,442.275 624.212,442.437 621.734,440.421L625.583,440.421C625.657,438.934 624.173,438.811 623.067,439.003C623.581,436.646 624.105,427.423 619.809,431.603C616.085,435.226 617.948,441.237 615.311,445.161C613.292,448.166 607.934,445.733 607.211,442.427C606.886,440.942 608.522,438.623 608.717,437.167C609.145,433.938 607.703,431.146 605.609,428.701C601.015,431.762 603.619,438.097 601.001,442.119C598.632,445.758 593.356,444.06 589.749,443.42C585.425,442.652 580.536,443.429 576.399,442.408C570.152,440.866 572.485,433.532 571.867,428.798C571.204,423.727 566.079,416.689 567.619,411.573C569.273,406.08 578.942,404.893 583.564,403.56C594.127,400.513 609.194,399.927 617.047,391.397C623.293,398.363 628.317,406.339 634.868,413.045C641.944,420.288 649.502,426.975 656.295,434.51C663.365,442.352 670.663,450.043 677.476,458.112C680.449,461.632 683.059,465.425 686.134,468.861C688.868,471.915 691.75,474.725 687.91,478.342M373.947,342.869C377.193,341.143 377.606,342.225 377.605,345.78C376.671,344.073 375.744,343.616 373.947,342.869M346.427,411.975L346.427,405.709C349.556,405.627 347.632,410.987 346.427,411.975M345.662,421.307C345.662,418.532 345.587,415.89 346.387,413.191C346.807,416.132 347.609,418.678 345.662,421.307M359.116,611.929C361.99,612.198 366.419,610.218 368.836,612.473C371.319,614.79 371.12,621.534 371.708,624.664C372.68,629.837 373.541,635.027 374.36,640.225C374.897,643.633 375.561,647.094 371.708,648.398C366.014,650.324 357.878,647.575 351.943,647.325C340.219,646.832 328.5,646.146 316.766,645.908C305.393,645.678 293.994,645.86 282.673,647.043C277.559,647.577 272.558,648.521 267.496,649.375C264.828,649.826 257.679,651.711 255.269,649.462C250.735,645.228 258.273,635.343 261.515,632.551C267.532,627.37 276.089,623.634 283.634,621.384C287.666,620.181 294.388,616.804 297.564,620.581C300.001,623.478 299.904,627.345 303.396,629.54C311.487,634.626 306.753,620.037 301.697,618.241C305.092,610.295 311.563,621.514 314.247,624.209C315.202,625.168 318.308,628.33 319.657,626.74C320.667,625.55 318.65,621.286 318.276,620.126C317.708,618.364 316.271,615.684 316.684,613.773C317.432,610.315 322.282,609.373 325.187,609.085C329.692,608.639 334.111,610.067 338.565,610.544C345.395,611.276 352.278,611.287 359.116,611.929M313.884,286.218C304.991,286.926 296.042,285.566 287.17,286.679C278.776,287.733 270.866,290.815 262.953,293.646C274.717,266.055 289.937,240.938 308.488,217.409C317.726,205.69 327.662,194.052 337.644,182.961C342.289,177.801 347.093,172.812 351.889,167.797C356.167,163.323 359.232,155.725 364.366,152.384C368.748,149.532 376.406,151.566 381.262,151.743C386.751,151.943 393.431,152.442 398.784,150.615C402.663,149.291 403.73,145.758 398.874,145.641C393.147,145.502 387.514,146.099 381.712,145.562C366.679,144.173 352.188,141.89 337.033,143.185C333.561,143.481 328.991,144.96 325.584,144.516C323.134,144.195 324.745,145.427 323.042,143.461C322.39,142.709 321.604,140.941 321.411,139.942C320.326,134.331 323.407,126.313 324.144,120.664C324.826,115.436 324.222,109.69 325.498,104.599C326.66,99.966 330.202,99.348 334.564,98.853C346.497,97.498 358.675,96.777 370.662,95.756C398.018,93.426 426.243,89.911 453.413,95.669C463.224,97.748 475.187,100.963 483.951,106.111C486.692,107.72 489.457,109.615 488.46,112.949C487.426,116.41 482.356,120.066 479.845,122.346C461.286,139.194 443.361,156.379 430.324,177.997C413.698,205.564 404.157,235.337 398.559,266.926C397.355,273.722 396.237,277.279 389.245,279.235C381.739,281.336 374.494,282.701 366.711,283.34C349.117,284.785 331.469,284.815 313.884,286.218M319.843,103.658C318.495,113.693 316.67,123.706 316.49,133.82C316.422,137.64 316.06,139.554 311.998,140.406C307.209,141.41 302.34,142.158 297.529,143.2C274.31,148.232 251.53,154.412 228.814,161.368C206.737,168.13 185.023,175.737 162.45,180.746C152.74,182.901 141.378,184.353 132.534,189.124C123.02,194.258 124.272,202.675 123.418,211.92C122.277,224.272 118.614,236.232 117.326,248.579C116.71,254.479 116.149,260.414 116.242,266.351C116.321,271.412 117.046,277.008 113.644,281.267C106.819,272.143 103.584,260.667 102.239,249.484C101.585,244.048 101.844,238.568 101.657,233.107C101.506,228.71 101.604,221.716 98.74,218.044C92.514,210.064 84.417,242.044 83.647,245.459C82.352,251.207 81.284,257.003 79.994,262.752C79.422,265.3 78.688,274.563 75.274,275.486C68.199,277.4 69.752,257.519 69.64,254.492C69.416,248.382 69.264,242.265 69.407,236.15C69.511,231.736 70.365,226.946 69.858,222.53C68.613,211.687 62.516,223.111 60.802,227.147C56.471,237.336 54.512,248.242 50.628,258.594C49.982,260.316 48.464,266.113 46.059,266.221C43.383,266.34 43.404,260.353 43.251,258.604C42.363,248.465 39.364,238.397 40.269,228.153C41.183,217.809 44.809,207.175 49.94,198.178C60.788,179.156 80.378,168.234 99.142,158.285C120.616,146.901 143.287,137.907 166.442,130.58C194.29,121.768 222.884,114.638 251.65,109.564C266.285,106.983 281.146,105.137 295.931,103.657C301.127,103.137 306.325,102.833 311.454,101.844C313.39,101.47 320.375,99.693 319.843,103.658M334.802,71.183C327.465,71.241 319.97,67.684 312.822,66.214C304.312,64.462 296.001,61.927 287.506,60.098C270.871,56.517 254.227,53.025 237.607,49.365C230.392,47.776 223.142,46.393 215.955,44.686C208.266,42.86 199.959,40.824 192.089,42.791C180.16,45.773 175.121,58.824 170.741,69.009C167.647,76.203 165.223,84.222 160.398,90.482C158.68,92.714 156.238,95.376 153.123,94.653C147.336,93.311 148.255,85.653 148.992,81.42C150.06,75.277 151.573,69.206 152.784,63.091C153.272,60.623 157.054,44.47 150.302,46.971C145.293,48.826 142.643,61.044 140.747,65.408C139.338,68.651 137.845,71.873 136.264,75.036C134.154,79.255 128.134,93.352 121.469,91.534C111.931,88.932 121.08,63.857 122.705,58.572C123.597,55.671 133.292,33.67 125.109,35.468C121.624,36.235 118.229,42.708 116.452,45.391C113.301,50.15 110.16,54.943 107.194,59.819C104.143,64.834 102.585,70.542 99.559,75.484C97.967,78.085 94.718,81.551 91.546,79.143C86.601,75.392 89.532,62.344 90.398,57.41C92.009,48.237 96.011,38.833 101.502,31.334C109.753,20.066 125.322,16.425 138.414,14.236C155.313,11.41 172.447,12.183 189.417,13.855C208.502,15.736 227.296,17.75 246.108,21.596C265.067,25.472 284.036,29.317 302.703,34.443C311.497,36.858 320.417,38.999 329.086,41.834C338.302,44.847 347.296,48.597 356.769,50.768C353.437,59.083 350.104,67.398 346.772,75.714C343.583,72.559 339.23,71.147 334.802,71.183M498.125,94.096C501.047,92.498 504.275,91.744 505.341,88.212C506.284,85.091 504.673,81.555 503.903,78.559C501.749,70.171 501.182,61.482 503.088,52.995C504.91,55.776 511.73,66.473 515.878,59.997C518.38,56.091 511.676,50.472 509.719,47.726C514.013,45.076 520.146,37.964 525.094,42.253C528.292,45.026 529.646,47.696 533.955,49.044C539.186,50.681 544.111,50.306 549.453,49.854C553.193,49.538 554.094,49.039 555.555,51.919C556.702,54.183 557.295,56.985 557.965,59.416C559.285,64.209 562.342,73.653 558.722,78.143C555.551,82.076 543.245,78.704 541.536,83.781C540.604,86.55 545.052,86.649 546.752,88.019C548.857,89.715 550.598,92.414 551.742,94.825C552.589,96.608 553.877,99.554 552.435,101.377C550.443,103.899 546.751,101.986 545.145,100.153C543.013,97.718 542.321,94.389 540.542,91.737C537.277,86.871 537.082,90.742 536.193,94.236C535.27,97.866 533.086,97.616 529.741,98.082C523.872,98.901 517.941,100.056 512.228,101.629C509.3,102.435 506.462,103.462 503.673,104.662C501.876,105.434 498.761,107.773 496.811,107.795C493.198,107.836 490.693,101.793 488.828,99.272C491.925,97.543 495.013,95.798 498.125,94.096M692.154,464.119C683.13,453.287 675.315,441.519 666.412,430.592C657.631,419.815 647.472,410.392 637.617,400.631C632.966,396.024 628.51,390.97 623.376,386.888C619.546,383.842 616.599,383.795 611.992,385.144C598.902,388.978 585.573,393.593 573.185,399.314C561.65,404.642 551.143,411.483 538.633,414.454C525.864,417.487 512.587,418.461 499.5,417.709C486.076,416.938 473.415,414.145 460.649,410.04C448.559,406.152 435.953,402.757 425.613,395.051C414.773,386.973 406.398,375.354 398.638,364.426C394.709,358.894 390.809,353.084 388.162,346.814C385.865,341.373 384.364,334.951 380.242,330.516C379.231,331.949 377.973,333.178 377.459,334.861C377.225,335.626 378.603,335.602 378.462,336.21C378.195,337.355 376.671,338.523 375.785,339.146C372.602,341.386 372.583,339.603 373.418,343.792C373.904,346.234 372.984,351.743 369.002,349.943C370.468,351.698 368.139,353.913 367.378,355.359C366.855,354.758 366.204,354.549 365.426,354.73C366.882,357.63 366.022,357.707 364.611,360.01C364.353,360.431 363.44,362.634 363.571,362.448C362.129,364.502 360.463,365.019 359.622,367.577C358.931,369.678 359.108,371.988 358.338,374.086C357.407,372.799 356.476,371.512 355.545,370.226C355.735,371.238 356.115,372.736 356.557,373.654C356.835,374.228 358.027,375.568 358.011,375.881C357.946,377.051 356.486,376.77 356.07,377.779C355.289,379.672 356.418,379.951 355.992,381.798C355.504,383.918 354.194,383.07 353.571,384.877C353.453,385.22 354.373,386.57 354.227,387.31C354.022,388.356 353.074,388.941 352.739,389.871C351.887,392.237 352.197,393.969 351.014,396.238C350.556,397.118 349.889,397.704 349.566,398.704C349.283,399.584 349.892,401.457 349.346,402.245C346.708,406.044 347.079,399.5 347.279,397.877C348.958,384.25 354.345,370.186 359.275,357.449C361.725,351.121 364.11,344.595 367.181,338.534C368.417,336.093 369.844,333.574 371.887,331.707C374.471,329.345 378.137,328.4 380.477,325.762C380.108,326.178 383.014,323.428 382.549,324.332C382.965,323.524 382.239,322.43 382.497,321.648C382.818,320.677 383.425,320.473 384.101,319.623C385.316,318.097 386.759,317.337 384.851,315.393C387.683,314.767 389.037,313.848 389.603,310.815C390.016,308.596 389.182,308.741 390.638,307.262C392.099,305.776 392.839,306.936 393.76,304.363C394.861,301.284 395.592,297.097 396.252,293.875C396.828,291.062 395.43,286.925 397.801,284.939C400.804,282.424 403.491,283.489 402.953,278.431C402.428,273.5 403.96,270.513 405.5,265.847C408.573,256.532 409.761,246.697 412.455,237.271C418.206,217.155 428.365,199.018 439.289,181.311C449.383,164.949 463.495,151.009 477.122,137.584C480.853,133.907 484.543,130.177 487.893,126.146C490.779,122.675 492.097,117.949 494.871,114.654C496.556,112.653 499.693,111.797 502.046,110.736C505.97,108.966 510.646,106.657 515.075,107.015C513.315,112.948 512.741,119.881 517.935,124.33C524.236,129.727 529.947,124.12 535.723,121.043C546.251,115.434 561.308,120.583 570.488,112.176C572.675,110.174 573.285,106.975 575.557,105.105C577.225,103.734 579.598,103.386 581.476,102.364C587.181,99.259 589.95,93.575 587.729,87.296C585.699,81.556 582.544,79.565 589.566,76.656C595.266,74.296 597.433,70.74 594.853,64.409C592.393,58.373 587.887,57.678 583.623,53.728C579.493,49.902 584.237,45.449 587.331,42.577C591.321,38.872 592.084,35.533 587.458,31.68C582.614,27.646 575.699,27.787 570.052,29.782C563.666,32.037 559.459,35.786 556.757,41.861C554.005,48.046 547.184,46.32 541.66,44.596C536.377,42.948 535.002,39.392 531.533,35.563C527.675,31.304 519.812,34.946 515.262,36.892C504.054,41.682 492.916,49.242 492.471,62.633C492.206,70.618 495.583,77.405 497.339,84.9C498.945,91.754 487.934,91.214 486.027,97.844C465.686,87.076 443.033,83.781 420.295,83.048C396.128,82.268 371.613,81.643 347.652,85.455C353.214,75.765 356.151,65.139 360.99,55.184C362.383,52.318 362.983,52.563 366.057,53.429C371.962,55.092 377.823,56.953 383.716,58.666C405.244,64.924 426.349,72.464 447.165,80.722C449.188,81.525 453.705,83.754 455.478,81.33C457.524,78.535 452.791,75.089 450.875,73.683C442.493,67.534 432.106,63.802 422.719,59.488C402.196,50.059 379.47,45.583 358.056,38.58C311.827,23.459 264.001,11.975 215.959,4.39C204.235,2.539 192.386,2.268 180.611,0.894C170.181,-0.323 159.732,-0.295 149.303,0.962C130.041,3.285 107.71,8.297 96.831,25.929C87.01,41.849 80.454,59.748 82.96,78.632C83.713,84.304 86.115,91.021 93.114,89.559C97.969,88.545 100.547,84.42 102.801,80.394C106.207,74.312 109.571,68.23 113.262,62.311C114.631,71.186 109.656,79.913 110.438,88.954C110.97,95.089 114.36,104.782 122.325,103.045C133.242,100.665 137.735,83.61 142.984,75.428C143.25,81.73 141.041,87.941 141.717,94.257C142.384,100.496 147.259,106.386 154.106,105.531C160.564,104.725 164.761,97.806 167.504,92.597C171.321,85.348 174.063,77.576 177.791,70.279C181.285,63.439 185.424,55.296 193.766,54.011C201.211,52.863 209.743,55.52 217.097,56.616C237.496,59.656 257.484,64.832 277.66,69.014C299.293,73.497 321.437,76.22 342.403,83.454C335.031,93.488 315.739,91.32 304.757,92.397C288.161,94.025 271.352,95.25 254.85,97.652C238.552,100.024 222.595,104.235 206.424,107.292C190.338,110.333 174.28,113.379 158.715,118.565C129.816,128.194 100.435,140.38 74.973,157.181C63.126,164.999 52.602,173.934 45.284,186.274C37.919,198.691 34.38,212.732 33.03,227.015C32.19,235.909 33.617,243.606 35.34,252.262C36.588,258.529 36.992,269.022 42.017,273.611C51.608,282.37 59.571,246.842 61.342,242.551C62.617,249.583 60.532,289.199 75.921,285.977C82.789,284.54 84.347,275.113 85.486,269.435C87.564,259.084 89.425,248.525 92.979,238.556C95.26,251.988 96.211,265.982 101.125,278.811C104.389,287.331 113.702,302.449 120.195,287.863C125.065,276.924 123.394,264.369 123.978,252.755C124.625,239.885 128.32,227.471 129.628,214.727C130.135,209.79 129.676,204.226 134.637,201.532C138.896,199.22 145.124,198.467 149.774,197.176C163.547,193.352 177.41,189.837 191.118,185.78C204.832,181.72 218.356,176.977 231.887,172.348C244.828,167.921 258.041,165.404 271.139,161.613C278.586,159.457 285.943,157.202 293.494,155.402C297.008,154.565 300.565,153.913 304.071,153.046C306.67,152.404 310.094,149.981 312.766,150.024C315.516,150.069 316.55,152.397 319.703,152.58C323.098,152.776 326.55,152.027 329.926,151.768C338.151,151.137 346.894,150.117 355.1,151.257C350.168,157.107 343.507,161.151 337.669,165.997C330.936,171.586 324.42,177.621 318.669,184.221C307.097,197.501 296.16,211.538 285.999,225.925C275.976,240.118 267.906,255.649 260.89,271.517C257.394,279.424 254,287.504 251.585,295.815C250.593,299.229 249.783,302.656 247.992,305.761C246.349,308.609 244.034,311.064 245.976,314.503C247.313,313.666 248.514,312.626 249.723,311.621C248.326,321.462 245.311,330.982 243.761,340.793C242.233,350.459 242.295,360.4 242.394,370.162C242.602,390.606 244.122,410.587 248.269,430.64C252.463,450.917 257.851,471.04 264.645,490.601C271.185,509.435 277.748,529.186 286.877,546.937C296.627,565.897 308.226,585.831 322.339,601.88C313.12,605.656 301.388,604.95 291.626,606.471C281.422,608.061 272.595,611.062 263.899,616.708C255.101,622.422 250.325,629.778 249.109,640.196C248.245,647.611 245.678,657.877 255.406,659.825C262.403,661.226 270.225,658.925 277.236,658.356C289.5,657.362 301.782,656.741 314.073,656.205C326.332,655.67 338.594,655.199 350.857,654.819C356.625,654.64 362.396,654.55 368.162,654.343C370.746,654.251 372.313,654.211 374.63,654.958C376.462,655.549 376.328,656.776 378.368,655.259C381.658,652.812 380.981,645.097 380.889,641.705C380.749,636.47 380.253,631.175 379.232,626.039C378.626,622.987 371.27,603.314 376.99,602.486C370.345,595.184 367.691,584.757 364.706,575.605C360.966,564.139 357.683,552.705 355.106,540.912C349.601,515.721 347.168,490.255 347.168,464.48C372.686,480.209 399.685,488.729 429.741,489.679C459.623,490.624 492.452,488.17 520.827,478.229C533.967,473.625 545.737,467.579 557.003,459.434C561.041,456.515 565.367,449.903 570.667,450.016C576.992,450.152 584.075,452.546 590.356,453.57C602.368,455.528 618.046,456.633 628.216,464.063C633.74,468.099 637.699,473.748 642.629,478.398C646.379,481.936 651.338,483.857 655.06,487.395C659.076,491.212 657.481,496.199 664.14,496.508C669.832,496.771 676.073,494.481 680.982,491.793C690.776,486.43 701.206,474.983 692.154,464.119" />
                <path id="Fill-5"
                    d="M598.018,209.031C612.351,219.212 628.791,226.167 643.769,235.336C647.518,237.631 659.198,242.396 659.085,246.653C659.019,249.142 655.509,252.263 653.972,253.988C651.339,256.943 648.862,259.929 646.432,263.055C635.31,277.37 624.836,291.82 612.782,305.416C610.967,307.461 605.5,317.226 603.735,312.376C602.935,310.177 603.594,307.706 601.509,305.656C600.436,304.6 596.289,304.018 597.497,301.753C598.302,302.115 599.108,302.478 599.914,302.839C599.288,301.029 599.334,299.046 598.396,297.335C597.813,296.272 596.674,295.769 596.279,294.572C595.733,292.918 596.659,290.996 596.504,289.291C596.351,287.591 595.47,285.984 594.944,284.38C591.825,274.872 590.706,265.287 589.109,255.477C587.529,245.77 585.068,236.367 584.102,226.552C583.081,216.185 581.83,205.839 580.161,195.555C583.14,195.973 585.43,199.21 587.537,201.04C590.849,203.916 594.445,206.493 598.018,209.031M586.782,309.398C586.098,308.861 585.563,308.201 585.177,307.419C592.202,303.939 587.963,309.876 586.782,309.398M582.51,301.976C579.448,302.82 577.248,302.991 574.887,301.731C574.663,301.612 574.921,300.691 574.517,300.502C574.164,300.338 573.625,300.541 573.323,300.387C572.295,299.864 570.495,301.01 570.32,299.008C574.228,297.812 578.071,295.605 582.197,295.233C587.931,294.717 587.666,300.554 582.51,301.976M569.094,290.436C564.916,291.413 561.474,293.695 557.035,293.099C552.868,292.541 549.247,290.38 545.96,287.89C554.183,285.562 562.806,285.142 571.022,282.89C573.697,282.157 577.212,280.224 580.095,281.003C583.298,281.869 583.5,284.869 584.46,287.599C579.334,288.521 574.169,289.25 569.094,290.436M542.963,278.852C538.949,279.811 534.846,281.908 531.49,278.289C530.948,277.705 530.474,278.288 530.538,276.489C530.605,274.592 532.327,273.37 533.808,272.702C537.29,271.132 542.171,272.147 545.869,271.916C551.768,271.549 557.772,270.323 563.607,269.379C567.647,268.726 571.82,267.276 575.949,267.562C579.137,267.783 582.983,270.5 578.337,272.482C574.106,274.288 567.762,274.011 563.178,274.793C556.402,275.949 549.65,277.254 542.963,278.852M539.042,259.968C539.302,260.233 539.562,260.498 539.822,260.763C539.779,260.753 541.361,259.472 541.78,259.435C543.815,259.258 545.862,259.398 547.9,259.283C552.596,259.018 557.329,258.2 561.941,257.299C565.698,256.565 569.525,255.3 573.392,255.617C576.74,255.891 577.092,256.577 577.311,259.808C568.765,259.808 559.962,259.628 551.563,261.437C546.095,262.614 540.069,266.12 537.33,259.8C537.901,259.856 538.471,259.912 539.042,259.968M544.385,246.289C546.504,247.903 552.281,245.219 554.821,244.951C557.579,244.659 560.174,244.356 562.847,243.669C565.217,243.059 573.058,240.013 574.876,242.926C577.663,247.389 566.378,248.208 564.589,248.429C557.086,249.356 549.301,250.178 542,252.146C542.795,250.194 543.59,248.242 544.385,246.289M554.677,231.13C555.225,233.193 572.193,225.591 572.502,231.116C572.74,235.355 555.714,237.467 552.653,237.095C553.37,235.143 555.277,233.395 554.677,231.13M560.374,218.163C560.735,214.002 561.293,214.026 564.63,213.634C567.175,213.335 570.673,211.843 570.011,216.379C569.444,220.263 560.011,222.362 560.374,218.163M566.439,203.846C567.242,201.612 569.049,204.619 569.087,205.755C569.188,208.778 566.896,208.124 564.69,208.124C565.304,206.712 565.888,205.284 566.439,203.846M594.366,187.077C593.916,186.535 591.39,186.328 590.671,186.065C588.903,185.417 589.154,184.036 586.892,185.398C586.779,185.284 586.994,184.26 586.871,184.213C586.809,184.189 585.224,183.591 584.709,183.261C583.466,182.465 582.346,181.686 581.204,180.687C579.99,179.626 578.774,178.086 577.387,177.241C576.802,176.885 576.324,176.38 575.619,176.271C573.79,175.989 574.314,177.263 572.715,177.516C571.73,177.672 571.013,176.522 569.725,177.018C568.612,177.446 567.966,179.007 567.47,179.936C565.667,183.317 564.276,186.956 562.511,190.373C553.485,207.846 543.226,224.656 534.483,242.292C530.272,250.788 525.878,259.343 522.914,268.372C520.777,274.884 515.951,284.397 520.103,290.904C523.122,295.635 529.167,297.678 533.99,299.964C541.247,303.404 547.937,307.9 555.274,311.235C564.023,315.212 572.519,319.372 581.047,323.813C584.684,325.707 587.966,328.435 591.591,330.229C593.808,331.326 597.232,329.454 597.954,331.969C600.733,328.603 605.231,330.847 608.446,328.477C610.337,327.083 611.719,324.337 613.296,322.62C615.662,320.046 618.23,317.658 620.644,315.129C630.225,305.084 639.072,294.622 647.789,283.833C656.115,273.53 665.842,263.796 672.875,252.518C675.668,248.041 676.174,243.346 674.331,238.4C672.985,234.792 669.743,229.344 665.112,231.733C666.868,228.817 660.094,225.703 658.039,225.133C658.008,225.125 657.603,227.365 657.03,227.309C657.234,227.329 655.308,222.346 654.462,221.707C651.95,219.806 648.894,217.588 646.153,216.023C643.639,214.588 640.986,213.877 638.551,212.271C635.599,210.325 632.889,208.017 629.926,206.084C627.065,204.218 623.876,202.012 620.714,200.729C617.972,199.616 615.51,199.398 613.043,197.574C609.991,195.317 607.329,193.786 603.809,192.231C600.764,190.886 596.544,189.711 594.366,187.077" />
                <path id="Fill-7"
                    d="M178.709,457.32C179.269,456.005 179.827,454.69 180.387,453.376C181.079,455.668 181.273,456.808 178.709,457.32M179.454,463.394C178.241,463.611 178.719,459.806 178.719,459.143C180.814,460.329 179.079,461.751 179.454,463.394M177.563,452.417C178.597,451.806 179.631,451.196 180.665,450.585C179.225,453.253 179.79,451.586 180.384,453.368C179.298,453.68 178.242,453.316 177.563,452.417M171.435,473.269C167.559,487.332 155.248,498.423 142.245,504.168C134.773,507.468 127.427,508.294 119.358,507.926C116.246,507.784 112.584,506.773 109.589,506.961C107.283,507.106 107.387,507.206 105.477,509.158C104.632,507.602 105.244,506.51 103.549,505.604C101.434,504.474 100.556,505.79 99.507,507.355C98.134,505.932 97.572,505.189 95.793,504.344C95.849,504.371 94.09,504.304 94.162,504.326C93.844,504.228 91.931,502.998 91.332,502.774C88.874,501.852 86.032,501.473 83.764,500.15C81.78,498.995 80.146,495.752 77.876,498.244C77.874,494.08 72.265,492.353 69.636,490.172C65.528,486.764 62.262,481.718 60.214,476.837C58.03,471.632 57.301,466.642 56.279,461.278C55.565,457.53 50.889,452.112 53.697,448.33C54.366,449.916 54.052,451.54 55.163,452.978C56.163,451.051 56.713,448.895 57.165,446.786C57.387,445.753 58.673,442.721 58.527,441.821C58.23,439.979 55.95,439.879 57.214,437.621C59.836,440.474 61.952,435.464 59.971,433.467C58.993,434.57 58.634,435.823 58.183,437.189C55.605,431.985 62.74,433.661 61.179,428.963C63.783,428.462 65.28,427.806 66.27,425.233C67.371,422.37 66.561,421.746 69.061,419.854C69.921,419.204 72.353,418.269 72.798,417.199C73.659,415.132 71.468,414.519 73.387,412.582C74.035,413.719 76.561,415.97 77.944,413.828C78.221,413.401 77.058,413.098 77.904,412.114C79.157,410.658 80.559,409.23 82.678,409.536C81,405.341 91.722,405.009 94.468,404.019C97.22,403.028 99.555,402.377 102.473,402.147C105.388,401.917 105.533,401.063 108.001,399.308C108.21,401.819 108.814,401.267 110.599,401.71C111.028,400.974 111.468,400.891 111.918,401.462C112.366,401.888 112.914,402.088 113.56,402.064C114.54,402.115 115.652,401.987 116.679,402.008C119.09,402.055 121.577,401.854 123.942,401.905C124.552,401.803 125.122,401.591 125.656,401.268C125.879,401.688 126.103,402.109 126.325,402.53C127.578,402.687 127.675,404.257 129.216,402.54C129.672,404.723 130.982,403.587 132.366,404.179C133.628,404.72 133.829,405.584 134.994,406.187C135.76,406.808 136.581,406.89 137.459,406.435C138.294,407.054 139.142,407.655 140.002,408.238C141.587,409.133 143.455,409.681 145.125,410.388C146.236,410.846 147.34,411.323 148.435,411.817C148.468,413.139 149.061,413.606 150.213,413.217C151.254,414.088 151.547,414.054 152.557,415.537C154.845,418.898 156.875,421.509 159.765,424.513C172.326,437.573 176.185,456.037 171.435,473.269M175.29,417.735C169.619,410.141 161.592,401.445 154.379,396.649C150.723,394.217 145.591,389.852 141.12,388.566C140.06,388.261 138.963,388.241 137.921,387.921C137.116,387.674 136.678,386.848 135.76,386.699C135.118,386.595 135.047,388.032 134.365,387.9C132.939,387.622 132.035,386.207 131.028,385.322C128.865,389.049 127.691,382.781 124.515,386.995C120.735,381.068 111.855,382.364 105.819,382.663C104.029,382.751 103.188,383.388 101.601,383.86C100.124,384.299 99.978,384.186 98.365,384.174C94.348,384.143 90.782,384.648 87.069,386.412C80.831,389.375 75.105,393.992 69.18,397.563C62.558,401.554 56.589,406.634 51.523,412.471C33.209,433.577 28.312,464.384 42.915,488.852C66.11,527.713 125.941,531.866 159.844,505.498C186.037,485.125 196.005,445.469 175.29,417.735" />
                <path id="Fill-9"
                    d="M462.379,308.377C461.728,309.93 455.649,309.407 455.516,307.576C455.318,304.84 463.51,305.678 462.379,308.377M468.836,307.361C472.281,307.641 477.941,309.981 481.261,308.567C486.328,306.409 481.007,303.097 478.289,302.107C475.523,301.1 471.403,301.635 469.981,298.743C468.911,296.568 471.555,290.496 468.275,291.472C464.833,292.496 465.834,301.194 460.433,298.262C457.857,296.863 458.908,288.341 454.593,292.695C453.412,293.886 453.309,296.073 451.745,296.961C450.149,297.868 448.147,296.923 446.462,297.002C442.001,297.211 440.58,301.384 445.1,303.039C446.773,303.652 453.079,304.4 449.259,307.134C446.852,308.856 441.505,305.242 439.438,308.24C436.597,312.358 444.207,312.451 446.251,313.683C449.715,315.769 446.854,320.642 447.13,324.112C447.553,329.414 450.633,328.306 451.752,323.819C452.701,320.012 451.525,314.532 457.264,316.045C466.61,318.509 452.067,330.374 458.913,333.41C463.278,335.346 463.896,324.881 464.235,323.079C465.49,316.428 469.226,317.98 474.886,318.184C481.498,318.422 483.094,313.531 476.092,312.13C473.858,311.683 470.785,312.248 468.845,310.825C467.697,309.984 466.119,307.141 468.836,307.361" />
                <path id="Fill-11"
                    d="M224.711,524.656C219.36,522.74 210.408,523.154 209.084,530.065C208.53,532.958 209.609,536.018 211.607,538.12C213.924,540.557 217.614,540.783 217.417,536.539C217.28,533.602 214.485,531.051 219.399,530.459C222.457,530.091 226.98,532.378 227.132,535.756C227.476,543.37 214.296,543.967 209.439,542.65C199.799,540.038 202.418,529.941 209.038,525.333C210.748,524.142 215.655,522.308 215.879,519.835C216.177,516.555 212.121,517.225 210.133,517.657C195.52,520.838 192.335,545.318 207.604,549.933C214.538,552.028 224.303,549.865 228.482,543.585C232.4,537.697 232.453,527.428 224.711,524.656" />
                <path id="Fill-13"
                    d="M30.957,351.36C26.389,353.559 21.821,355.758 17.254,357.957C15.744,354.726 13.193,345.899 9.363,344.772C3.163,342.947 7.111,352.569 8.181,354.769C9.06,356.576 11.099,359.376 10.604,361.53C9.94,364.432 5.846,365.46 3.703,366.957C-1.6,370.663 -1.558,378.446 6.122,375.148C10.468,373.281 15.849,368.104 19.18,373.982C20.718,376.694 24.362,391.846 28.168,381.937C30.523,375.802 19.188,369.428 24.776,364.238C26.575,362.568 28.681,362.427 30.478,361.467C34.818,359.148 32.371,354.863 30.957,351.36" />
                <path id="Fill-16"
                    d="M700.644,131.82C697.921,130.824 694.552,128.879 691.525,129.542C688.308,130.246 687.013,133.468 684.674,135.405C678.315,140.672 674.611,132.822 671.117,128.52C667.817,124.458 663.791,123.472 659.135,125.968C657.28,126.963 649.465,131.522 650.828,134.443C651.808,136.545 655.669,134.658 656.986,134.199C659.845,133.204 662.5,132.333 665.424,133.784C670.909,136.504 672.332,143.963 678.968,145.126C685.83,146.329 686.055,139.799 690.952,137.341C694.235,135.694 696.522,138.61 699.689,138.029C702.707,137.476 704.103,133.084 700.644,131.82" />
                <path id="Fill-19"
                    d="M645.244,158.137C647.671,158.664 649.255,153.957 650.774,152.763C653.294,150.784 657.663,150.385 660.229,152.377C665.24,156.265 663.513,164.659 670.648,166.847C677.025,168.803 680.029,160.404 685.397,158.313C688.518,157.097 691.944,156.301 690.726,151.938C689.885,148.921 687.407,148.146 684.713,149.305C680.083,151.295 678.511,159.402 673.022,159.547C667.343,159.697 666.727,151.51 664.289,147.944C660.572,142.509 652.931,141.196 648.589,146.393C647.278,147.961 640.622,157.136 645.244,158.137" />
                <path id="Fill-21"
                    d="M532.987,65.326C536.363,67.636 543.091,67.556 546.201,64.691C549.366,61.776 545.141,61.328 542.563,61.417C540.58,61.486 536.868,62.469 537.998,59.044C539.001,56.005 544.514,57.552 544.974,54.216C540.825,53.472 536.255,53.74 533.186,57.001C530.967,59.358 529.827,63.163 532.987,65.326" />
            </g>
        </g>
    </g>
</svg>