<?xml version="1.0" encoding="UTF-8" standalone="no"?>
<!DOCTYPE svg PUBLIC "-//W3C//DTD SVG 1.1//EN" "http://www.w3.org/Graphics/SVG/1.1/DTD/svg11.dtd">
<svg width="100%" height="100%" viewBox="0 0 523 81" version="1.1" xmlns="http://www.w3.org/2000/svg" xmlns:xlink="http://www.w3.org/1999/xlink" xml:space="preserve" xmlns:serif="http://www.serif.com/" style="fill-rule:evenodd;clip-rule:evenodd;stroke-linejoin:round;stroke-miterlimit:2;">
    <g transform="matrix(1,0,0,1,5.32907e-15,-8.38109e-05)">
        <path d="M35.913,80.334C25.722,80.334 17.189,76.425 10.313,68.607C3.438,60.789 -0,51.645 -0,41.175C-0,30.425 3.211,21.543 9.633,14.528C16.055,7.512 24.466,4.005 34.866,4.005C43.103,4.005 50.223,5.977 56.226,9.921C62.229,13.864 65.23,18.559 65.23,24.003C65.23,26.446 64.445,28.436 62.874,29.971C61.304,31.507 59.192,32.275 56.54,32.275C54.167,32.275 52.038,31.559 50.153,30.128C48.268,28.697 46.715,26.97 45.494,24.946C44.272,22.921 43.033,20.88 41.777,18.82C40.52,16.761 39.002,15.016 37.222,13.585C35.442,12.154 33.4,11.439 31.097,11.439C27.607,11.439 24.623,13.079 22.145,16.36C19.667,19.641 18.428,24.073 18.428,29.657C18.428,39.499 20.801,47.579 25.548,53.896C30.294,60.213 35.774,63.372 41.986,63.372C44.29,63.372 46.401,63.023 48.321,62.325C50.24,61.627 51.95,60.632 53.451,59.341C54.952,58.049 56.104,56.915 56.906,55.938C57.709,54.961 58.634,53.739 59.681,52.273C60.658,51.087 61.88,50.685 63.346,51.069C64.811,51.453 65.509,52.483 65.44,54.158C65.16,61.417 62.491,67.595 57.43,72.69C52.369,77.786 45.197,80.334 35.913,80.334Z" style="fill:white;fill-rule:nonzero;"/>
        <path d="M120.2,67.874C120.409,69.549 120.81,70.893 121.404,71.905C121.997,72.917 122.59,73.563 123.184,73.842C123.777,74.121 124.318,74.47 124.807,74.889C125.295,75.308 125.539,75.831 125.539,76.46C125.539,78.763 121.596,79.915 113.708,79.915C110.497,79.915 108.106,79.531 106.536,78.763C104.965,77.995 103.971,76.704 103.552,74.889C100.899,78.519 96.467,80.334 90.254,80.334C84.391,80.334 79.627,78.973 75.962,76.25C72.298,73.528 70.465,69.584 70.465,64.419C70.465,59.393 72.28,55.467 75.91,52.64C79.54,49.813 84.007,48.399 89.312,48.399C93.43,48.399 96.955,49.272 99.887,51.017L99.887,50.703C99.189,43.792 98.404,39.115 97.531,36.672C96.659,34.229 94.966,33.008 92.453,33.008C90.848,33.008 89.556,33.741 88.579,35.207C87.602,36.672 86.886,38.278 86.433,40.023C85.979,41.768 85.124,43.373 83.867,44.839C82.611,46.305 80.936,47.038 78.842,47.038C76.678,47.038 74.915,46.41 73.554,45.153C72.193,43.897 71.512,42.257 71.512,40.232C71.512,36.184 73.537,33.13 77.585,31.071C81.634,29.012 86.59,27.982 92.453,27.982C99.433,27.982 105.21,29.884 109.782,33.688C114.354,37.493 117.058,42.64 117.896,49.132L120.2,67.874ZM96.013,74.994C97.619,74.994 98.927,74.226 99.939,72.69C100.952,71.155 101.458,69.41 101.458,67.455L101.039,62.639C100.341,56.845 98.177,53.948 94.547,53.948C92.942,53.948 91.65,54.594 90.673,55.885C89.696,57.177 89.207,58.904 89.207,61.068C89.207,64.977 89.818,68.275 91.04,70.963C92.261,73.65 93.919,74.994 96.013,74.994Z" style="fill:white;fill-rule:nonzero;"/>
        <path d="M163.233,27.982C166.234,27.982 168.625,28.959 170.405,30.914C172.185,32.868 173.075,35.346 173.075,38.348C173.075,44.909 170.387,48.19 165.013,48.19C162.849,48.19 161.208,47.684 160.092,46.672C158.975,45.659 158.329,44.525 158.155,43.269C157.98,42.012 157.614,40.878 157.055,39.866C156.497,38.854 155.659,38.348 154.542,38.348C151.96,38.348 150.668,41.698 150.668,48.399L150.668,67.874C150.668,69.619 151.593,71.347 153.443,73.057C155.293,74.767 156.218,76.041 156.218,76.879L156.218,77.297C156.218,78.624 155.38,79.287 153.705,79.287L131.193,79.287C129.518,79.287 128.681,78.624 128.681,77.297L128.681,76.879C128.681,76.041 129.379,74.767 130.775,73.057C132.171,71.347 132.869,69.619 132.869,67.874L132.869,47.038C132.869,45.642 132.45,44.455 131.612,43.478C130.775,42.501 129.937,41.663 129.099,40.965C128.262,40.267 127.843,39.499 127.843,38.662L127.843,38.348C127.843,37.161 128.646,36.149 130.251,35.311L145.014,28.401C146.41,27.912 147.388,27.877 147.946,28.296C148.504,28.715 148.784,29.518 148.784,30.704L148.784,38.348C151.157,31.437 155.973,27.982 163.233,27.982Z" style="fill:white;fill-rule:nonzero;"/>
        <path d="M228.149,67.874C228.149,69.619 228.847,71.347 230.243,73.057C231.639,74.767 232.337,76.041 232.337,76.879L232.337,77.297C232.337,78.624 231.534,79.287 229.929,79.287L214.956,79.287C213.141,79.287 212.234,78.414 212.234,76.669L212.234,75.727C208.953,78.798 204.695,80.334 199.46,80.334C192.689,80.334 186.878,78.013 182.027,73.371C177.176,68.729 174.75,62.325 174.75,54.158C174.75,46.549 177.193,40.285 182.079,35.364C186.966,30.443 192.794,27.982 199.565,27.982C203.823,27.982 207.418,28.959 210.349,30.914L210.349,16.988C210.349,15.592 209.896,14.388 208.988,13.376C208.081,12.364 207.156,11.491 206.213,10.758C205.271,10.025 204.8,9.24 204.8,8.402L204.8,8.088C204.8,6.762 205.603,5.855 207.208,5.366L223.542,0.445C226.613,-0.532 228.149,0.305 228.149,2.958L228.149,67.874ZM203.648,75.203C205.533,75.273 207.121,74.505 208.412,72.9C209.704,71.294 210.349,69.13 210.349,66.408L210.349,46.2C210.349,42.85 209.39,39.831 207.47,37.144C205.55,34.456 203.369,33.112 200.926,33.112C195.761,33.112 193.003,37.405 192.654,45.991C192.515,49.272 192.811,53.076 193.544,57.404C194.277,61.731 195.534,65.763 197.314,69.497C199.094,73.231 201.205,75.133 203.648,75.203Z" style="fill:white;fill-rule:nonzero;"/>
        <path d="M269.926,27.982C276.417,27.982 282.158,30.198 287.149,34.631C292.14,39.063 294.636,45.258 294.636,53.216C294.636,61.243 292.21,67.769 287.359,72.795C282.507,77.821 276.696,80.334 269.926,80.334C264.76,80.334 260.537,78.798 257.256,75.727L257.256,76.669C257.256,78.484 256.349,79.391 254.534,79.391L238.724,79.287C237.118,79.287 236.316,78.624 236.316,77.297L236.316,76.879C236.316,76.041 237.014,74.767 238.41,73.057C239.806,71.347 240.504,69.584 240.504,67.769L240.504,20.129C240.504,18.314 239.649,16.622 237.939,15.051C236.228,13.481 235.373,12.276 235.373,11.439L235.373,11.02C235.373,9.903 236.316,8.926 238.2,8.088L254.325,0.654C255.651,-0.044 256.803,-0.183 257.78,0.236C258.757,0.654 259.246,1.597 259.246,3.063L259.246,31.123C261.968,29.029 265.528,27.982 269.926,27.982ZM268.25,75.203C273.555,75.203 276.208,70.806 276.208,62.011C276.208,57.822 275.876,53.634 275.213,49.446C274.55,45.258 273.363,41.489 271.653,38.138C269.943,34.788 267.901,33.112 265.528,33.112C263.643,33.112 262.125,33.933 260.973,35.573C259.822,37.213 259.246,39.464 259.246,42.326L259.246,62.639C259.246,65.85 260.171,68.747 262.02,71.329C263.87,73.912 265.947,75.203 268.25,75.203Z" style="fill:white;fill-rule:nonzero;"/>
        <path d="M328.036,80.334C319.939,80.334 313.081,77.838 307.462,72.847C301.843,67.857 299.033,61.592 299.033,54.053C299.033,46.515 301.825,40.285 307.409,35.364C312.994,30.443 319.625,27.982 327.303,27.982C335.261,27.982 342.031,30.46 347.616,35.416C353.2,40.372 355.992,46.654 355.992,54.263C355.992,61.801 353.27,68.031 347.825,72.952C342.38,77.873 335.784,80.334 328.036,80.334ZM330.235,75.203C334.702,75.203 336.936,70.91 336.936,62.325C336.936,59.184 336.5,55.449 335.627,51.121C334.754,46.794 333.289,42.71 331.229,38.871C329.17,35.032 326.884,33.112 324.371,33.112C321.928,33.112 320.183,34.194 319.136,36.358C318.089,38.522 317.566,41.803 317.566,46.2C317.566,48.504 317.845,51.226 318.403,54.367C318.962,57.508 319.73,60.667 320.707,63.843C321.684,67.019 323.028,69.706 324.738,71.905C326.448,74.104 328.28,75.203 330.235,75.203Z" style="fill:white;fill-rule:nonzero;"/>
        <path d="M410.647,67.874C410.856,69.549 411.258,70.893 411.851,71.905C412.444,72.917 413.038,73.563 413.631,73.842C414.224,74.121 414.765,74.47 415.254,74.889C415.743,75.308 415.987,75.831 415.987,76.46C415.987,78.763 412.043,79.915 404.155,79.915C400.945,79.915 398.554,79.531 396.983,78.763C395.413,77.995 394.418,76.704 393.999,74.889C391.347,78.519 386.914,80.334 380.702,80.334C374.838,80.334 370.074,78.973 366.41,76.25C362.745,73.528 360.913,69.584 360.913,64.419C360.913,59.393 362.728,55.467 366.357,52.64C369.987,49.813 374.455,48.399 379.76,48.399C383.878,48.399 387.403,49.272 390.335,51.017L390.335,50.703C389.637,43.792 388.851,39.115 387.979,36.672C387.106,34.229 385.413,33.008 382.901,33.008C381.295,33.008 380.004,33.741 379.027,35.207C378.049,36.672 377.334,38.278 376.88,40.023C376.426,41.768 375.571,43.373 374.315,44.839C373.058,46.305 371.383,47.038 369.289,47.038C367.125,47.038 365.363,46.41 364.002,45.153C362.64,43.897 361.96,42.257 361.96,40.232C361.96,36.184 363.984,33.13 368.033,31.071C372.081,29.012 377.037,27.982 382.901,27.982C389.881,27.982 395.657,29.884 400.229,33.688C404.801,37.493 407.506,42.64 408.344,49.132L410.647,67.874ZM386.461,74.994C388.066,74.994 389.375,74.226 390.387,72.69C391.399,71.155 391.905,69.41 391.905,67.455L391.486,62.639C390.788,56.845 388.624,53.948 384.995,53.948C383.389,53.948 382.098,54.594 381.121,55.885C380.143,57.177 379.655,58.904 379.655,61.068C379.655,64.977 380.266,68.275 381.487,70.963C382.709,73.65 384.366,74.994 386.461,74.994Z" style="fill:white;fill-rule:nonzero;"/>
        <path d="M453.68,27.982C456.682,27.982 459.072,28.959 460.852,30.914C462.632,32.868 463.522,35.346 463.522,38.348C463.522,44.909 460.835,48.19 455.46,48.19C453.296,48.19 451.656,47.684 450.539,46.672C449.422,45.659 448.777,44.525 448.602,43.269C448.428,42.012 448.061,40.878 447.503,39.866C446.944,38.854 446.107,38.348 444.99,38.348C442.407,38.348 441.116,41.698 441.116,48.399L441.116,67.874C441.116,69.619 442.041,71.347 443.89,73.057C445.74,74.767 446.665,76.041 446.665,76.879L446.665,77.297C446.665,78.624 445.827,79.287 444.152,79.287L421.641,79.287C419.966,79.287 419.128,78.624 419.128,77.297L419.128,76.879C419.128,76.041 419.826,74.767 421.222,73.057C422.618,71.347 423.316,69.619 423.316,67.874L423.316,47.038C423.316,45.642 422.897,44.455 422.06,43.478C421.222,42.501 420.384,41.663 419.547,40.965C418.709,40.267 418.29,39.499 418.29,38.662L418.29,38.348C418.29,37.161 419.093,36.149 420.699,35.311L435.462,28.401C436.858,27.912 437.835,27.877 438.393,28.296C438.952,28.715 439.231,29.518 439.231,30.704L439.231,38.348C441.604,31.437 446.421,27.982 453.68,27.982Z" style="fill:white;fill-rule:nonzero;"/>
        <path d="M518.596,67.874C518.596,69.619 519.294,71.347 520.69,73.057C522.086,74.767 522.784,76.041 522.784,76.879L522.784,77.297C522.784,78.624 521.982,79.287 520.376,79.287L505.404,79.287C503.589,79.287 502.681,78.414 502.681,76.669L502.681,75.727C499.401,78.798 495.143,80.334 489.908,80.334C483.137,80.334 477.326,78.013 472.474,73.371C467.623,68.729 465.198,62.325 465.198,54.158C465.198,46.549 467.641,40.285 472.527,35.364C477.413,30.443 483.241,27.982 490.012,27.982C494.27,27.982 497.865,28.959 500.797,30.914L500.797,16.988C500.797,15.592 500.343,14.388 499.436,13.376C498.528,12.364 497.603,11.491 496.661,10.758C495.719,10.025 495.247,9.24 495.247,8.402L495.247,8.088C495.247,6.762 496.05,5.855 497.656,5.366L513.989,0.445C517.061,-0.532 518.596,0.305 518.596,2.958L518.596,67.874ZM494.096,75.203C495.98,75.273 497.568,74.505 498.86,72.9C500.151,71.294 500.797,69.13 500.797,66.408L500.797,46.2C500.797,42.85 499.837,39.831 497.917,37.144C495.998,34.456 493.816,33.112 491.373,33.112C486.208,33.112 483.451,37.405 483.102,45.991C482.962,49.272 483.259,53.076 483.992,57.404C484.725,61.731 485.981,65.763 487.761,69.497C489.541,73.231 491.653,75.133 494.096,75.203Z" style="fill:white;fill-rule:nonzero;"/>
    </g>
</svg>
