<?xml version="1.0" encoding="UTF-8" standalone="no"?>
<!DOCTYPE svg PUBLIC "-//W3C//DTD SVG 1.1//EN" "http://www.w3.org/Graphics/SVG/1.1/DTD/svg11.dtd">
<svg width="100%" height="100%" viewBox="0 0 328 24" version="1.1" xmlns="http://www.w3.org/2000/svg" xmlns:xlink="http://www.w3.org/1999/xlink" xml:space="preserve" xmlns:serif="http://www.serif.com/" style="fill-rule:evenodd;clip-rule:evenodd;stroke-linejoin:round;stroke-miterlimit:2;">
    <g transform="matrix(1,0,0,1,0.00694993,-0.00384267)">
        <g id="Title" transform="matrix(1,0,0,1,-0.72,22.717)">
            <path d="M218.97,-11.46C220.493,-11.31 221.926,-10.668 223.05,-9.63C224.036,-8.684 224.58,-7.366 224.55,-6C224.568,-4.193 223.601,-2.512 222.03,-1.62C220.35,-0.54 217.84,0 214.5,0L206.28,0C205.8,0 205.56,-0.19 205.56,-0.57L205.56,-0.69C205.647,-1.108 205.856,-1.491 206.16,-1.79C206.528,-2.199 206.741,-2.725 206.76,-3.275L206.76,-18.03C206.741,-18.58 206.528,-19.106 206.16,-19.515C205.857,-19.813 205.648,-20.194 205.56,-20.61L205.56,-20.73C205.56,-21.11 205.8,-21.3 206.28,-21.3L214.59,-21.3C216.655,-21.441 218.711,-20.915 220.455,-19.8C221.726,-18.914 222.475,-17.449 222.45,-15.9C222.48,-14.869 222.145,-13.859 221.505,-13.05C220.856,-12.258 219.965,-11.7 218.97,-11.46ZM212.16,-17.64L212.16,-13.86C212.139,-13.433 212.303,-13.017 212.61,-12.72C212.93,-12.433 213.35,-12.282 213.78,-12.3L215.28,-12.3C215.973,-12.272 216.643,-12.552 217.11,-13.065C217.592,-13.638 217.839,-14.373 217.8,-15.12C217.865,-16.197 217.54,-17.262 216.885,-18.12C216.271,-18.842 215.357,-19.241 214.41,-19.2L213.57,-19.2C212.63,-19.2 212.16,-18.68 212.16,-17.64ZM215.85,-2.1C216.673,-2.054 217.478,-2.366 218.055,-2.955C218.604,-3.578 218.89,-4.391 218.85,-5.22C218.832,-6.505 218.312,-7.734 217.4,-8.64C216.362,-9.708 214.912,-10.277 213.425,-10.2L212.165,-10.2L212.165,-4.65C212.139,-3.985 212.358,-3.334 212.78,-2.82C213.185,-2.342 213.789,-2.076 214.415,-2.1L215.85,-2.1ZM241.26,-3.3C241.239,-2.881 241.305,-2.462 241.455,-2.07C241.588,-1.79 241.738,-1.635 241.905,-1.605C242.074,-1.576 242.23,-1.497 242.355,-1.38C242.498,-1.226 242.569,-1.019 242.55,-0.81C242.55,-0.43 242.295,-0.17 241.785,-0.03C241.022,0.136 240.241,0.206 239.46,0.18C238.751,0.23 238.042,0.095 237.4,-0.21C236.945,-0.512 236.66,-1.014 236.635,-1.56C235.838,-0.32 234.43,0.3 232.41,0.3C230.919,0.341 229.473,-0.228 228.41,-1.275C227.296,-2.434 226.713,-4.005 226.8,-5.61L226.8,-10.62C226.786,-11.176 226.573,-11.708 226.2,-12.12C225.909,-12.398 225.701,-12.751 225.6,-13.14L225.6,-13.26C225.6,-13.66 225.83,-13.89 226.29,-13.95L230.76,-14.55C231.7,-14.67 232.17,-14.47 232.17,-13.95L232.08,-5.07C232,-4.18 232.15,-3.285 232.515,-2.47C232.816,-1.942 233.394,-1.631 234,-1.67C234.581,-1.681 235.116,-1.994 235.41,-2.495C235.818,-3.145 236.017,-3.904 235.98,-4.67L235.98,-10.61C235.966,-11.166 235.753,-11.698 235.38,-12.11C235.089,-12.388 234.881,-12.741 234.78,-13.13L234.78,-13.25C234.78,-13.65 235.01,-13.88 235.47,-13.94L239.94,-14.54C240.82,-14.66 241.26,-14.46 241.26,-13.94L241.26,-3.3ZM250.35,0.27C248.715,0.333 247.089,0 245.61,-0.7C244.546,-1.103 243.815,-2.099 243.75,-3.235C243.71,-3.78 243.927,-4.313 244.335,-4.675C244.777,-5.012 245.325,-5.182 245.88,-5.155C246.488,-5.184 247.079,-4.949 247.5,-4.51C247.881,-4.113 248.159,-3.629 248.31,-3.1C248.452,-2.586 248.697,-2.106 249.03,-1.69C249.34,-1.275 249.832,-1.034 250.35,-1.045C250.413,-1.037 250.477,-1.032 250.542,-1.032C251.334,-1.032 251.987,-1.685 251.987,-2.477C251.987,-2.55 251.981,-2.623 251.97,-2.695C251.994,-3.366 251.685,-4.006 251.145,-4.405C250.545,-4.849 249.867,-5.175 249.145,-5.365C248.365,-5.585 247.59,-5.835 246.82,-6.115C246.045,-6.398 245.361,-6.886 244.84,-7.525C244.262,-8.268 243.97,-9.195 244.015,-10.135C244.006,-11.459 244.675,-12.699 245.785,-13.42C247.131,-14.319 248.728,-14.765 250.345,-14.695C251.927,-14.762 253.498,-14.399 254.89,-13.645C255.9,-13.186 256.577,-12.203 256.645,-11.095C256.654,-10.595 256.439,-10.116 256.06,-9.79C255.669,-9.44 255.159,-9.252 254.635,-9.265C254.048,-9.235 253.477,-9.466 253.075,-9.895C252.709,-10.29 252.446,-10.769 252.31,-11.29C252.187,-11.786 251.985,-12.259 251.71,-12.69C251.486,-13.084 251.064,-13.326 250.61,-13.32C250.202,-13.335 249.812,-13.143 249.575,-12.81C249.322,-12.462 249.191,-12.04 249.2,-11.61C249.179,-10.92 249.474,-10.257 250,-9.81C250.562,-9.333 251.215,-8.975 251.92,-8.76C252.67,-8.52 253.42,-8.26 254.17,-7.98C254.918,-7.701 255.581,-7.23 256.09,-6.615C256.644,-5.913 256.927,-5.034 256.885,-4.14C256.882,-2.855 256.219,-1.658 255.13,-0.975C253.704,-0.075 252.034,0.36 250.35,0.27ZM262.35,-16.17C261.442,-16.13 260.552,-16.436 259.86,-17.025C259.236,-17.56 258.883,-18.348 258.9,-19.17C258.883,-19.992 259.236,-20.78 259.86,-21.315C260.552,-21.904 261.442,-22.21 262.35,-22.17C263.248,-22.206 264.128,-21.9 264.81,-21.315C265.434,-20.78 265.787,-19.992 265.77,-19.17C265.787,-18.348 265.434,-17.56 264.81,-17.025C264.128,-16.44 263.248,-16.134 262.35,-16.17ZM259.14,0C258.66,0 258.42,-0.19 258.42,-0.57L258.42,-0.69C258.509,-1.11 258.717,-1.496 259.02,-1.8C259.387,-2.216 259.599,-2.746 259.62,-3.3L259.62,-9C259.605,-9.56 259.392,-10.097 259.02,-10.515C258.736,-10.792 258.53,-11.139 258.42,-11.52L258.42,-11.64C258.42,-11.88 258.65,-12.11 259.11,-12.33L263.64,-14.55C263.942,-14.726 264.309,-14.748 264.63,-14.61C264.871,-14.468 265.011,-14.199 264.99,-13.92L264.99,-3.3C265.019,-2.733 265.26,-2.197 265.665,-1.8C265.999,-1.508 266.235,-1.121 266.34,-0.69L266.34,-0.57C266.34,-0.19 266.09,0 265.59,0L259.14,0ZM283.92,-3.27C283.974,-2.733 284.171,-2.22 284.49,-1.785C284.759,-1.463 284.935,-1.074 285,-0.66L285,-0.54C285,-0.16 284.76,0.03 284.28,0.03L278.28,0.03C277.8,0.03 277.56,-0.16 277.56,-0.54L277.56,-0.66C277.643,-1.076 277.84,-1.46 278.13,-1.77C278.483,-2.188 278.665,-2.724 278.64,-3.27L278.34,-8.64C278.342,-9.717 278.144,-10.785 277.755,-11.79C277.499,-12.375 276.908,-12.745 276.27,-12.72C275.68,-12.746 275.12,-12.446 274.815,-11.94C274.453,-11.291 274.281,-10.552 274.32,-9.81L274.32,-3.27C274.347,-2.706 274.582,-2.171 274.98,-1.77C275.308,-1.476 275.538,-1.088 275.64,-0.66L275.64,-0.54C275.64,-0.16 275.4,0.03 274.92,0.03L268.44,0.03C267.96,0.03 267.72,-0.16 267.72,-0.54L267.72,-0.66C267.822,-1.088 268.052,-1.476 268.38,-1.77C268.778,-2.171 269.013,-2.706 269.04,-3.27L269.04,-9.18C269.05,-9.572 268.911,-9.953 268.65,-10.245C268.408,-10.518 268.142,-10.769 267.855,-10.995C267.623,-11.144 267.474,-11.395 267.455,-11.67L267.455,-11.76C267.455,-12.02 267.695,-12.27 268.175,-12.51L272.375,-14.58C272.755,-14.74 273.04,-14.745 273.23,-14.595C273.435,-14.409 273.541,-14.136 273.515,-13.86L273.515,-12.45C274.385,-13.967 276.062,-14.847 277.805,-14.7C279.236,-14.726 280.623,-14.199 281.675,-13.23C282.885,-11.939 283.552,-10.23 283.535,-8.46L283.92,-3.27ZM298.41,-4.74C298.591,-4.949 298.884,-5.027 299.145,-4.935C299.407,-4.856 299.57,-4.589 299.52,-4.32C299.368,-3.11 298.742,-2.009 297.78,-1.26C296.589,-0.194 295.027,0.367 293.43,0.3C291.436,0.374 289.5,-0.388 288.09,-1.8C286.682,-3.271 285.934,-5.255 286.02,-7.29C285.956,-9.292 286.747,-11.23 288.195,-12.615C289.58,-13.979 291.457,-14.73 293.4,-14.7C294.914,-14.795 296.415,-14.349 297.63,-13.44C298.541,-12.772 299.095,-11.719 299.13,-10.59C299.155,-9.791 298.691,-9.053 297.96,-8.73L291.99,-5.37C292.684,-4.143 294,-3.392 295.41,-3.42C296.015,-3.417 296.614,-3.545 297.165,-3.795C297.654,-3.998 298.083,-4.324 298.41,-4.74ZM292.86,-13.23C292.247,-13.222 291.686,-12.875 291.405,-12.33C291.013,-11.647 290.821,-10.867 290.85,-10.08C290.83,-9.013 290.982,-7.949 291.3,-6.93L294.09,-8.61C294.599,-8.948 294.895,-9.529 294.87,-10.14C294.859,-10.848 294.689,-11.545 294.375,-12.18C294.143,-12.813 293.535,-13.235 292.86,-13.23ZM307.32,0.27C305.685,0.333 304.059,0 302.58,-0.7C301.516,-1.103 300.785,-2.099 300.72,-3.235C300.68,-3.78 300.897,-4.313 301.305,-4.675C301.747,-5.012 302.295,-5.182 302.85,-5.155C303.458,-5.184 304.049,-4.949 304.47,-4.51C304.851,-4.113 305.129,-3.629 305.28,-3.1C305.422,-2.586 305.667,-2.106 306,-1.69C306.31,-1.275 306.802,-1.034 307.32,-1.045C307.383,-1.037 307.447,-1.032 307.512,-1.032C308.304,-1.032 308.957,-1.685 308.957,-2.477C308.957,-2.55 308.951,-2.623 308.94,-2.695C308.964,-3.366 308.655,-4.006 308.115,-4.405C307.517,-4.848 306.84,-5.174 306.12,-5.365C305.34,-5.585 304.565,-5.835 303.795,-6.115C303.02,-6.398 302.336,-6.886 301.815,-7.525C301.237,-8.268 300.945,-9.195 300.99,-10.135C300.981,-11.459 301.65,-12.699 302.76,-13.42C304.106,-14.319 305.703,-14.765 307.32,-14.695C308.902,-14.762 310.473,-14.399 311.865,-13.645C312.875,-13.186 313.552,-12.203 313.62,-11.095C313.629,-10.595 313.414,-10.116 313.035,-9.79C312.644,-9.44 312.134,-9.252 311.61,-9.265C311.023,-9.235 310.452,-9.466 310.05,-9.895C309.684,-10.29 309.421,-10.769 309.285,-11.29C309.162,-11.786 308.96,-12.259 308.685,-12.69C308.461,-13.084 308.039,-13.326 307.585,-13.32C307.177,-13.335 306.787,-13.143 306.55,-12.81C306.297,-12.462 306.166,-12.04 306.175,-11.61C306.154,-10.92 306.449,-10.257 306.975,-9.81C307.537,-9.333 308.19,-8.975 308.895,-8.76C309.645,-8.52 310.395,-8.26 311.145,-7.98C311.893,-7.701 312.556,-7.23 313.065,-6.615C313.619,-5.913 313.902,-5.034 313.86,-4.14C313.857,-2.855 313.194,-1.658 312.105,-0.975C310.678,-0.074 309.005,0.361 307.32,0.27ZM321.84,0.27C320.205,0.333 318.579,0 317.1,-0.7C316.036,-1.103 315.305,-2.099 315.24,-3.235C315.2,-3.78 315.417,-4.313 315.825,-4.675C316.267,-5.012 316.815,-5.182 317.37,-5.155C317.978,-5.184 318.569,-4.949 318.99,-4.51C319.371,-4.113 319.649,-3.629 319.8,-3.1C319.942,-2.586 320.187,-2.106 320.52,-1.69C320.83,-1.275 321.322,-1.034 321.84,-1.045C321.903,-1.037 321.967,-1.032 322.032,-1.032C322.824,-1.032 323.477,-1.685 323.477,-2.477C323.477,-2.55 323.471,-2.623 323.46,-2.695C323.484,-3.366 323.175,-4.006 322.635,-4.405C322.037,-4.848 321.36,-5.174 320.64,-5.365C319.86,-5.585 319.085,-5.835 318.315,-6.115C317.54,-6.398 316.856,-6.886 316.335,-7.525C315.757,-8.268 315.465,-9.195 315.51,-10.135C315.501,-11.459 316.17,-12.699 317.28,-13.42C318.626,-14.319 320.223,-14.765 321.84,-14.695C323.422,-14.762 324.993,-14.399 326.385,-13.645C327.395,-13.186 328.072,-12.203 328.14,-11.095C328.149,-10.595 327.934,-10.116 327.555,-9.79C327.164,-9.44 326.654,-9.252 326.13,-9.265C325.543,-9.235 324.972,-9.466 324.57,-9.895C324.201,-10.292 323.936,-10.775 323.8,-11.3C323.677,-11.796 323.475,-12.269 323.2,-12.7C322.976,-13.094 322.554,-13.336 322.1,-13.33C321.692,-13.345 321.302,-13.153 321.065,-12.82C320.812,-12.472 320.681,-12.05 320.69,-11.62C320.669,-10.93 320.964,-10.267 321.49,-9.82C322.052,-9.343 322.705,-8.985 323.41,-8.77C324.16,-8.53 324.91,-8.27 325.66,-7.99C326.408,-7.711 327.071,-7.24 327.58,-6.625C328.134,-5.923 328.417,-5.044 328.375,-4.15C328.372,-2.865 327.709,-1.668 326.62,-0.985C325.196,-0.081 323.525,0.357 321.84,0.27Z" style="fill:rgb(61,115,221);fill-rule:nonzero;"/>
        </g>
        <g id="Title1" serif:id="Title" transform="matrix(1,0,0,1,-0.72,22.717)">
            <path d="M11.01,0.3C8.185,0.343 5.487,-0.893 3.675,-3.06C1.737,-5.215 0.682,-8.023 0.72,-10.92C0.62,-13.725 1.609,-16.463 3.48,-18.555C5.331,-20.57 7.976,-21.673 10.71,-21.57C12.873,-21.625 15.004,-21.035 16.83,-19.875C18.55,-18.745 19.41,-17.4 19.41,-15.84C19.434,-15.201 19.189,-14.58 18.735,-14.13C18.244,-13.674 17.589,-13.436 16.92,-13.47C16.258,-13.464 15.614,-13.681 15.09,-14.085C14.554,-14.49 14.101,-14.994 13.755,-15.57C13.405,-16.15 13.05,-16.735 12.69,-17.325C12.346,-17.897 11.904,-18.405 11.385,-18.825C10.89,-19.23 10.269,-19.447 9.63,-19.44C8.596,-19.422 7.634,-18.894 7.065,-18.03C6.302,-16.911 5.928,-15.572 6,-14.22C5.896,-11.744 6.614,-9.302 8.04,-7.275C9.067,-5.652 10.831,-4.636 12.75,-4.56C13.368,-4.553 13.982,-4.654 14.565,-4.86C15.103,-5.053 15.601,-5.343 16.035,-5.715C16.391,-6.012 16.723,-6.338 17.025,-6.69C17.255,-6.97 17.522,-7.32 17.825,-7.74C18.065,-8.066 18.488,-8.205 18.875,-8.085C19.277,-7.999 19.544,-7.606 19.475,-7.2C19.428,-5.199 18.602,-3.293 17.175,-1.89C15.507,-0.347 13.277,0.445 11.01,0.3ZM35.16,-3.27C35.197,-2.866 35.314,-2.473 35.505,-2.115C35.618,-1.885 35.795,-1.692 36.015,-1.56C36.183,-1.481 36.339,-1.38 36.48,-1.26C36.615,-1.15 36.693,-0.984 36.69,-0.81C36.69,-0.15 35.56,0.18 33.3,0.18C32.599,0.219 31.898,0.106 31.245,-0.15C30.8,-0.363 30.483,-0.776 30.39,-1.26C29.457,-0.142 28.029,0.443 26.58,0.3C25.124,0.366 23.686,-0.045 22.485,-0.87C21.428,-1.665 20.836,-2.939 20.91,-4.26C20.85,-5.571 21.433,-6.831 22.47,-7.635C23.574,-8.466 24.929,-8.895 26.31,-8.85C27.369,-8.881 28.417,-8.621 29.34,-8.1L29.34,-8.19C29.252,-9.549 29.025,-10.896 28.665,-12.21C28.488,-12.856 27.879,-13.295 27.21,-13.26C26.755,-13.263 26.331,-13.022 26.1,-12.63C25.819,-12.208 25.611,-11.741 25.485,-11.25C25.349,-10.74 25.098,-10.267 24.75,-9.87C24.392,-9.451 23.861,-9.218 23.31,-9.24C22.756,-9.218 22.214,-9.412 21.8,-9.78C21.409,-10.142 21.195,-10.658 21.215,-11.19C21.206,-12.335 21.896,-13.377 22.955,-13.815C24.285,-14.442 25.745,-14.745 27.215,-14.7C29.012,-14.768 30.775,-14.187 32.18,-13.065C33.501,-11.95 34.334,-10.361 34.5,-8.64L35.16,-3.27ZM28.23,-1.23C28.696,-1.232 29.126,-1.485 29.355,-1.89C29.647,-2.335 29.798,-2.858 29.79,-3.39L29.67,-4.77C29.47,-6.43 28.85,-7.26 27.81,-7.26C27.37,-7.269 26.954,-7.059 26.7,-6.7C26.4,-6.265 26.253,-5.743 26.28,-5.215C26.251,-4.243 26.43,-3.277 26.805,-2.38C27.155,-1.613 27.63,-1.23 28.23,-1.23ZM47.49,-14.7C48.265,-14.735 49.017,-14.428 49.545,-13.86C50.064,-13.275 50.338,-12.512 50.31,-11.73C50.31,-9.85 49.54,-8.91 48,-8.91C47.492,-8.874 46.989,-9.029 46.59,-9.345C46.294,-9.593 46.097,-9.939 46.035,-10.32C45.991,-10.662 45.884,-10.992 45.72,-11.295C45.587,-11.568 45.304,-11.739 45,-11.73C44.26,-11.73 43.89,-10.77 43.89,-8.85L43.89,-3.27C43.933,-2.685 44.222,-2.145 44.685,-1.785C45.218,-1.295 45.485,-0.928 45.485,-0.685L45.485,-0.565C45.485,-0.185 45.245,0.005 44.765,0.005L38.31,0.005C37.83,0.005 37.59,-0.185 37.59,-0.565L37.59,-0.69C37.677,-1.108 37.886,-1.491 38.19,-1.79C38.558,-2.199 38.771,-2.725 38.79,-3.275L38.79,-9.24C38.8,-9.613 38.671,-9.976 38.43,-10.26C38.21,-10.52 37.97,-10.76 37.71,-10.98C37.495,-11.133 37.362,-11.377 37.35,-11.64L37.35,-11.73C37.35,-12.07 37.58,-12.36 38.04,-12.6L42.27,-14.58C42.67,-14.72 42.95,-14.73 43.11,-14.61C43.294,-14.43 43.383,-14.175 43.35,-13.92L43.35,-11.73C43.845,-13.572 45.586,-14.821 47.49,-14.7ZM66.09,-3.27C66.109,-2.72 66.322,-2.194 66.69,-1.785C66.994,-1.486 67.203,-1.103 67.29,-0.685L67.29,-0.565C67.29,-0.185 67.06,0.005 66.6,0.005L62.31,0.005C61.79,0.005 61.53,-0.245 61.53,-0.745L61.53,-1.015C60.53,-0.115 59.215,0.358 57.87,0.3C56.004,0.331 54.202,-0.388 52.87,-1.695C51.431,-3.153 50.675,-5.155 50.79,-7.2C50.722,-9.206 51.482,-11.155 52.89,-12.585C54.194,-13.954 56.01,-14.721 57.9,-14.7C58.991,-14.736 60.068,-14.443 60.99,-13.86L60.99,-17.85C60.997,-18.232 60.857,-18.602 60.6,-18.885C60.356,-19.158 60.089,-19.409 59.8,-19.635C59.568,-19.784 59.419,-20.035 59.4,-20.31L59.4,-20.4C59.4,-20.78 59.63,-21.04 60.09,-21.18L64.77,-22.59C65.65,-22.87 66.09,-22.63 66.09,-21.87L66.09,-3.27ZM59.07,-1.17C59.606,-1.148 60.119,-1.396 60.435,-1.83C60.829,-2.367 61.026,-3.025 60.99,-3.69L60.99,-9.48C60.999,-10.411 60.71,-11.32 60.165,-12.075C59.774,-12.75 59.069,-13.185 58.29,-13.23C56.81,-13.23 56.02,-12 55.92,-9.54C55.892,-8.444 55.977,-7.348 56.175,-6.27C56.372,-5.07 56.736,-3.904 57.255,-2.805C57.765,-1.735 58.37,-1.19 59.07,-1.17ZM78.06,-14.7C79.887,-14.715 81.654,-14.036 83,-12.8C84.47,-11.431 85.256,-9.475 85.14,-7.47C85.225,-5.397 84.474,-3.374 83.055,-1.86C81.77,-0.465 79.951,0.32 78.055,0.3C76.719,0.353 75.415,-0.121 74.425,-1.02L74.425,-0.75C74.43,-0.718 74.432,-0.685 74.432,-0.652C74.432,-0.274 74.121,0.037 73.743,0.037C73.71,0.037 73.677,0.035 73.645,0.03L69.12,0C68.66,0 68.43,-0.19 68.43,-0.57L68.43,-0.69C68.517,-1.108 68.726,-1.491 69.03,-1.79C69.402,-2.208 69.615,-2.745 69.63,-3.305L69.63,-16.95C69.607,-17.518 69.339,-18.049 68.895,-18.405C68.405,-18.855 68.16,-19.2 68.16,-19.44L68.16,-19.56C68.16,-19.88 68.43,-20.16 68.97,-20.4L73.59,-22.53C73.883,-22.721 74.249,-22.765 74.58,-22.65C74.878,-22.498 75.048,-22.171 75,-21.84L75,-13.8C75.89,-14.434 76.968,-14.751 78.06,-14.7ZM77.58,-1.17C79.1,-1.17 79.86,-2.43 79.86,-4.95C79.86,-6.156 79.764,-7.359 79.575,-8.55C79.408,-9.677 79.064,-10.771 78.555,-11.79C78.065,-12.75 77.48,-13.23 76.8,-13.23C76.273,-13.237 75.778,-12.97 75.495,-12.525C75.135,-11.946 74.962,-11.27 75,-10.59L75,-4.77C74.992,-3.876 75.27,-3.003 75.795,-2.28C76.166,-1.635 76.837,-1.218 77.58,-1.17ZM94.71,0.3C92.543,0.358 90.434,-0.409 88.81,-1.845C87.242,-3.188 86.357,-5.166 86.4,-7.23C86.353,-9.284 87.236,-11.253 88.8,-12.585C90.366,-13.982 92.402,-14.738 94.5,-14.7C96.639,-14.752 98.72,-13.99 100.32,-12.57C101.888,-11.221 102.77,-9.237 102.72,-7.17C102.771,-5.128 101.913,-3.165 100.38,-1.815C98.832,-0.409 96.801,0.348 94.71,0.3ZM95.34,-1.17C96.62,-1.17 97.26,-2.4 97.26,-4.86C97.24,-5.94 97.114,-7.015 96.885,-8.07C96.64,-9.296 96.216,-10.478 95.625,-11.58C95.035,-12.68 94.38,-13.23 93.66,-13.23C93.016,-13.264 92.416,-12.892 92.16,-12.3C91.811,-11.403 91.658,-10.441 91.71,-9.48C91.722,-8.695 91.803,-7.912 91.95,-7.14C92.114,-6.222 92.335,-5.316 92.61,-4.425C92.852,-3.591 93.243,-2.808 93.765,-2.115C94.11,-1.568 94.695,-1.217 95.34,-1.17ZM118.38,-3.27C118.417,-2.866 118.534,-2.473 118.725,-2.115C118.838,-1.885 119.015,-1.692 119.235,-1.56C119.403,-1.481 119.559,-1.38 119.7,-1.26C119.835,-1.15 119.913,-0.984 119.91,-0.81C119.91,-0.15 118.78,0.18 116.52,0.18C115.819,0.219 115.118,0.106 114.465,-0.15C114.02,-0.363 113.703,-0.776 113.61,-1.26C112.677,-0.142 111.249,0.443 109.8,0.3C108.343,0.367 106.902,-0.044 105.7,-0.87C104.643,-1.665 104.051,-2.939 104.125,-4.26C104.065,-5.571 104.648,-6.831 105.685,-7.635C106.789,-8.466 108.144,-8.895 109.525,-8.85C110.584,-8.881 111.632,-8.621 112.555,-8.1L112.555,-8.19C112.467,-9.549 112.24,-10.896 111.88,-12.21C111.703,-12.856 111.094,-13.295 110.425,-13.26C109.97,-13.263 109.546,-13.022 109.315,-12.63C109.034,-12.208 108.826,-11.741 108.7,-11.25C108.564,-10.74 108.313,-10.267 107.965,-9.87C107.607,-9.451 107.076,-9.218 106.525,-9.24C105.969,-9.217 105.426,-9.41 105.01,-9.78C104.619,-10.142 104.405,-10.658 104.425,-11.19C104.416,-12.335 105.106,-13.377 106.165,-13.815C107.495,-14.442 108.955,-14.745 110.425,-14.7C112.222,-14.768 113.985,-14.187 115.39,-13.065C116.715,-11.952 117.552,-10.362 117.72,-8.64L118.38,-3.27ZM111.45,-1.23C111.916,-1.232 112.346,-1.485 112.575,-1.89C112.867,-2.335 113.018,-2.858 113.01,-3.39L112.89,-4.77C112.69,-6.43 112.07,-7.26 111.03,-7.26C110.591,-7.27 110.175,-7.062 109.92,-6.705C109.62,-6.27 109.473,-5.748 109.5,-5.22C109.471,-4.248 109.65,-3.282 110.025,-2.385C110.375,-1.615 110.85,-1.23 111.45,-1.23ZM130.71,-14.7C131.485,-14.735 132.237,-14.428 132.765,-13.86C133.284,-13.275 133.558,-12.512 133.53,-11.73C133.53,-9.85 132.76,-8.91 131.22,-8.91C130.712,-8.874 130.209,-9.029 129.81,-9.345C129.514,-9.593 129.317,-9.939 129.255,-10.32C129.211,-10.662 129.104,-10.992 128.94,-11.295C128.807,-11.568 128.524,-11.739 128.22,-11.73C127.48,-11.73 127.11,-10.77 127.11,-8.85L127.11,-3.27C127.154,-2.684 127.445,-2.144 127.91,-1.785C128.44,-1.295 128.705,-0.928 128.705,-0.685L128.705,-0.565C128.705,-0.185 128.465,0.005 127.985,0.005L121.535,0.005C121.055,0.005 120.815,-0.185 120.815,-0.565L120.815,-0.69C120.902,-1.108 121.111,-1.491 121.415,-1.79C121.783,-2.199 121.996,-2.725 122.015,-3.275L122.015,-9.24C122.025,-9.613 121.896,-9.976 121.655,-10.26C121.435,-10.52 121.195,-10.76 120.935,-10.98C120.72,-11.133 120.587,-11.377 120.575,-11.64L120.575,-11.73C120.575,-12.07 120.805,-12.36 121.265,-12.6L125.495,-14.58C125.895,-14.72 126.175,-14.73 126.335,-14.61C126.519,-14.43 126.608,-14.175 126.575,-13.92L126.575,-11.73C127.07,-13.57 128.808,-14.818 130.71,-14.7ZM149.31,-3.27C149.329,-2.72 149.542,-2.194 149.91,-1.785C150.214,-1.486 150.423,-1.103 150.51,-0.685L150.51,-0.565C150.51,-0.185 150.28,0.005 149.82,0.005L145.53,0.005C145.01,0.005 144.75,-0.245 144.75,-0.745L144.75,-1.015C143.75,-0.115 142.435,0.358 141.09,0.3C139.224,0.331 137.422,-0.388 136.09,-1.695C134.651,-3.151 133.893,-5.151 134.005,-7.195C133.937,-9.201 134.697,-11.15 136.105,-12.58C137.409,-13.949 139.225,-14.716 141.115,-14.695C142.206,-14.731 143.283,-14.438 144.205,-13.855L144.205,-17.845C144.212,-18.227 144.072,-18.597 143.815,-18.88C143.573,-19.153 143.307,-19.404 143.02,-19.63C142.788,-19.779 142.639,-20.03 142.62,-20.305L142.62,-20.395C142.62,-20.775 142.85,-21.035 143.31,-21.175L147.99,-22.585C148.87,-22.865 149.31,-22.625 149.31,-21.865L149.31,-3.27ZM142.29,-1.17C142.826,-1.148 143.339,-1.396 143.655,-1.83C144.049,-2.367 144.246,-3.025 144.21,-3.69L144.21,-9.48C144.219,-10.411 143.93,-11.32 143.385,-12.075C142.994,-12.75 142.289,-13.185 141.51,-13.23C140.03,-13.23 139.24,-12 139.14,-9.54C139.112,-8.444 139.197,-7.348 139.395,-6.27C139.592,-5.07 139.956,-3.904 140.475,-2.805C140.985,-1.735 141.59,-1.19 142.29,-1.17ZM164.76,-20.49C164.08,-20.49 163.695,-20.07 163.605,-19.23C163.519,-18.348 163.6,-17.457 163.845,-16.605C164.039,-15.84 164.326,-15.101 164.7,-14.405L168.09,-14.405C168.275,-14.411 168.454,-14.34 168.585,-14.21C168.717,-14.08 168.79,-13.9 168.785,-13.715L168.785,-13.055C168.79,-12.87 168.717,-12.69 168.585,-12.56C168.455,-12.428 168.275,-12.355 168.09,-12.36L164.82,-12.36L164.82,-3.3C164.859,-2.702 165.155,-2.15 165.63,-1.785C166.17,-1.295 166.44,-0.928 166.44,-0.685L166.44,-0.565C166.44,-0.185 166.21,0.005 165.75,0.005L159.15,0.005C158.69,0.005 158.46,-0.185 158.46,-0.565L158.46,-0.69C158.547,-1.108 158.756,-1.491 159.06,-1.79C159.432,-2.208 159.645,-2.745 159.66,-3.305L159.66,-12.365L157.71,-12.365C157.525,-12.36 157.345,-12.433 157.215,-12.565C157.083,-12.695 157.01,-12.875 157.015,-13.06L157.015,-13.72C157.01,-13.905 157.083,-14.085 157.215,-14.215C157.346,-14.345 157.525,-14.416 157.71,-14.41L159.66,-14.41L159.66,-15.91C159.593,-17.507 160.154,-19.069 161.22,-20.26C162.459,-21.457 164.152,-22.069 165.87,-21.94C167.099,-21.971 168.3,-21.567 169.26,-20.8C170.125,-20.184 170.649,-19.192 170.67,-18.13C170.668,-17.665 170.485,-17.218 170.16,-16.885C169.783,-16.5 169.257,-16.297 168.72,-16.33C168.166,-16.299 167.618,-16.452 167.16,-16.765C166.801,-17.026 166.533,-17.393 166.395,-17.815C166.268,-18.214 166.163,-18.62 166.08,-19.03C166.012,-19.4 165.869,-19.752 165.66,-20.065C165.454,-20.353 165.113,-20.514 164.76,-20.49ZM176.85,0.3C174.683,0.358 172.574,-0.409 170.95,-1.845C169.382,-3.188 168.497,-5.166 168.54,-7.23C168.493,-9.284 169.376,-11.253 170.94,-12.585C172.506,-13.982 174.542,-14.738 176.64,-14.7C178.779,-14.752 180.86,-13.99 182.46,-12.57C184.028,-11.221 184.91,-9.237 184.86,-7.17C184.911,-5.128 184.053,-3.165 182.52,-1.815C180.972,-0.409 178.941,0.348 176.85,0.3ZM177.48,-1.17C178.76,-1.17 179.4,-2.4 179.4,-4.86C179.38,-5.94 179.254,-7.015 179.025,-8.07C178.78,-9.296 178.356,-10.478 177.765,-11.58C177.175,-12.68 176.52,-13.23 175.8,-13.23C175.156,-13.264 174.556,-12.892 174.3,-12.3C173.951,-11.403 173.798,-10.441 173.85,-9.48C173.862,-8.695 173.943,-7.912 174.09,-7.14C174.254,-6.222 174.475,-5.316 174.75,-4.425C174.992,-3.591 175.383,-2.808 175.905,-2.115C176.25,-1.568 176.835,-1.217 177.48,-1.17ZM196.32,-14.7C197.095,-14.735 197.847,-14.428 198.375,-13.86C198.894,-13.275 199.168,-12.512 199.14,-11.73C199.14,-9.85 198.37,-8.91 196.83,-8.91C196.322,-8.874 195.819,-9.029 195.42,-9.345C195.124,-9.593 194.927,-9.939 194.865,-10.32C194.821,-10.662 194.714,-10.992 194.55,-11.295C194.417,-11.568 194.134,-11.739 193.83,-11.73C193.09,-11.73 192.72,-10.77 192.72,-8.85L192.72,-3.27C192.763,-2.685 193.052,-2.145 193.515,-1.785C194.045,-1.295 194.31,-0.928 194.31,-0.685L194.31,-0.565C194.31,-0.185 194.07,0.005 193.59,0.005L187.14,0.005C186.66,0.005 186.42,-0.185 186.42,-0.565L186.42,-0.69C186.507,-1.108 186.716,-1.491 187.02,-1.79C187.388,-2.199 187.601,-2.725 187.62,-3.275L187.62,-9.24C187.63,-9.613 187.501,-9.976 187.26,-10.26C187.04,-10.52 186.8,-10.76 186.54,-10.98C186.325,-11.133 186.192,-11.377 186.18,-11.64L186.18,-11.73C186.18,-12.07 186.41,-12.36 186.87,-12.6L191.1,-14.58C191.5,-14.72 191.78,-14.73 191.94,-14.61C192.124,-14.43 192.213,-14.175 192.18,-13.92L192.18,-11.73C192.675,-13.572 194.416,-14.821 196.32,-14.7Z" style="fill-rule:nonzero;"/>
        </g>
    </g>
</svg>
