<svg xmlns="http://www.w3.org/2000/svg" width="22.365" height="19.175" viewBox="0 0 22.365 19.175"><g transform="translate(3.495 -4.5)"><path d="M23.675,7.246A1.1,1.1,0,0,0,22.536,6.1h-9.7a.369.369,0,0,1-.3-.12L11.406,4.855l-.01-.01a1.085,1.085,0,0,0-.864-.345h-4.8A1.188,1.188,0,0,0,4.5,5.648V9.294H23.675Z" transform="translate(-6.399)"/><path d="M3.848,13.219H3.434c-.639,0-1.263.255-1.173,1.213S3.434,24.953,3.434,24.953c.135.889.584,1.248,1.248,1.248h17.6c.634,0,1.049-.389,1.148-1.248,0,0,1.109-9.233,1.178-10.261s-.444-1.473-1.178-1.473H3.848Z" transform="translate(-5.747 -2.527)"/></g></svg>